<svg version="1.1" baseProfile="full" width="100%" height="100%" xmlns="http://www.w3.org/2000/svg"> <polygon  points="128 0
0 221.7
256 221.7
" fill="red"/> 
<polygon  points="138.144 41.7025
138.12 42.4556
138.049 43.2057
137.931 43.95
137.767 44.6853
137.557 45.4089
137.302 46.1179
137.003 46.8094
136.661 47.4809
136.277 48.1295
135.854 48.7528
135.392 49.3484
134.894 49.9137
134.362 50.4467
133.797 50.9453
133.202 51.4073
132.579 51.8312
131.93 52.2151
131.259 52.5575
130.568 52.8571
129.859 53.1128
129.136 53.3235
128.4 53.4884
127.656 53.6068
126.906 53.6782
126.153 53.7025
125.4 53.6794
124.65 53.6092
123.906 53.492
123.17 53.3283
122.446 53.1187
121.737 52.8642
121.045 52.5656
120.374 52.2243
119.725 51.8414
119.101 51.4186
118.505 50.9574
117.939 50.4598
117.406 49.9277
116.907 49.3631
116.444 48.7683
116.02 48.1457
115.636 47.4976
115.293 46.8267
114.992 46.1356
114.736 45.4271
114.525 44.7038
114.36 43.9687
114.241 43.2247
114.168 42.4747
114.144 41.7216
114.166 40.9685
114.236 40.2182
114.352 39.4738
114.515 38.7382
114.724 38.0143
114.978 37.3049
115.276 36.6129
115.617 35.9409
116 35.2916
116.422 34.6676
116.883 34.0714
117.38 33.5052
117.911 32.9714
118.476 32.472
119.07 32.0089
119.692 31.5841
120.34 31.1992
121.011 30.8557
121.702 30.5549
122.41 30.2981
123.133 30.0863
123.868 29.9202
124.612 29.8007
125.362 29.728
126.115 29.7025
126.868 29.7244
127.618 29.7935
128.363 29.9095
129.099 30.072
129.823 30.2804
130.532 30.5338
131.225 30.8313
131.897 31.1716
132.546 31.5534
133.171 31.9752
133.767 32.4354
134.334 32.9321
134.868 33.4635
135.368 34.0272
135.832 34.6213
136.257 35.2432
136.642 35.8907
136.986 36.561
137.288 37.2516
137.545 37.9598
137.757 38.6827
137.924 39.4175
138.044 40.1613
138.117 40.9113
" fill="green"/> 
<polygon  points="124.287 65.7025
124.264 66.4556
124.193 67.2057
124.075 67.95
123.911 68.6853
123.7 69.4089
123.445 70.1179
123.146 70.8094
122.804 71.4809
122.421 72.1295
121.998 72.7528
121.536 73.3484
121.038 73.9137
120.505 74.4467
119.94 74.9453
119.345 75.4073
118.722 75.8312
118.074 76.2151
117.403 76.5575
116.711 76.8571
116.003 77.1128
115.279 77.3235
114.544 77.4884
113.8 77.6068
113.05 77.6782
112.297 77.7025
111.544 77.6794
110.793 77.6092
110.049 77.492
109.314 77.3283
108.59 77.1187
107.881 76.8642
107.189 76.5656
106.517 76.2243
105.868 75.8414
105.245 75.4186
104.649 74.9574
104.083 74.4598
103.55 73.9277
103.051 73.3631
102.588 72.7683
102.164 72.1457
101.779 71.4976
101.436 70.8267
101.136 70.1356
100.88 69.4271
100.669 68.7038
100.503 67.9687
100.384 67.2247
100.312 66.4747
100.287 65.7216
100.31 64.9685
100.379 64.2182
100.496 63.4738
100.659 62.7382
100.868 62.0143
101.122 61.3049
101.42 60.6129
101.761 59.9409
102.143 59.2916
102.566 58.6676
103.026 58.0714
103.523 57.5052
104.055 56.9714
104.619 56.472
105.214 56.0089
105.836 55.5841
106.484 55.1992
107.154 54.8557
107.845 54.5549
108.554 54.2981
109.277 54.0863
110.012 53.9202
110.756 53.8007
111.505 53.728
112.259 53.7025
113.012 53.7244
113.762 53.7935
114.506 53.9095
115.242 54.072
115.966 54.2804
116.676 54.5338
117.368 54.8313
118.04 55.1716
118.69 55.5534
119.314 55.9752
119.911 56.4354
120.477 56.9321
121.012 57.4635
121.512 58.0272
121.975 58.6213
122.4 59.2432
122.786 59.8907
123.13 60.561
123.431 61.2516
123.689 61.9598
123.901 62.6827
124.068 63.4175
124.188 64.1613
124.261 64.9113
" fill="green"/> 
<polygon  points="148.287 65.7025
148.264 66.4556
148.193 67.2057
148.075 67.95
147.911 68.6853
147.7 69.4089
147.445 70.1179
147.146 70.8094
146.804 71.4809
146.421 72.1295
145.998 72.7528
145.536 73.3484
145.038 73.9137
144.505 74.4467
143.94 74.9453
143.345 75.4073
142.722 75.8312
142.074 76.2151
141.403 76.5575
140.711 76.8571
140.003 77.1128
139.279 77.3235
138.544 77.4884
137.8 77.6068
137.05 77.6782
136.297 77.7025
135.544 77.6794
134.793 77.6092
134.049 77.492
133.314 77.3283
132.59 77.1187
131.881 76.8642
131.189 76.5656
130.517 76.2243
129.868 75.8414
129.245 75.4186
128.649 74.9574
128.083 74.4598
127.55 73.9277
127.051 73.3631
126.588 72.7683
126.164 72.1457
125.779 71.4976
125.436 70.8267
125.136 70.1356
124.88 69.4271
124.669 68.7038
124.503 67.9687
124.384 67.2247
124.312 66.4747
124.287 65.7216
124.31 64.9685
124.379 64.2182
124.496 63.4738
124.659 62.7382
124.868 62.0143
125.122 61.3049
125.42 60.6129
125.761 59.9409
126.143 59.2916
126.566 58.6676
127.026 58.0714
127.523 57.5052
128.055 56.9714
128.619 56.472
129.214 56.0089
129.836 55.5841
130.484 55.1992
131.154 54.8557
131.845 54.5549
132.554 54.2981
133.277 54.0863
134.012 53.9202
134.756 53.8007
135.505 53.728
136.259 53.7025
137.012 53.7244
137.762 53.7935
138.506 53.9095
139.242 54.072
139.966 54.2804
140.676 54.5338
141.368 54.8313
142.04 55.1716
142.69 55.5534
143.314 55.9752
143.911 56.4354
144.477 56.9321
145.012 57.4635
145.512 58.0272
145.975 58.6213
146.4 59.2432
146.786 59.8907
147.13 60.561
147.431 61.2516
147.689 61.9598
147.901 62.6827
148.068 63.4175
148.188 64.1613
148.261 64.9113
" fill="green"/> 
<polygon  points="110.431 89.7025
110.407 90.4556
110.336 91.2057
110.218 91.95
110.054 92.6853
109.844 93.4089
109.589 94.1179
109.29 94.8094
108.948 95.4809
108.565 96.1295
108.141 96.7528
107.68 97.3484
107.182 97.9137
106.649 98.4467
106.084 98.9453
105.489 99.4073
104.866 99.8312
104.218 100.215
103.546 100.557
102.855 100.857
102.146 101.113
101.423 101.324
100.688 101.488
99.9435 101.607
99.1934 101.678
98.4403 101.702
97.6872 101.679
96.937 101.609
96.1927 101.492
95.4572 101.328
94.7335 101.119
94.0243 100.864
93.3325 100.566
92.6608 100.224
92.0118 99.8414
91.3882 99.4186
90.7923 98.9574
90.2265 98.4598
89.6931 97.9277
89.1941 97.3631
88.7316 96.7683
88.3073 96.1457
87.9228 95.4976
87.5799 94.8267
87.2797 94.1356
87.0234 93.4271
86.8122 92.7038
86.6467 91.9687
86.5277 91.2247
86.4557 90.4747
86.4308 89.7216
86.4533 88.9685
86.5229 88.2182
86.6396 87.4738
86.8027 86.7382
87.0116 86.0143
87.2656 85.3049
87.5636 84.6129
87.9044 83.9409
88.2868 83.2916
88.7091 82.6676
89.1698 82.0714
89.667 81.5052
90.1987 80.9714
90.7629 80.472
91.3573 80.0089
91.9796 79.5841
92.6273 79.1992
93.2979 78.8557
93.9888 78.5549
94.6971 78.2981
95.4202 78.0863
96.1552 77.9202
96.8991 77.8007
97.6491 77.728
98.4021 77.7025
99.1553 77.7244
99.9056 77.7935
100.65 77.9095
101.386 78.072
102.11 78.2804
102.819 78.5338
103.512 78.8313
104.184 79.1716
104.834 79.5534
105.458 79.9752
106.055 80.4354
106.621 80.9321
107.155 81.4635
107.655 82.0272
108.119 82.6213
108.544 83.2432
108.929 83.8907
109.274 84.561
109.575 85.2516
109.832 85.9598
110.045 86.6827
110.211 87.4175
110.331 88.1613
110.405 88.9113
" fill="green"/> 
<polygon  points="134.431 89.7025
134.407 90.4556
134.336 91.2057
134.218 91.95
134.054 92.6853
133.844 93.4089
133.589 94.1179
133.29 94.8094
132.948 95.4809
132.565 96.1295
132.141 96.7528
131.68 97.3484
131.182 97.9137
130.649 98.4467
130.084 98.9453
129.489 99.4073
128.866 99.8312
128.218 100.215
127.546 100.557
126.855 100.857
126.146 101.113
125.423 101.324
124.688 101.488
123.944 101.607
123.193 101.678
122.44 101.702
121.687 101.679
120.937 101.609
120.193 101.492
119.457 101.328
118.733 101.119
118.024 100.864
117.332 100.566
116.661 100.224
116.012 99.8414
115.388 99.4186
114.792 98.9574
114.227 98.4598
113.693 97.9277
113.194 97.3631
112.732 96.7683
112.307 96.1457
111.923 95.4976
111.58 94.8267
111.28 94.1356
111.023 93.4271
110.812 92.7038
110.647 91.9687
110.528 91.2247
110.456 90.4747
110.431 89.7216
110.453 88.9685
110.523 88.2182
110.64 87.4738
110.803 86.7382
111.012 86.0143
111.266 85.3049
111.564 84.6129
111.904 83.9409
112.287 83.2916
112.709 82.6676
113.17 82.0714
113.667 81.5052
114.199 80.9714
114.763 80.472
115.357 80.0089
115.98 79.5841
116.627 79.1992
117.298 78.8557
117.989 78.5549
118.697 78.2981
119.42 78.0863
120.155 77.9202
120.899 77.8007
121.649 77.728
122.402 77.7025
123.155 77.7244
123.906 77.7935
124.65 77.9095
125.386 78.072
126.11 78.2804
126.819 78.5338
127.512 78.8313
128.184 79.1716
128.834 79.5534
129.458 79.9752
130.055 80.4354
130.621 80.9321
131.155 81.4635
131.655 82.0272
132.119 82.6213
132.544 83.2432
132.929 83.8907
133.274 84.561
133.575 85.2516
133.832 85.9598
134.045 86.6827
134.211 87.4175
134.331 88.1613
134.405 88.9113
" fill="green"/> 
<polygon  points="158.431 89.7025
158.407 90.4556
158.336 91.2057
158.218 91.95
158.054 92.6853
157.844 93.4089
157.589 94.1179
157.29 94.8094
156.948 95.4809
156.565 96.1295
156.141 96.7528
155.68 97.3484
155.182 97.9137
154.649 98.4467
154.084 98.9453
153.489 99.4073
152.866 99.8312
152.218 100.215
151.546 100.557
150.855 100.857
150.146 101.113
149.423 101.324
148.688 101.488
147.944 101.607
147.193 101.678
146.44 101.702
145.687 101.679
144.937 101.609
144.193 101.492
143.457 101.328
142.733 101.119
142.024 100.864
141.332 100.566
140.661 100.224
140.012 99.8414
139.388 99.4186
138.792 98.9574
138.227 98.4598
137.693 97.9277
137.194 97.3631
136.732 96.7683
136.307 96.1457
135.923 95.4976
135.58 94.8267
135.28 94.1356
135.023 93.4271
134.812 92.7038
134.647 91.9687
134.528 91.2247
134.456 90.4747
134.431 89.7216
134.453 88.9685
134.523 88.2182
134.64 87.4738
134.803 86.7382
135.012 86.0143
135.266 85.3049
135.564 84.6129
135.904 83.9409
136.287 83.2916
136.709 82.6676
137.17 82.0714
137.667 81.5052
138.199 80.9714
138.763 80.472
139.357 80.0089
139.98 79.5841
140.627 79.1992
141.298 78.8557
141.989 78.5549
142.697 78.2981
143.42 78.0863
144.155 77.9202
144.899 77.8007
145.649 77.728
146.402 77.7025
147.155 77.7244
147.906 77.7935
148.65 77.9095
149.386 78.072
150.11 78.2804
150.819 78.5338
151.512 78.8313
152.184 79.1716
152.834 79.5534
153.458 79.9752
154.055 80.4354
154.621 80.9321
155.155 81.4635
155.655 82.0272
156.119 82.6213
156.544 83.2432
156.929 83.8907
157.274 84.561
157.575 85.2516
157.832 85.9598
158.045 86.6827
158.211 87.4175
158.331 88.1613
158.405 88.9113
" fill="green"/> 
<polygon  points="96.5744 113.703
96.5507 114.456
96.4798 115.206
96.362 115.95
96.1978 116.685
95.9876 117.409
95.7325 118.118
95.4334 118.809
95.0915 119.481
94.7082 120.13
94.2848 120.753
93.8232 121.348
93.3251 121.914
92.7926 122.447
92.2276 122.945
91.6324 123.407
91.0095 123.831
90.3611 124.215
89.69 124.557
88.9986 124.857
88.2898 125.113
87.5664 125.324
86.8312 125.488
86.0871 125.607
85.337 125.678
84.5839 125.702
83.8308 125.679
83.0806 125.609
82.3363 125.492
81.6008 125.328
80.8771 125.119
80.1679 124.864
79.4761 124.566
78.8044 124.224
78.1554 123.841
77.5318 123.419
76.9359 122.957
76.3701 122.46
75.8367 121.928
75.3377 121.363
74.8752 120.768
74.4508 120.146
74.0664 119.498
73.7235 118.827
73.4233 118.136
73.167 117.427
72.9558 116.704
72.7903 115.969
72.6713 115.225
72.5992 114.475
72.5744 113.722
72.5968 112.968
72.6665 112.218
72.7831 111.474
72.9463 110.738
73.1552 110.014
73.4092 109.305
73.7072 108.613
74.048 107.941
74.4304 107.292
74.8527 106.668
75.3134 106.071
75.8105 105.505
76.3423 104.971
76.9065 104.472
77.5009 104.009
78.1232 103.584
78.7709 103.199
79.4415 102.856
80.1324 102.555
80.8407 102.298
81.5638 102.086
82.2988 101.92
83.0427 101.801
83.7927 101.728
84.5457 101.703
85.2989 101.724
86.0492 101.793
86.7937 101.91
87.5294 102.072
88.2535 102.28
88.9631 102.534
89.6553 102.831
90.3276 103.172
90.9772 103.553
91.6015 103.975
92.1981 104.435
92.7647 104.932
93.2989 105.463
93.7988 106.027
94.2623 106.621
94.6876 107.243
95.0731 107.891
95.4171 108.561
95.7184 109.252
95.9758 109.96
96.1882 110.683
96.3548 111.418
96.475 112.161
96.5483 112.911
" fill="green"/> 
<polygon  points="120.574 113.703
120.551 114.456
120.48 115.206
120.362 115.95
120.198 116.685
119.988 117.409
119.733 118.118
119.433 118.809
119.092 119.481
118.708 120.13
118.285 120.753
117.823 121.348
117.325 121.914
116.793 122.447
116.228 122.945
115.632 123.407
115.009 123.831
114.361 124.215
113.69 124.557
112.999 124.857
112.29 125.113
111.566 125.324
110.831 125.488
110.087 125.607
109.337 125.678
108.584 125.702
107.831 125.679
107.081 125.609
106.336 125.492
105.601 125.328
104.877 125.119
104.168 124.864
103.476 124.566
102.804 124.224
102.155 123.841
101.532 123.419
100.936 122.957
100.37 122.46
99.8367 121.928
99.3377 121.363
98.8752 120.768
98.4508 120.146
98.0664 119.498
97.7235 118.827
97.4233 118.136
97.167 117.427
96.9558 116.704
96.7903 115.969
96.6713 115.225
96.5992 114.475
96.5744 113.722
96.5968 112.968
96.6665 112.218
96.7831 111.474
96.9463 110.738
97.1552 110.014
97.4092 109.305
97.7072 108.613
98.048 107.941
98.4304 107.292
98.8527 106.668
99.3134 106.071
99.8105 105.505
100.342 104.971
100.906 104.472
101.501 104.009
102.123 103.584
102.771 103.199
103.442 102.856
104.132 102.555
104.841 102.298
105.564 102.086
106.299 101.92
107.043 101.801
107.793 101.728
108.546 101.703
109.299 101.724
110.049 101.793
110.794 101.91
111.529 102.072
112.253 102.28
112.963 102.534
113.655 102.831
114.328 103.172
114.977 103.553
115.601 103.975
116.198 104.435
116.765 104.932
117.299 105.463
117.799 106.027
118.262 106.621
118.688 107.243
119.073 107.891
119.417 108.561
119.718 109.252
119.976 109.96
120.188 110.683
120.355 111.418
120.475 112.161
120.548 112.911
" fill="green"/> 
<polygon  points="144.574 113.703
144.551 114.456
144.48 115.206
144.362 115.95
144.198 116.685
143.988 117.409
143.733 118.118
143.433 118.809
143.092 119.481
142.708 120.13
142.285 120.753
141.823 121.348
141.325 121.914
140.793 122.447
140.228 122.945
139.632 123.407
139.009 123.831
138.361 124.215
137.69 124.557
136.999 124.857
136.29 125.113
135.566 125.324
134.831 125.488
134.087 125.607
133.337 125.678
132.584 125.702
131.831 125.679
131.081 125.609
130.336 125.492
129.601 125.328
128.877 125.119
128.168 124.864
127.476 124.566
126.804 124.224
126.155 123.841
125.532 123.419
124.936 122.957
124.37 122.46
123.837 121.928
123.338 121.363
122.875 120.768
122.451 120.146
122.066 119.498
121.723 118.827
121.423 118.136
121.167 117.427
120.956 116.704
120.79 115.969
120.671 115.225
120.599 114.475
120.574 113.722
120.597 112.968
120.667 112.218
120.783 111.474
120.946 110.738
121.155 110.014
121.409 109.305
121.707 108.613
122.048 107.941
122.43 107.292
122.853 106.668
123.313 106.071
123.811 105.505
124.342 104.971
124.906 104.472
125.501 104.009
126.123 103.584
126.771 103.199
127.442 102.856
128.132 102.555
128.841 102.298
129.564 102.086
130.299 101.92
131.043 101.801
131.793 101.728
132.546 101.703
133.299 101.724
134.049 101.793
134.794 101.91
135.529 102.072
136.253 102.28
136.963 102.534
137.655 102.831
138.328 103.172
138.977 103.553
139.601 103.975
140.198 104.435
140.765 104.932
141.299 105.463
141.799 106.027
142.262 106.621
142.688 107.243
143.073 107.891
143.417 108.561
143.718 109.252
143.976 109.96
144.188 110.683
144.355 111.418
144.475 112.161
144.548 112.911
" fill="green"/> 
<polygon  points="168.574 113.703
168.551 114.456
168.48 115.206
168.362 115.95
168.198 116.685
167.988 117.409
167.733 118.118
167.433 118.809
167.092 119.481
166.708 120.13
166.285 120.753
165.823 121.348
165.325 121.914
164.793 122.447
164.228 122.945
163.632 123.407
163.009 123.831
162.361 124.215
161.69 124.557
160.999 124.857
160.29 125.113
159.566 125.324
158.831 125.488
158.087 125.607
157.337 125.678
156.584 125.702
155.831 125.679
155.081 125.609
154.336 125.492
153.601 125.328
152.877 125.119
152.168 124.864
151.476 124.566
150.804 124.224
150.155 123.841
149.532 123.419
148.936 122.957
148.37 122.46
147.837 121.928
147.338 121.363
146.875 120.768
146.451 120.146
146.066 119.498
145.723 118.827
145.423 118.136
145.167 117.427
144.956 116.704
144.79 115.969
144.671 115.225
144.599 114.475
144.574 113.722
144.597 112.968
144.667 112.218
144.783 111.474
144.946 110.738
145.155 110.014
145.409 109.305
145.707 108.613
146.048 107.941
146.43 107.292
146.853 106.668
147.313 106.071
147.811 105.505
148.342 104.971
148.906 104.472
149.501 104.009
150.123 103.584
150.771 103.199
151.442 102.856
152.132 102.555
152.841 102.298
153.564 102.086
154.299 101.92
155.043 101.801
155.793 101.728
156.546 101.703
157.299 101.724
158.049 101.793
158.794 101.91
159.529 102.072
160.253 102.28
160.963 102.534
161.655 102.831
162.328 103.172
162.977 103.553
163.601 103.975
164.198 104.435
164.765 104.932
165.299 105.463
165.799 106.027
166.262 106.621
166.688 107.243
167.073 107.891
167.417 108.561
167.718 109.252
167.976 109.96
168.188 110.683
168.355 111.418
168.475 112.161
168.548 112.911
" fill="green"/> 
<polygon  points="82.718 137.703
82.6943 138.456
82.6234 139.206
82.5056 139.95
82.3413 140.685
82.1312 141.409
81.8761 142.118
81.577 142.809
81.2351 143.481
80.8517 144.13
80.4284 144.753
79.9668 145.348
79.4687 145.914
78.9362 146.447
78.3712 146.945
77.776 147.407
77.1531 147.831
76.5047 148.215
75.8335 148.557
75.1422 148.857
74.4334 149.113
73.71 149.324
72.9748 149.488
72.2307 149.607
71.4806 149.678
70.7275 149.702
69.9744 149.679
69.2242 149.609
68.4799 149.492
67.7444 149.328
67.0207 149.119
66.3115 148.864
65.6197 148.566
64.948 148.224
64.299 147.841
63.6754 147.419
63.0795 146.957
62.5137 146.46
61.9803 145.928
61.4813 145.363
61.0188 144.768
60.5944 144.146
60.21 143.498
59.8671 142.827
59.5669 142.136
59.3106 141.427
59.0994 140.704
58.9339 139.969
58.8149 139.225
58.7428 138.475
58.718 137.722
58.7404 136.968
58.8101 136.218
58.9267 135.474
59.0899 134.738
59.2988 134.014
59.5528 133.305
59.8508 132.613
60.1916 131.941
60.574 131.292
60.9963 130.668
61.457 130.071
61.9541 129.505
62.4859 128.971
63.05 128.472
63.6445 128.009
64.2668 127.584
64.9145 127.199
65.5851 126.856
66.276 126.555
66.9843 126.298
67.7074 126.086
68.4424 125.92
69.1863 125.801
69.9363 125.728
70.6893 125.703
71.4425 125.724
72.1928 125.793
72.9373 125.91
73.673 126.072
74.3971 126.28
75.1067 126.534
75.7989 126.831
76.4712 127.172
77.1208 127.553
77.7451 127.975
78.3417 128.435
78.9083 128.932
79.4425 129.463
79.9424 130.027
80.4059 130.621
80.8312 131.243
81.2167 131.891
81.5607 132.561
81.862 133.252
82.1194 133.96
82.3318 134.683
82.4984 135.418
82.6186 136.161
82.6919 136.911
" fill="green"/> 
<polygon  points="106.718 137.703
106.694 138.456
106.623 139.206
106.506 139.95
106.341 140.685
106.131 141.409
105.876 142.118
105.577 142.809
105.235 143.481
104.852 144.13
104.428 144.753
103.967 145.348
103.469 145.914
102.936 146.447
102.371 146.945
101.776 147.407
101.153 147.831
100.505 148.215
99.8335 148.557
99.1422 148.857
98.4334 149.113
97.71 149.324
96.9748 149.488
96.2307 149.607
95.4806 149.678
94.7275 149.702
93.9744 149.679
93.2242 149.609
92.4799 149.492
91.7444 149.328
91.0207 149.119
90.3115 148.864
89.6197 148.566
88.948 148.224
88.299 147.841
87.6754 147.419
87.0795 146.957
86.5137 146.46
85.9803 145.928
85.4813 145.363
85.0188 144.768
84.5944 144.146
84.21 143.498
83.8671 142.827
83.5669 142.136
83.3106 141.427
83.0994 140.704
82.9339 139.969
82.8149 139.225
82.7428 138.475
82.718 137.722
82.7404 136.968
82.8101 136.218
82.9267 135.474
83.0899 134.738
83.2988 134.014
83.5528 133.305
83.8508 132.613
84.1916 131.941
84.574 131.292
84.9963 130.668
85.457 130.071
85.9541 129.505
86.4859 128.971
87.05 128.472
87.6445 128.009
88.2668 127.584
88.9145 127.199
89.5851 126.856
90.276 126.555
90.9843 126.298
91.7074 126.086
92.4424 125.92
93.1863 125.801
93.9363 125.728
94.6893 125.703
95.4425 125.724
96.1928 125.793
96.9373 125.91
97.673 126.072
98.3971 126.28
99.1067 126.534
99.7989 126.831
100.471 127.172
101.121 127.553
101.745 127.975
102.342 128.435
102.908 128.932
103.443 129.463
103.942 130.027
104.406 130.621
104.831 131.243
105.217 131.891
105.561 132.561
105.862 133.252
106.119 133.96
106.332 134.683
106.498 135.418
106.619 136.161
106.692 136.911
" fill="green"/> 
<polygon  points="130.718 137.703
130.694 138.456
130.623 139.206
130.506 139.95
130.341 140.685
130.131 141.409
129.876 142.118
129.577 142.809
129.235 143.481
128.852 144.13
128.428 144.753
127.967 145.348
127.469 145.914
126.936 146.447
126.371 146.945
125.776 147.407
125.153 147.831
124.505 148.215
123.834 148.557
123.142 148.857
122.433 149.113
121.71 149.324
120.975 149.488
120.231 149.607
119.481 149.678
118.728 149.702
117.974 149.679
117.224 149.609
116.48 149.492
115.744 149.328
115.021 149.119
114.311 148.864
113.62 148.566
112.948 148.224
112.299 147.841
111.675 147.419
111.079 146.957
110.514 146.46
109.98 145.928
109.481 145.363
109.019 144.768
108.594 144.146
108.21 143.498
107.867 142.827
107.567 142.136
107.311 141.427
107.099 140.704
106.934 139.969
106.815 139.225
106.743 138.475
106.718 137.722
106.74 136.968
106.81 136.218
106.927 135.474
107.09 134.738
107.299 134.014
107.553 133.305
107.851 132.613
108.192 131.941
108.574 131.292
108.996 130.668
109.457 130.071
109.954 129.505
110.486 128.971
111.05 128.472
111.644 128.009
112.267 127.584
112.914 127.199
113.585 126.856
114.276 126.555
114.984 126.298
115.707 126.086
116.442 125.92
117.186 125.801
117.936 125.728
118.689 125.703
119.442 125.724
120.193 125.793
120.937 125.91
121.673 126.072
122.397 126.28
123.107 126.534
123.799 126.831
124.471 127.172
125.121 127.553
125.745 127.975
126.342 128.435
126.908 128.932
127.443 129.463
127.942 130.027
128.406 130.621
128.831 131.243
129.217 131.891
129.561 132.561
129.862 133.252
130.119 133.96
130.332 134.683
130.498 135.418
130.619 136.161
130.692 136.911
" fill="green"/> 
<polygon  points="154.718 137.703
154.694 138.456
154.623 139.206
154.506 139.95
154.341 140.685
154.131 141.409
153.876 142.118
153.577 142.809
153.235 143.481
152.852 144.13
152.428 144.753
151.967 145.348
151.469 145.914
150.936 146.447
150.371 146.945
149.776 147.407
149.153 147.831
148.505 148.215
147.834 148.557
147.142 148.857
146.433 149.113
145.71 149.324
144.975 149.488
144.231 149.607
143.481 149.678
142.728 149.702
141.974 149.679
141.224 149.609
140.48 149.492
139.744 149.328
139.021 149.119
138.311 148.864
137.62 148.566
136.948 148.224
136.299 147.841
135.675 147.419
135.079 146.957
134.514 146.46
133.98 145.928
133.481 145.363
133.019 144.768
132.594 144.146
132.21 143.498
131.867 142.827
131.567 142.136
131.311 141.427
131.099 140.704
130.934 139.969
130.815 139.225
130.743 138.475
130.718 137.722
130.74 136.968
130.81 136.218
130.927 135.474
131.09 134.738
131.299 134.014
131.553 133.305
131.851 132.613
132.192 131.941
132.574 131.292
132.996 130.668
133.457 130.071
133.954 129.505
134.486 128.971
135.05 128.472
135.644 128.009
136.267 127.584
136.914 127.199
137.585 126.856
138.276 126.555
138.984 126.298
139.707 126.086
140.442 125.92
141.186 125.801
141.936 125.728
142.689 125.703
143.442 125.724
144.193 125.793
144.937 125.91
145.673 126.072
146.397 126.28
147.107 126.534
147.799 126.831
148.471 127.172
149.121 127.553
149.745 127.975
150.342 128.435
150.908 128.932
151.443 129.463
151.942 130.027
152.406 130.621
152.831 131.243
153.217 131.891
153.561 132.561
153.862 133.252
154.119 133.96
154.332 134.683
154.498 135.418
154.619 136.161
154.692 136.911
" fill="green"/> 
<polygon  points="178.718 137.703
178.694 138.456
178.623 139.206
178.506 139.95
178.341 140.685
178.131 141.409
177.876 142.118
177.577 142.809
177.235 143.481
176.852 144.13
176.428 144.753
175.967 145.348
175.469 145.914
174.936 146.447
174.371 146.945
173.776 147.407
173.153 147.831
172.505 148.215
171.834 148.557
171.142 148.857
170.433 149.113
169.71 149.324
168.975 149.488
168.231 149.607
167.481 149.678
166.728 149.702
165.974 149.679
165.224 149.609
164.48 149.492
163.744 149.328
163.021 149.119
162.311 148.864
161.62 148.566
160.948 148.224
160.299 147.841
159.675 147.419
159.079 146.957
158.514 146.46
157.98 145.928
157.481 145.363
157.019 144.768
156.594 144.146
156.21 143.498
155.867 142.827
155.567 142.136
155.311 141.427
155.099 140.704
154.934 139.969
154.815 139.225
154.743 138.475
154.718 137.722
154.74 136.968
154.81 136.218
154.927 135.474
155.09 134.738
155.299 134.014
155.553 133.305
155.851 132.613
156.192 131.941
156.574 131.292
156.996 130.668
157.457 130.071
157.954 129.505
158.486 128.971
159.05 128.472
159.644 128.009
160.267 127.584
160.914 127.199
161.585 126.856
162.276 126.555
162.984 126.298
163.707 126.086
164.442 125.92
165.186 125.801
165.936 125.728
166.689 125.703
167.442 125.724
168.193 125.793
168.937 125.91
169.673 126.072
170.397 126.28
171.107 126.534
171.799 126.831
172.471 127.172
173.121 127.553
173.745 127.975
174.342 128.435
174.908 128.932
175.443 129.463
175.942 130.027
176.406 130.621
176.831 131.243
177.217 131.891
177.561 132.561
177.862 133.252
178.119 133.96
178.332 134.683
178.498 135.418
178.619 136.161
178.692 136.911
" fill="green"/> 
<polygon  points="202.718 137.703
202.694 138.456
202.623 139.206
202.506 139.95
202.341 140.685
202.131 141.409
201.876 142.118
201.577 142.809
201.235 143.481
200.852 144.13
200.428 144.753
199.967 145.348
199.469 145.914
198.936 146.447
198.371 146.945
197.776 147.407
197.153 147.831
196.505 148.215
195.834 148.557
195.142 148.857
194.433 149.113
193.71 149.324
192.975 149.488
192.231 149.607
191.481 149.678
190.728 149.702
189.974 149.679
189.224 149.609
188.48 149.492
187.744 149.328
187.021 149.119
186.311 148.864
185.62 148.566
184.948 148.224
184.299 147.841
183.675 147.419
183.079 146.957
182.514 146.46
181.98 145.928
181.481 145.363
181.019 144.768
180.594 144.146
180.21 143.498
179.867 142.827
179.567 142.136
179.311 141.427
179.099 140.704
178.934 139.969
178.815 139.225
178.743 138.475
178.718 137.722
178.74 136.968
178.81 136.218
178.927 135.474
179.09 134.738
179.299 134.014
179.553 133.305
179.851 132.613
180.192 131.941
180.574 131.292
180.996 130.668
181.457 130.071
181.954 129.505
182.486 128.971
183.05 128.472
183.644 128.009
184.267 127.584
184.914 127.199
185.585 126.856
186.276 126.555
186.984 126.298
187.707 126.086
188.442 125.92
189.186 125.801
189.936 125.728
190.689 125.703
191.442 125.724
192.193 125.793
192.937 125.91
193.673 126.072
194.397 126.28
195.107 126.534
195.799 126.831
196.471 127.172
197.121 127.553
197.745 127.975
198.342 128.435
198.908 128.932
199.443 129.463
199.942 130.027
200.406 130.621
200.831 131.243
201.217 131.891
201.561 132.561
201.862 133.252
202.119 133.96
202.332 134.683
202.498 135.418
202.619 136.161
202.692 136.911
" fill="green"/> 
<polygon  points="68.8616 161.703
68.8379 162.456
68.767 163.206
68.6492 163.95
68.4849 164.685
68.2748 165.409
68.0197 166.118
67.7206 166.809
67.3787 167.481
66.9953 168.13
66.572 168.753
66.1104 169.348
65.6123 169.914
65.0797 170.447
64.5148 170.945
63.9196 171.407
63.2966 171.831
62.6483 172.215
61.9771 172.557
61.2858 172.857
60.577 173.113
59.8536 173.324
59.1184 173.488
58.3743 173.607
57.6242 173.678
56.8711 173.702
56.118 173.679
55.3678 173.609
54.6235 173.492
53.888 173.328
53.1643 173.119
52.4551 172.864
51.7633 172.566
51.0916 172.224
50.4426 171.841
49.819 171.419
49.2231 170.957
48.6573 170.46
48.1239 169.928
47.6249 169.363
47.1624 168.768
46.738 168.146
46.3536 167.498
46.0106 166.827
45.7104 166.136
45.4542 165.427
45.2429 164.704
45.0775 163.969
44.9585 163.225
44.8864 162.475
44.8616 161.722
44.884 160.968
44.9537 160.218
45.0703 159.474
45.2334 158.738
45.4424 158.014
45.6964 157.305
45.9944 156.613
46.3352 155.941
46.7176 155.292
47.1399 154.668
47.6006 154.071
48.0977 153.505
48.6295 152.971
49.1936 152.472
49.7881 152.009
50.4104 151.584
51.0581 151.199
51.7287 150.856
52.4196 150.555
53.1279 150.298
53.851 150.086
54.586 149.92
55.3299 149.801
56.0798 149.728
56.8329 149.703
57.5861 149.724
58.3364 149.793
59.0808 149.91
59.8166 150.072
60.5407 150.28
61.2503 150.534
61.9425 150.831
62.6148 151.172
63.2644 151.553
63.8887 151.975
64.4853 152.435
65.0519 152.932
65.5861 153.463
66.086 154.027
66.5495 154.621
66.9748 155.243
67.3603 155.891
67.7043 156.561
68.0056 157.252
68.263 157.96
68.4754 158.683
68.642 159.418
68.7622 160.161
68.8354 160.911
" fill="green"/> 
<polygon  points="92.8616 161.703
92.8379 162.456
92.767 163.206
92.6492 163.95
92.4849 164.685
92.2748 165.409
92.0197 166.118
91.7206 166.809
91.3787 167.481
90.9953 168.13
90.572 168.753
90.1104 169.348
89.6123 169.914
89.0797 170.447
88.5148 170.945
87.9196 171.407
87.2966 171.831
86.6483 172.215
85.9771 172.557
85.2858 172.857
84.577 173.113
83.8536 173.324
83.1184 173.488
82.3743 173.607
81.6242 173.678
80.8711 173.702
80.118 173.679
79.3678 173.609
78.6235 173.492
77.888 173.328
77.1643 173.119
76.4551 172.864
75.7633 172.566
75.0916 172.224
74.4426 171.841
73.819 171.419
73.2231 170.957
72.6573 170.46
72.1239 169.928
71.6249 169.363
71.1624 168.768
70.738 168.146
70.3536 167.498
70.0106 166.827
69.7104 166.136
69.4542 165.427
69.2429 164.704
69.0775 163.969
68.9585 163.225
68.8864 162.475
68.8616 161.722
68.884 160.968
68.9537 160.218
69.0703 159.474
69.2334 158.738
69.4424 158.014
69.6964 157.305
69.9944 156.613
70.3352 155.941
70.7176 155.292
71.1399 154.668
71.6006 154.071
72.0977 153.505
72.6295 152.971
73.1936 152.472
73.7881 152.009
74.4104 151.584
75.0581 151.199
75.7287 150.856
76.4196 150.555
77.1279 150.298
77.851 150.086
78.586 149.92
79.3299 149.801
80.0798 149.728
80.8329 149.703
81.5861 149.724
82.3364 149.793
83.0808 149.91
83.8166 150.072
84.5407 150.28
85.2503 150.534
85.9425 150.831
86.6148 151.172
87.2644 151.553
87.8887 151.975
88.4853 152.435
89.0519 152.932
89.5861 153.463
90.086 154.027
90.5495 154.621
90.9748 155.243
91.3603 155.891
91.7043 156.561
92.0056 157.252
92.263 157.96
92.4754 158.683
92.642 159.418
92.7622 160.161
92.8354 160.911
" fill="green"/> 
<polygon  points="116.862 161.703
116.838 162.456
116.767 163.206
116.649 163.95
116.485 164.685
116.275 165.409
116.02 166.118
115.721 166.809
115.379 167.481
114.995 168.13
114.572 168.753
114.11 169.348
113.612 169.914
113.08 170.447
112.515 170.945
111.92 171.407
111.297 171.831
110.648 172.215
109.977 172.557
109.286 172.857
108.577 173.113
107.854 173.324
107.118 173.488
106.374 173.607
105.624 173.678
104.871 173.702
104.118 173.679
103.368 173.609
102.623 173.492
101.888 173.328
101.164 173.119
100.455 172.864
99.7633 172.566
99.0916 172.224
98.4426 171.841
97.819 171.419
97.2231 170.957
96.6573 170.46
96.1239 169.928
95.6249 169.363
95.1624 168.768
94.738 168.146
94.3536 167.498
94.0106 166.827
93.7104 166.136
93.4542 165.427
93.2429 164.704
93.0775 163.969
92.9585 163.225
92.8864 162.475
92.8616 161.722
92.884 160.968
92.9537 160.218
93.0703 159.474
93.2334 158.738
93.4424 158.014
93.6964 157.305
93.9944 156.613
94.3352 155.941
94.7176 155.292
95.1399 154.668
95.6006 154.071
96.0977 153.505
96.6295 152.971
97.1936 152.472
97.7881 152.009
98.4104 151.584
99.0581 151.199
99.7287 150.856
100.42 150.555
101.128 150.298
101.851 150.086
102.586 149.92
103.33 149.801
104.08 149.728
104.833 149.703
105.586 149.724
106.336 149.793
107.081 149.91
107.817 150.072
108.541 150.28
109.25 150.534
109.943 150.831
110.615 151.172
111.264 151.553
111.889 151.975
112.485 152.435
113.052 152.932
113.586 153.463
114.086 154.027
114.55 154.621
114.975 155.243
115.36 155.891
115.704 156.561
116.006 157.252
116.263 157.96
116.475 158.683
116.642 159.418
116.762 160.161
116.835 160.911
" fill="green"/> 
<polygon  points="140.862 161.703
140.838 162.456
140.767 163.206
140.649 163.95
140.485 164.685
140.275 165.409
140.02 166.118
139.721 166.809
139.379 167.481
138.995 168.13
138.572 168.753
138.11 169.348
137.612 169.914
137.08 170.447
136.515 170.945
135.92 171.407
135.297 171.831
134.648 172.215
133.977 172.557
133.286 172.857
132.577 173.113
131.854 173.324
131.118 173.488
130.374 173.607
129.624 173.678
128.871 173.702
128.118 173.679
127.368 173.609
126.623 173.492
125.888 173.328
125.164 173.119
124.455 172.864
123.763 172.566
123.092 172.224
122.443 171.841
121.819 171.419
121.223 170.957
120.657 170.46
120.124 169.928
119.625 169.363
119.162 168.768
118.738 168.146
118.354 167.498
118.011 166.827
117.71 166.136
117.454 165.427
117.243 164.704
117.077 163.969
116.958 163.225
116.886 162.475
116.862 161.722
116.884 160.968
116.954 160.218
117.07 159.474
117.233 158.738
117.442 158.014
117.696 157.305
117.994 156.613
118.335 155.941
118.718 155.292
119.14 154.668
119.601 154.071
120.098 153.505
120.629 152.971
121.194 152.472
121.788 152.009
122.41 151.584
123.058 151.199
123.729 150.856
124.42 150.555
125.128 150.298
125.851 150.086
126.586 149.92
127.33 149.801
128.08 149.728
128.833 149.703
129.586 149.724
130.336 149.793
131.081 149.91
131.817 150.072
132.541 150.28
133.25 150.534
133.943 150.831
134.615 151.172
135.264 151.553
135.889 151.975
136.485 152.435
137.052 152.932
137.586 153.463
138.086 154.027
138.55 154.621
138.975 155.243
139.36 155.891
139.704 156.561
140.006 157.252
140.263 157.96
140.475 158.683
140.642 159.418
140.762 160.161
140.835 160.911
" fill="green"/> 
<polygon  points="164.862 161.703
164.838 162.456
164.767 163.206
164.649 163.95
164.485 164.685
164.275 165.409
164.02 166.118
163.721 166.809
163.379 167.481
162.995 168.13
162.572 168.753
162.11 169.348
161.612 169.914
161.08 170.447
160.515 170.945
159.92 171.407
159.297 171.831
158.648 172.215
157.977 172.557
157.286 172.857
156.577 173.113
155.854 173.324
155.118 173.488
154.374 173.607
153.624 173.678
152.871 173.702
152.118 173.679
151.368 173.609
150.623 173.492
149.888 173.328
149.164 173.119
148.455 172.864
147.763 172.566
147.092 172.224
146.443 171.841
145.819 171.419
145.223 170.957
144.657 170.46
144.124 169.928
143.625 169.363
143.162 168.768
142.738 168.146
142.354 167.498
142.011 166.827
141.71 166.136
141.454 165.427
141.243 164.704
141.077 163.969
140.958 163.225
140.886 162.475
140.862 161.722
140.884 160.968
140.954 160.218
141.07 159.474
141.233 158.738
141.442 158.014
141.696 157.305
141.994 156.613
142.335 155.941
142.718 155.292
143.14 154.668
143.601 154.071
144.098 153.505
144.629 152.971
145.194 152.472
145.788 152.009
146.41 151.584
147.058 151.199
147.729 150.856
148.42 150.555
149.128 150.298
149.851 150.086
150.586 149.92
151.33 149.801
152.08 149.728
152.833 149.703
153.586 149.724
154.336 149.793
155.081 149.91
155.817 150.072
156.541 150.28
157.25 150.534
157.943 150.831
158.615 151.172
159.264 151.553
159.889 151.975
160.485 152.435
161.052 152.932
161.586 153.463
162.086 154.027
162.55 154.621
162.975 155.243
163.36 155.891
163.704 156.561
164.006 157.252
164.263 157.96
164.475 158.683
164.642 159.418
164.762 160.161
164.835 160.911
" fill="green"/> 
<polygon  points="188.862 161.703
188.838 162.456
188.767 163.206
188.649 163.95
188.485 164.685
188.275 165.409
188.02 166.118
187.721 166.809
187.379 167.481
186.995 168.13
186.572 168.753
186.11 169.348
185.612 169.914
185.08 170.447
184.515 170.945
183.92 171.407
183.297 171.831
182.648 172.215
181.977 172.557
181.286 172.857
180.577 173.113
179.854 173.324
179.118 173.488
178.374 173.607
177.624 173.678
176.871 173.702
176.118 173.679
175.368 173.609
174.623 173.492
173.888 173.328
173.164 173.119
172.455 172.864
171.763 172.566
171.092 172.224
170.443 171.841
169.819 171.419
169.223 170.957
168.657 170.46
168.124 169.928
167.625 169.363
167.162 168.768
166.738 168.146
166.354 167.498
166.011 166.827
165.71 166.136
165.454 165.427
165.243 164.704
165.077 163.969
164.958 163.225
164.886 162.475
164.862 161.722
164.884 160.968
164.954 160.218
165.07 159.474
165.233 158.738
165.442 158.014
165.696 157.305
165.994 156.613
166.335 155.941
166.718 155.292
167.14 154.668
167.601 154.071
168.098 153.505
168.629 152.971
169.194 152.472
169.788 152.009
170.41 151.584
171.058 151.199
171.729 150.856
172.42 150.555
173.128 150.298
173.851 150.086
174.586 149.92
175.33 149.801
176.08 149.728
176.833 149.703
177.586 149.724
178.336 149.793
179.081 149.91
179.817 150.072
180.541 150.28
181.25 150.534
181.943 150.831
182.615 151.172
183.264 151.553
183.889 151.975
184.485 152.435
185.052 152.932
185.586 153.463
186.086 154.027
186.55 154.621
186.975 155.243
187.36 155.891
187.704 156.561
188.006 157.252
188.263 157.96
188.475 158.683
188.642 159.418
188.762 160.161
188.835 160.911
" fill="green"/> 
<polygon  points="212.862 161.703
212.838 162.456
212.767 163.206
212.649 163.95
212.485 164.685
212.275 165.409
212.02 166.118
211.721 166.809
211.379 167.481
210.995 168.13
210.572 168.753
210.11 169.348
209.612 169.914
209.08 170.447
208.515 170.945
207.92 171.407
207.297 171.831
206.648 172.215
205.977 172.557
205.286 172.857
204.577 173.113
203.854 173.324
203.118 173.488
202.374 173.607
201.624 173.678
200.871 173.702
200.118 173.679
199.368 173.609
198.623 173.492
197.888 173.328
197.164 173.119
196.455 172.864
195.763 172.566
195.092 172.224
194.443 171.841
193.819 171.419
193.223 170.957
192.657 170.46
192.124 169.928
191.625 169.363
191.162 168.768
190.738 168.146
190.354 167.498
190.011 166.827
189.71 166.136
189.454 165.427
189.243 164.704
189.077 163.969
188.958 163.225
188.886 162.475
188.862 161.722
188.884 160.968
188.954 160.218
189.07 159.474
189.233 158.738
189.442 158.014
189.696 157.305
189.994 156.613
190.335 155.941
190.718 155.292
191.14 154.668
191.601 154.071
192.098 153.505
192.629 152.971
193.194 152.472
193.788 152.009
194.41 151.584
195.058 151.199
195.729 150.856
196.42 150.555
197.128 150.298
197.851 150.086
198.586 149.92
199.33 149.801
200.08 149.728
200.833 149.703
201.586 149.724
202.336 149.793
203.081 149.91
203.817 150.072
204.541 150.28
205.25 150.534
205.943 150.831
206.615 151.172
207.264 151.553
207.889 151.975
208.485 152.435
209.052 152.932
209.586 153.463
210.086 154.027
210.55 154.621
210.975 155.243
211.36 155.891
211.704 156.561
212.006 157.252
212.263 157.96
212.475 158.683
212.642 159.418
212.762 160.161
212.835 160.911
" fill="green"/> 
<polygon  points="55.0052 185.703
54.9815 186.456
54.9106 187.206
54.7928 187.95
54.6285 188.685
54.4184 189.409
54.1633 190.118
53.8642 190.809
53.5223 191.481
53.1389 192.13
52.7156 192.753
52.254 193.348
51.7559 193.914
51.2233 194.447
50.6584 194.945
50.0632 195.407
49.4402 195.831
48.7919 196.215
48.1207 196.557
47.4294 196.857
46.7206 197.113
45.9972 197.324
45.262 197.488
44.5179 197.607
43.7678 197.678
43.0147 197.702
42.2616 197.679
41.5114 197.609
40.7671 197.492
40.0316 197.328
39.3079 197.119
38.5987 196.864
37.9069 196.566
37.2352 196.224
36.5862 195.841
35.9626 195.419
35.3667 194.957
34.8009 194.46
34.2675 193.928
33.7685 193.363
33.3059 192.768
32.8816 192.146
32.4972 191.498
32.1542 190.827
31.854 190.136
31.5978 189.427
31.3865 188.704
31.2211 187.969
31.1021 187.225
31.03 186.475
31.0052 185.722
31.0276 184.968
31.0973 184.218
31.2139 183.474
31.377 182.738
31.586 182.014
31.84 181.305
32.138 180.613
32.4788 179.941
32.8612 179.292
33.2835 178.668
33.7442 178.071
34.2413 177.505
34.7731 176.971
35.3372 176.472
35.9316 176.009
36.5539 175.584
37.2017 175.199
37.8723 174.856
38.5631 174.555
39.2715 174.298
39.9946 174.086
40.7296 173.92
41.4735 173.801
42.2234 173.728
42.9765 173.703
43.7296 173.724
44.4799 173.793
45.2244 173.91
45.9602 174.072
46.6843 174.28
47.3938 174.534
48.0861 174.831
48.7584 175.172
49.4079 175.553
50.0323 175.975
50.6289 176.435
51.1954 176.932
51.7297 177.463
52.2296 178.027
52.6931 178.621
53.1184 179.243
53.5038 179.891
53.8479 180.561
54.1492 181.252
54.4066 181.96
54.619 182.683
54.7856 183.418
54.9058 184.161
54.979 184.911
" fill="green"/> 
<polygon  points="79.0052 185.703
78.9815 186.456
78.9106 187.206
78.7928 187.95
78.6285 188.685
78.4184 189.409
78.1633 190.118
77.8642 190.809
77.5223 191.481
77.1389 192.13
76.7156 192.753
76.254 193.348
75.7559 193.914
75.2233 194.447
74.6584 194.945
74.0632 195.407
73.4402 195.831
72.7919 196.215
72.1207 196.557
71.4294 196.857
70.7206 197.113
69.9972 197.324
69.262 197.488
68.5179 197.607
67.7678 197.678
67.0147 197.702
66.2616 197.679
65.5114 197.609
64.7671 197.492
64.0316 197.328
63.3079 197.119
62.5987 196.864
61.9069 196.566
61.2352 196.224
60.5862 195.841
59.9626 195.419
59.3667 194.957
58.8009 194.46
58.2675 193.928
57.7685 193.363
57.3059 192.768
56.8816 192.146
56.4972 191.498
56.1542 190.827
55.854 190.136
55.5978 189.427
55.3865 188.704
55.2211 187.969
55.1021 187.225
55.03 186.475
55.0052 185.722
55.0276 184.968
55.0973 184.218
55.2139 183.474
55.377 182.738
55.586 182.014
55.84 181.305
56.138 180.613
56.4788 179.941
56.8612 179.292
57.2835 178.668
57.7442 178.071
58.2413 177.505
58.7731 176.971
59.3372 176.472
59.9316 176.009
60.5539 175.584
61.2017 175.199
61.8723 174.856
62.5631 174.555
63.2715 174.298
63.9946 174.086
64.7296 173.92
65.4735 173.801
66.2234 173.728
66.9765 173.703
67.7296 173.724
68.4799 173.793
69.2244 173.91
69.9602 174.072
70.6843 174.28
71.3938 174.534
72.0861 174.831
72.7584 175.172
73.4079 175.553
74.0323 175.975
74.6289 176.435
75.1954 176.932
75.7297 177.463
76.2296 178.027
76.6931 178.621
77.1184 179.243
77.5038 179.891
77.8479 180.561
78.1492 181.252
78.4066 181.96
78.619 182.683
78.7856 183.418
78.9058 184.161
78.979 184.911
" fill="green"/> 
<polygon  points="103.005 185.703
102.981 186.456
102.911 187.206
102.793 187.95
102.629 188.685
102.418 189.409
102.163 190.118
101.864 190.809
101.522 191.481
101.139 192.13
100.716 192.753
100.254 193.348
99.7559 193.914
99.2233 194.447
98.6584 194.945
98.0632 195.407
97.4402 195.831
96.7919 196.215
96.1207 196.557
95.4294 196.857
94.7206 197.113
93.9972 197.324
93.262 197.488
92.5179 197.607
91.7678 197.678
91.0147 197.702
90.2616 197.679
89.5114 197.609
88.7671 197.492
88.0316 197.328
87.3079 197.119
86.5987 196.864
85.9069 196.566
85.2352 196.224
84.5862 195.841
83.9626 195.419
83.3667 194.957
82.8009 194.46
82.2675 193.928
81.7685 193.363
81.3059 192.768
80.8816 192.146
80.4972 191.498
80.1542 190.827
79.854 190.136
79.5978 189.427
79.3865 188.704
79.2211 187.969
79.1021 187.225
79.03 186.475
79.0052 185.722
79.0276 184.968
79.0973 184.218
79.2139 183.474
79.377 182.738
79.586 182.014
79.84 181.305
80.138 180.613
80.4788 179.941
80.8612 179.292
81.2835 178.668
81.7442 178.071
82.2413 177.505
82.7731 176.971
83.3372 176.472
83.9316 176.009
84.5539 175.584
85.2017 175.199
85.8723 174.856
86.5631 174.555
87.2715 174.298
87.9946 174.086
88.7296 173.92
89.4735 173.801
90.2234 173.728
90.9765 173.703
91.7296 173.724
92.4799 173.793
93.2244 173.91
93.9602 174.072
94.6843 174.28
95.3938 174.534
96.0861 174.831
96.7584 175.172
97.4079 175.553
98.0323 175.975
98.6289 176.435
99.1954 176.932
99.7297 177.463
100.23 178.027
100.693 178.621
101.118 179.243
101.504 179.891
101.848 180.561
102.149 181.252
102.407 181.96
102.619 182.683
102.786 183.418
102.906 184.161
102.979 184.911
" fill="green"/> 
<polygon  points="127.005 185.703
126.981 186.456
126.911 187.206
126.793 187.95
126.629 188.685
126.418 189.409
126.163 190.118
125.864 190.809
125.522 191.481
125.139 192.13
124.716 192.753
124.254 193.348
123.756 193.914
123.223 194.447
122.658 194.945
122.063 195.407
121.44 195.831
120.792 196.215
120.121 196.557
119.429 196.857
118.721 197.113
117.997 197.324
117.262 197.488
116.518 197.607
115.768 197.678
115.015 197.702
114.262 197.679
113.511 197.609
112.767 197.492
112.032 197.328
111.308 197.119
110.599 196.864
109.907 196.566
109.235 196.224
108.586 195.841
107.963 195.419
107.367 194.957
106.801 194.46
106.267 193.928
105.769 193.363
105.306 192.768
104.882 192.146
104.497 191.498
104.154 190.827
103.854 190.136
103.598 189.427
103.387 188.704
103.221 187.969
103.102 187.225
103.03 186.475
103.005 185.722
103.028 184.968
103.097 184.218
103.214 183.474
103.377 182.738
103.586 182.014
103.84 181.305
104.138 180.613
104.479 179.941
104.861 179.292
105.283 178.668
105.744 178.071
106.241 177.505
106.773 176.971
107.337 176.472
107.932 176.009
108.554 175.584
109.202 175.199
109.872 174.856
110.563 174.555
111.272 174.298
111.995 174.086
112.73 173.92
113.473 173.801
114.223 173.728
114.976 173.703
115.73 173.724
116.48 173.793
117.224 173.91
117.96 174.072
118.684 174.28
119.394 174.534
120.086 174.831
120.758 175.172
121.408 175.553
122.032 175.975
122.629 176.435
123.195 176.932
123.73 177.463
124.23 178.027
124.693 178.621
125.118 179.243
125.504 179.891
125.848 180.561
126.149 181.252
126.407 181.96
126.619 182.683
126.786 183.418
126.906 184.161
126.979 184.911
" fill="green"/> 
<polygon  points="151.005 185.703
150.981 186.456
150.911 187.206
150.793 187.95
150.629 188.685
150.418 189.409
150.163 190.118
149.864 190.809
149.522 191.481
149.139 192.13
148.716 192.753
148.254 193.348
147.756 193.914
147.223 194.447
146.658 194.945
146.063 195.407
145.44 195.831
144.792 196.215
144.121 196.557
143.429 196.857
142.721 197.113
141.997 197.324
141.262 197.488
140.518 197.607
139.768 197.678
139.015 197.702
138.262 197.679
137.511 197.609
136.767 197.492
136.032 197.328
135.308 197.119
134.599 196.864
133.907 196.566
133.235 196.224
132.586 195.841
131.963 195.419
131.367 194.957
130.801 194.46
130.267 193.928
129.769 193.363
129.306 192.768
128.882 192.146
128.497 191.498
128.154 190.827
127.854 190.136
127.598 189.427
127.387 188.704
127.221 187.969
127.102 187.225
127.03 186.475
127.005 185.722
127.028 184.968
127.097 184.218
127.214 183.474
127.377 182.738
127.586 182.014
127.84 181.305
128.138 180.613
128.479 179.941
128.861 179.292
129.283 178.668
129.744 178.071
130.241 177.505
130.773 176.971
131.337 176.472
131.932 176.009
132.554 175.584
133.202 175.199
133.872 174.856
134.563 174.555
135.272 174.298
135.995 174.086
136.73 173.92
137.473 173.801
138.223 173.728
138.976 173.703
139.73 173.724
140.48 173.793
141.224 173.91
141.96 174.072
142.684 174.28
143.394 174.534
144.086 174.831
144.758 175.172
145.408 175.553
146.032 175.975
146.629 176.435
147.195 176.932
147.73 177.463
148.23 178.027
148.693 178.621
149.118 179.243
149.504 179.891
149.848 180.561
150.149 181.252
150.407 181.96
150.619 182.683
150.786 183.418
150.906 184.161
150.979 184.911
" fill="green"/> 
<polygon  points="175.005 185.703
174.981 186.456
174.911 187.206
174.793 187.95
174.629 188.685
174.418 189.409
174.163 190.118
173.864 190.809
173.522 191.481
173.139 192.13
172.716 192.753
172.254 193.348
171.756 193.914
171.223 194.447
170.658 194.945
170.063 195.407
169.44 195.831
168.792 196.215
168.121 196.557
167.429 196.857
166.721 197.113
165.997 197.324
165.262 197.488
164.518 197.607
163.768 197.678
163.015 197.702
162.262 197.679
161.511 197.609
160.767 197.492
160.032 197.328
159.308 197.119
158.599 196.864
157.907 196.566
157.235 196.224
156.586 195.841
155.963 195.419
155.367 194.957
154.801 194.46
154.267 193.928
153.769 193.363
153.306 192.768
152.882 192.146
152.497 191.498
152.154 190.827
151.854 190.136
151.598 189.427
151.387 188.704
151.221 187.969
151.102 187.225
151.03 186.475
151.005 185.722
151.028 184.968
151.097 184.218
151.214 183.474
151.377 182.738
151.586 182.014
151.84 181.305
152.138 180.613
152.479 179.941
152.861 179.292
153.283 178.668
153.744 178.071
154.241 177.505
154.773 176.971
155.337 176.472
155.932 176.009
156.554 175.584
157.202 175.199
157.872 174.856
158.563 174.555
159.272 174.298
159.995 174.086
160.73 173.92
161.473 173.801
162.223 173.728
162.976 173.703
163.73 173.724
164.48 173.793
165.224 173.91
165.96 174.072
166.684 174.28
167.394 174.534
168.086 174.831
168.758 175.172
169.408 175.553
170.032 175.975
170.629 176.435
171.195 176.932
171.73 177.463
172.23 178.027
172.693 178.621
173.118 179.243
173.504 179.891
173.848 180.561
174.149 181.252
174.407 181.96
174.619 182.683
174.786 183.418
174.906 184.161
174.979 184.911
" fill="green"/> 
<polygon  points="199.005 185.703
198.981 186.456
198.911 187.206
198.793 187.95
198.629 188.685
198.418 189.409
198.163 190.118
197.864 190.809
197.522 191.481
197.139 192.13
196.716 192.753
196.254 193.348
195.756 193.914
195.223 194.447
194.658 194.945
194.063 195.407
193.44 195.831
192.792 196.215
192.121 196.557
191.429 196.857
190.721 197.113
189.997 197.324
189.262 197.488
188.518 197.607
187.768 197.678
187.015 197.702
186.262 197.679
185.511 197.609
184.767 197.492
184.032 197.328
183.308 197.119
182.599 196.864
181.907 196.566
181.235 196.224
180.586 195.841
179.963 195.419
179.367 194.957
178.801 194.46
178.267 193.928
177.769 193.363
177.306 192.768
176.882 192.146
176.497 191.498
176.154 190.827
175.854 190.136
175.598 189.427
175.387 188.704
175.221 187.969
175.102 187.225
175.03 186.475
175.005 185.722
175.028 184.968
175.097 184.218
175.214 183.474
175.377 182.738
175.586 182.014
175.84 181.305
176.138 180.613
176.479 179.941
176.861 179.292
177.283 178.668
177.744 178.071
178.241 177.505
178.773 176.971
179.337 176.472
179.932 176.009
180.554 175.584
181.202 175.199
181.872 174.856
182.563 174.555
183.272 174.298
183.995 174.086
184.73 173.92
185.473 173.801
186.223 173.728
186.976 173.703
187.73 173.724
188.48 173.793
189.224 173.91
189.96 174.072
190.684 174.28
191.394 174.534
192.086 174.831
192.758 175.172
193.408 175.553
194.032 175.975
194.629 176.435
195.195 176.932
195.73 177.463
196.23 178.027
196.693 178.621
197.118 179.243
197.504 179.891
197.848 180.561
198.149 181.252
198.407 181.96
198.619 182.683
198.786 183.418
198.906 184.161
198.979 184.911
" fill="green"/> 
<polygon  points="223.005 185.703
222.981 186.456
222.911 187.206
222.793 187.95
222.629 188.685
222.418 189.409
222.163 190.118
221.864 190.809
221.522 191.481
221.139 192.13
220.716 192.753
220.254 193.348
219.756 193.914
219.223 194.447
218.658 194.945
218.063 195.407
217.44 195.831
216.792 196.215
216.121 196.557
215.429 196.857
214.721 197.113
213.997 197.324
213.262 197.488
212.518 197.607
211.768 197.678
211.015 197.702
210.262 197.679
209.511 197.609
208.767 197.492
208.032 197.328
207.308 197.119
206.599 196.864
205.907 196.566
205.235 196.224
204.586 195.841
203.963 195.419
203.367 194.957
202.801 194.46
202.267 193.928
201.769 193.363
201.306 192.768
200.882 192.146
200.497 191.498
200.154 190.827
199.854 190.136
199.598 189.427
199.387 188.704
199.221 187.969
199.102 187.225
199.03 186.475
199.005 185.722
199.028 184.968
199.097 184.218
199.214 183.474
199.377 182.738
199.586 182.014
199.84 181.305
200.138 180.613
200.479 179.941
200.861 179.292
201.283 178.668
201.744 178.071
202.241 177.505
202.773 176.971
203.337 176.472
203.932 176.009
204.554 175.584
205.202 175.199
205.872 174.856
206.563 174.555
207.272 174.298
207.995 174.086
208.73 173.92
209.473 173.801
210.223 173.728
210.976 173.703
211.73 173.724
212.48 173.793
213.224 173.91
213.96 174.072
214.684 174.28
215.394 174.534
216.086 174.831
216.758 175.172
217.408 175.553
218.032 175.975
218.629 176.435
219.195 176.932
219.73 177.463
220.23 178.027
220.693 178.621
221.118 179.243
221.504 179.891
221.848 180.561
222.149 181.252
222.407 181.96
222.619 182.683
222.786 183.418
222.906 184.161
222.979 184.911
" fill="green"/> 
<polygon  points="41.1487 209.703
41.1251 210.456
41.0542 211.206
40.9364 211.95
40.7721 212.685
40.562 213.409
40.3069 214.118
40.0078 214.809
39.6659 215.481
39.2825 216.13
38.8592 216.753
38.3976 217.348
37.8995 217.914
37.3669 218.447
36.802 218.945
36.2068 219.407
35.5838 219.831
34.9355 220.215
34.2643 220.557
33.573 220.857
32.8642 221.113
32.1408 221.324
31.4056 221.488
30.6615 221.607
29.9114 221.678
29.1583 221.702
28.4052 221.679
27.655 221.609
26.9107 221.492
26.1752 221.328
25.4515 221.119
24.7423 220.864
24.0505 220.566
23.3788 220.224
22.7298 219.841
22.1062 219.419
21.5103 218.957
20.9445 218.46
20.4111 217.928
19.9121 217.363
19.4495 216.768
19.0252 216.146
18.6408 215.498
18.2978 214.827
17.9976 214.136
17.7414 213.427
17.5301 212.704
17.3647 211.969
17.2457 211.225
17.1736 210.475
17.1488 209.722
17.1712 208.968
17.2409 208.218
17.3575 207.474
17.5206 206.738
17.7296 206.014
17.9836 205.305
18.2816 204.613
18.6224 203.941
19.0047 203.292
19.4271 202.668
19.8877 202.071
20.3849 201.505
20.9166 200.971
21.4808 200.472
22.0752 200.009
22.6975 199.584
23.3453 199.199
24.0159 198.856
24.7067 198.555
25.4151 198.298
26.1382 198.086
26.8731 197.92
27.6171 197.801
28.367 197.728
29.1201 197.703
29.8732 197.724
30.6235 197.793
31.368 197.91
32.1038 198.072
32.8279 198.28
33.5374 198.534
34.2297 198.831
34.902 199.172
35.5515 199.553
36.1759 199.975
36.7725 200.435
37.339 200.932
37.8733 201.463
38.3732 202.027
38.8367 202.621
39.262 203.243
39.6474 203.891
39.9915 204.561
40.2928 205.252
40.5502 205.96
40.7626 206.683
40.9292 207.418
41.0494 208.161
41.1226 208.911
" fill="green"/> 
<polygon  points="65.1487 209.703
65.1251 210.456
65.0542 211.206
64.9364 211.95
64.7721 212.685
64.562 213.409
64.3069 214.118
64.0078 214.809
63.6659 215.481
63.2825 216.13
62.8592 216.753
62.3976 217.348
61.8995 217.914
61.3669 218.447
60.802 218.945
60.2068 219.407
59.5838 219.831
58.9355 220.215
58.2643 220.557
57.573 220.857
56.8642 221.113
56.1408 221.324
55.4056 221.488
54.6615 221.607
53.9114 221.678
53.1583 221.702
52.4052 221.679
51.655 221.609
50.9107 221.492
50.1752 221.328
49.4515 221.119
48.7423 220.864
48.0505 220.566
47.3788 220.224
46.7298 219.841
46.1062 219.419
45.5103 218.957
44.9445 218.46
44.4111 217.928
43.9121 217.363
43.4495 216.768
43.0252 216.146
42.6408 215.498
42.2978 214.827
41.9976 214.136
41.7414 213.427
41.5301 212.704
41.3647 211.969
41.2457 211.225
41.1736 210.475
41.1488 209.722
41.1712 208.968
41.2409 208.218
41.3575 207.474
41.5206 206.738
41.7296 206.014
41.9836 205.305
42.2816 204.613
42.6224 203.941
43.0047 203.292
43.4271 202.668
43.8877 202.071
44.3849 201.505
44.9166 200.971
45.4808 200.472
46.0752 200.009
46.6975 199.584
47.3453 199.199
48.0159 198.856
48.7067 198.555
49.4151 198.298
50.1382 198.086
50.8731 197.92
51.6171 197.801
52.367 197.728
53.1201 197.703
53.8732 197.724
54.6235 197.793
55.368 197.91
56.1038 198.072
56.8279 198.28
57.5374 198.534
58.2297 198.831
58.902 199.172
59.5515 199.553
60.1759 199.975
60.7725 200.435
61.339 200.932
61.8733 201.463
62.3732 202.027
62.8367 202.621
63.262 203.243
63.6474 203.891
63.9915 204.561
64.2928 205.252
64.5502 205.96
64.7626 206.683
64.9292 207.418
65.0494 208.161
65.1226 208.911
" fill="green"/> 
<polygon  points="89.1487 209.703
89.1251 210.456
89.0542 211.206
88.9364 211.95
88.7721 212.685
88.562 213.409
88.3069 214.118
88.0078 214.809
87.6659 215.481
87.2825 216.13
86.8592 216.753
86.3976 217.348
85.8995 217.914
85.3669 218.447
84.802 218.945
84.2068 219.407
83.5838 219.831
82.9355 220.215
82.2643 220.557
81.573 220.857
80.8642 221.113
80.1408 221.324
79.4056 221.488
78.6615 221.607
77.9114 221.678
77.1583 221.702
76.4052 221.679
75.655 221.609
74.9107 221.492
74.1752 221.328
73.4515 221.119
72.7423 220.864
72.0505 220.566
71.3788 220.224
70.7298 219.841
70.1062 219.419
69.5103 218.957
68.9445 218.46
68.4111 217.928
67.9121 217.363
67.4495 216.768
67.0252 216.146
66.6408 215.498
66.2978 214.827
65.9976 214.136
65.7414 213.427
65.5301 212.704
65.3647 211.969
65.2457 211.225
65.1736 210.475
65.1488 209.722
65.1712 208.968
65.2409 208.218
65.3575 207.474
65.5206 206.738
65.7296 206.014
65.9836 205.305
66.2816 204.613
66.6224 203.941
67.0047 203.292
67.4271 202.668
67.8877 202.071
68.3849 201.505
68.9166 200.971
69.4808 200.472
70.0752 200.009
70.6975 199.584
71.3453 199.199
72.0159 198.856
72.7067 198.555
73.4151 198.298
74.1382 198.086
74.8731 197.92
75.6171 197.801
76.367 197.728
77.1201 197.703
77.8732 197.724
78.6235 197.793
79.368 197.91
80.1038 198.072
80.8279 198.28
81.5374 198.534
82.2297 198.831
82.902 199.172
83.5515 199.553
84.1759 199.975
84.7725 200.435
85.339 200.932
85.8733 201.463
86.3732 202.027
86.8367 202.621
87.262 203.243
87.6474 203.891
87.9915 204.561
88.2928 205.252
88.5502 205.96
88.7626 206.683
88.9292 207.418
89.0494 208.161
89.1226 208.911
" fill="green"/> 
<polygon  points="113.149 209.703
113.125 210.456
113.054 211.206
112.936 211.95
112.772 212.685
112.562 213.409
112.307 214.118
112.008 214.809
111.666 215.481
111.283 216.13
110.859 216.753
110.398 217.348
109.9 217.914
109.367 218.447
108.802 218.945
108.207 219.407
107.584 219.831
106.935 220.215
106.264 220.557
105.573 220.857
104.864 221.113
104.141 221.324
103.406 221.488
102.661 221.607
101.911 221.678
101.158 221.702
100.405 221.679
99.655 221.609
98.9107 221.492
98.1752 221.328
97.4515 221.119
96.7423 220.864
96.0505 220.566
95.3788 220.224
94.7298 219.841
94.1062 219.419
93.5103 218.957
92.9445 218.46
92.4111 217.928
91.9121 217.363
91.4495 216.768
91.0252 216.146
90.6408 215.498
90.2978 214.827
89.9976 214.136
89.7414 213.427
89.5301 212.704
89.3647 211.969
89.2457 211.225
89.1736 210.475
89.1488 209.722
89.1712 208.968
89.2409 208.218
89.3575 207.474
89.5206 206.738
89.7296 206.014
89.9836 205.305
90.2816 204.613
90.6224 203.941
91.0047 203.292
91.4271 202.668
91.8877 202.071
92.3849 201.505
92.9166 200.971
93.4808 200.472
94.0752 200.009
94.6975 199.584
95.3453 199.199
96.0159 198.856
96.7067 198.555
97.4151 198.298
98.1382 198.086
98.8731 197.92
99.6171 197.801
100.367 197.728
101.12 197.703
101.873 197.724
102.624 197.793
103.368 197.91
104.104 198.072
104.828 198.28
105.537 198.534
106.23 198.831
106.902 199.172
107.552 199.553
108.176 199.975
108.772 200.435
109.339 200.932
109.873 201.463
110.373 202.027
110.837 202.621
111.262 203.243
111.647 203.891
111.991 204.561
112.293 205.252
112.55 205.96
112.763 206.683
112.929 207.418
113.049 208.161
113.123 208.911
" fill="green"/> 
<polygon  points="137.149 209.703
137.125 210.456
137.054 211.206
136.936 211.95
136.772 212.685
136.562 213.409
136.307 214.118
136.008 214.809
135.666 215.481
135.283 216.13
134.859 216.753
134.398 217.348
133.9 217.914
133.367 218.447
132.802 218.945
132.207 219.407
131.584 219.831
130.935 220.215
130.264 220.557
129.573 220.857
128.864 221.113
128.141 221.324
127.406 221.488
126.661 221.607
125.911 221.678
125.158 221.702
124.405 221.679
123.655 221.609
122.911 221.492
122.175 221.328
121.451 221.119
120.742 220.864
120.05 220.566
119.379 220.224
118.73 219.841
118.106 219.419
117.51 218.957
116.944 218.46
116.411 217.928
115.912 217.363
115.45 216.768
115.025 216.146
114.641 215.498
114.298 214.827
113.998 214.136
113.741 213.427
113.53 212.704
113.365 211.969
113.246 211.225
113.174 210.475
113.149 209.722
113.171 208.968
113.241 208.218
113.358 207.474
113.521 206.738
113.73 206.014
113.984 205.305
114.282 204.613
114.622 203.941
115.005 203.292
115.427 202.668
115.888 202.071
116.385 201.505
116.917 200.971
117.481 200.472
118.075 200.009
118.698 199.584
119.345 199.199
120.016 198.856
120.707 198.555
121.415 198.298
122.138 198.086
122.873 197.92
123.617 197.801
124.367 197.728
125.12 197.703
125.873 197.724
126.624 197.793
127.368 197.91
128.104 198.072
128.828 198.28
129.537 198.534
130.23 198.831
130.902 199.172
131.552 199.553
132.176 199.975
132.772 200.435
133.339 200.932
133.873 201.463
134.373 202.027
134.837 202.621
135.262 203.243
135.647 203.891
135.991 204.561
136.293 205.252
136.55 205.96
136.763 206.683
136.929 207.418
137.049 208.161
137.123 208.911
" fill="green"/> 
<polygon  points="161.149 209.703
161.125 210.456
161.054 211.206
160.936 211.95
160.772 212.685
160.562 213.409
160.307 214.118
160.008 214.809
159.666 215.481
159.283 216.13
158.859 216.753
158.398 217.348
157.9 217.914
157.367 218.447
156.802 218.945
156.207 219.407
155.584 219.831
154.935 220.215
154.264 220.557
153.573 220.857
152.864 221.113
152.141 221.324
151.406 221.488
150.661 221.607
149.911 221.678
149.158 221.702
148.405 221.679
147.655 221.609
146.911 221.492
146.175 221.328
145.451 221.119
144.742 220.864
144.05 220.566
143.379 220.224
142.73 219.841
142.106 219.419
141.51 218.957
140.944 218.46
140.411 217.928
139.912 217.363
139.45 216.768
139.025 216.146
138.641 215.498
138.298 214.827
137.998 214.136
137.741 213.427
137.53 212.704
137.365 211.969
137.246 211.225
137.174 210.475
137.149 209.722
137.171 208.968
137.241 208.218
137.358 207.474
137.521 206.738
137.73 206.014
137.984 205.305
138.282 204.613
138.622 203.941
139.005 203.292
139.427 202.668
139.888 202.071
140.385 201.505
140.917 200.971
141.481 200.472
142.075 200.009
142.698 199.584
143.345 199.199
144.016 198.856
144.707 198.555
145.415 198.298
146.138 198.086
146.873 197.92
147.617 197.801
148.367 197.728
149.12 197.703
149.873 197.724
150.624 197.793
151.368 197.91
152.104 198.072
152.828 198.28
153.537 198.534
154.23 198.831
154.902 199.172
155.552 199.553
156.176 199.975
156.772 200.435
157.339 200.932
157.873 201.463
158.373 202.027
158.837 202.621
159.262 203.243
159.647 203.891
159.991 204.561
160.293 205.252
160.55 205.96
160.763 206.683
160.929 207.418
161.049 208.161
161.123 208.911
" fill="green"/> 
<polygon  points="185.149 209.703
185.125 210.456
185.054 211.206
184.936 211.95
184.772 212.685
184.562 213.409
184.307 214.118
184.008 214.809
183.666 215.481
183.283 216.13
182.859 216.753
182.398 217.348
181.9 217.914
181.367 218.447
180.802 218.945
180.207 219.407
179.584 219.831
178.935 220.215
178.264 220.557
177.573 220.857
176.864 221.113
176.141 221.324
175.406 221.488
174.661 221.607
173.911 221.678
173.158 221.702
172.405 221.679
171.655 221.609
170.911 221.492
170.175 221.328
169.451 221.119
168.742 220.864
168.05 220.566
167.379 220.224
166.73 219.841
166.106 219.419
165.51 218.957
164.944 218.46
164.411 217.928
163.912 217.363
163.45 216.768
163.025 216.146
162.641 215.498
162.298 214.827
161.998 214.136
161.741 213.427
161.53 212.704
161.365 211.969
161.246 211.225
161.174 210.475
161.149 209.722
161.171 208.968
161.241 208.218
161.358 207.474
161.521 206.738
161.73 206.014
161.984 205.305
162.282 204.613
162.622 203.941
163.005 203.292
163.427 202.668
163.888 202.071
164.385 201.505
164.917 200.971
165.481 200.472
166.075 200.009
166.698 199.584
167.345 199.199
168.016 198.856
168.707 198.555
169.415 198.298
170.138 198.086
170.873 197.92
171.617 197.801
172.367 197.728
173.12 197.703
173.873 197.724
174.624 197.793
175.368 197.91
176.104 198.072
176.828 198.28
177.537 198.534
178.23 198.831
178.902 199.172
179.552 199.553
180.176 199.975
180.772 200.435
181.339 200.932
181.873 201.463
182.373 202.027
182.837 202.621
183.262 203.243
183.647 203.891
183.991 204.561
184.293 205.252
184.55 205.96
184.763 206.683
184.929 207.418
185.049 208.161
185.123 208.911
" fill="green"/> 
<polygon  points="209.149 209.703
209.125 210.456
209.054 211.206
208.936 211.95
208.772 212.685
208.562 213.409
208.307 214.118
208.008 214.809
207.666 215.481
207.283 216.13
206.859 216.753
206.398 217.348
205.9 217.914
205.367 218.447
204.802 218.945
204.207 219.407
203.584 219.831
202.935 220.215
202.264 220.557
201.573 220.857
200.864 221.113
200.141 221.324
199.406 221.488
198.661 221.607
197.911 221.678
197.158 221.702
196.405 221.679
195.655 221.609
194.911 221.492
194.175 221.328
193.451 221.119
192.742 220.864
192.05 220.566
191.379 220.224
190.73 219.841
190.106 219.419
189.51 218.957
188.944 218.46
188.411 217.928
187.912 217.363
187.45 216.768
187.025 216.146
186.641 215.498
186.298 214.827
185.998 214.136
185.741 213.427
185.53 212.704
185.365 211.969
185.246 211.225
185.174 210.475
185.149 209.722
185.171 208.968
185.241 208.218
185.358 207.474
185.521 206.738
185.73 206.014
185.984 205.305
186.282 204.613
186.622 203.941
187.005 203.292
187.427 202.668
187.888 202.071
188.385 201.505
188.917 200.971
189.481 200.472
190.075 200.009
190.698 199.584
191.345 199.199
192.016 198.856
192.707 198.555
193.415 198.298
194.138 198.086
194.873 197.92
195.617 197.801
196.367 197.728
197.12 197.703
197.873 197.724
198.624 197.793
199.368 197.91
200.104 198.072
200.828 198.28
201.537 198.534
202.23 198.831
202.902 199.172
203.552 199.553
204.176 199.975
204.772 200.435
205.339 200.932
205.873 201.463
206.373 202.027
206.837 202.621
207.262 203.243
207.647 203.891
207.991 204.561
208.293 205.252
208.55 205.96
208.763 206.683
208.929 207.418
209.049 208.161
209.123 208.911
" fill="green"/> 
<polygon  points="233.149 209.703
233.125 210.456
233.054 211.206
232.936 211.95
232.772 212.685
232.562 213.409
232.307 214.118
232.008 214.809
231.666 215.481
231.283 216.13
230.859 216.753
230.398 217.348
229.9 217.914
229.367 218.447
228.802 218.945
228.207 219.407
227.584 219.831
226.935 220.215
226.264 220.557
225.573 220.857
224.864 221.113
224.141 221.324
223.406 221.488
222.661 221.607
221.911 221.678
221.158 221.702
220.405 221.679
219.655 221.609
218.911 221.492
218.175 221.328
217.451 221.119
216.742 220.864
216.05 220.566
215.379 220.224
214.73 219.841
214.106 219.419
213.51 218.957
212.944 218.46
212.411 217.928
211.912 217.363
211.45 216.768
211.025 216.146
210.641 215.498
210.298 214.827
209.998 214.136
209.741 213.427
209.53 212.704
209.365 211.969
209.246 211.225
209.174 210.475
209.149 209.722
209.171 208.968
209.241 208.218
209.358 207.474
209.521 206.738
209.73 206.014
209.984 205.305
210.282 204.613
210.622 203.941
211.005 203.292
211.427 202.668
211.888 202.071
212.385 201.505
212.917 200.971
213.481 200.472
214.075 200.009
214.698 199.584
215.345 199.199
216.016 198.856
216.707 198.555
217.415 198.298
218.138 198.086
218.873 197.92
219.617 197.801
220.367 197.728
221.12 197.703
221.873 197.724
222.624 197.793
223.368 197.91
224.104 198.072
224.828 198.28
225.537 198.534
226.23 198.831
226.902 199.172
227.552 199.553
228.176 199.975
228.772 200.435
229.339 200.932
229.873 201.463
230.373 202.027
230.837 202.621
231.262 203.243
231.647 203.891
231.991 204.561
232.293 205.252
232.55 205.96
232.763 206.683
232.929 207.418
233.049 208.161
233.123 208.911
" fill="green"/> 
 </svg> 
