<svg version="1.1" baseProfile="full" width="100%" height="100%" xmlns="http://www.w3.org/2000/svg"> <polygon  points="145 0
0 251.14
290 251.14
" fill="red"/> 
<polygon  points="129.904 26.1474
129.904 41.1474
149.904 41.1474
149.904 26.1474
" fill="green"/> 
<polygon  points="121.244 41.1474
121.244 56.1474
141.244 56.1474
141.244 41.1474
" fill="green"/> 
<polygon  points="141.244 41.1474
141.244 56.1474
161.244 56.1474
161.244 41.1474
" fill="green"/> 
<polygon  points="112.583 56.1474
112.583 71.1474
132.583 71.1474
132.583 56.1474
" fill="green"/> 
<polygon  points="132.583 56.1474
132.583 71.1474
152.583 71.1474
152.583 56.1474
" fill="green"/> 
<polygon  points="152.583 56.1474
152.583 71.1474
172.583 71.1474
172.583 56.1474
" fill="green"/> 
<polygon  points="103.923 71.1474
103.923 86.1474
123.923 86.1474
123.923 71.1474
" fill="green"/> 
<polygon  points="123.923 71.1474
123.923 86.1474
143.923 86.1474
143.923 71.1474
" fill="green"/> 
<polygon  points="143.923 71.1474
143.923 86.1474
163.923 86.1474
163.923 71.1474
" fill="green"/> 
<polygon  points="163.923 71.1474
163.923 86.1474
183.923 86.1474
183.923 71.1474
" fill="green"/> 
<polygon  points="95.2628 86.1474
95.2628 101.147
115.263 101.147
115.263 86.1474
" fill="green"/> 
<polygon  points="115.263 86.1474
115.263 101.147
135.263 101.147
135.263 86.1474
" fill="green"/> 
<polygon  points="135.263 86.1474
135.263 101.147
155.263 101.147
155.263 86.1474
" fill="green"/> 
<polygon  points="155.263 86.1474
155.263 101.147
175.263 101.147
175.263 86.1474
" fill="green"/> 
<polygon  points="86.6025 101.147
86.6025 116.147
106.603 116.147
106.603 101.147
" fill="green"/> 
<polygon  points="106.603 101.147
106.603 116.147
126.603 116.147
126.603 101.147
" fill="green"/> 
<polygon  points="126.603 101.147
126.603 116.147
146.603 116.147
146.603 101.147
" fill="green"/> 
<polygon  points="146.603 101.147
146.603 116.147
166.603 116.147
166.603 101.147
" fill="green"/> 
<polygon  points="166.603 101.147
166.603 116.147
186.603 116.147
186.603 101.147
" fill="green"/> 
<polygon  points="77.9423 116.147
77.9423 131.147
97.9423 131.147
97.9423 116.147
" fill="green"/> 
<polygon  points="97.9423 116.147
97.9423 131.147
117.942 131.147
117.942 116.147
" fill="green"/> 
<polygon  points="117.942 116.147
117.942 131.147
137.942 131.147
137.942 116.147
" fill="green"/> 
<polygon  points="137.942 116.147
137.942 131.147
157.942 131.147
157.942 116.147
" fill="green"/> 
<polygon  points="157.942 116.147
157.942 131.147
177.942 131.147
177.942 116.147
" fill="green"/> 
<polygon  points="177.942 116.147
177.942 131.147
197.942 131.147
197.942 116.147
" fill="green"/> 
<polygon  points="69.282 131.147
69.282 146.147
89.282 146.147
89.282 131.147
" fill="green"/> 
<polygon  points="89.282 131.147
89.282 146.147
109.282 146.147
109.282 131.147
" fill="green"/> 
<polygon  points="109.282 131.147
109.282 146.147
129.282 146.147
129.282 131.147
" fill="green"/> 
<polygon  points="129.282 131.147
129.282 146.147
149.282 146.147
149.282 131.147
" fill="green"/> 
<polygon  points="149.282 131.147
149.282 146.147
169.282 146.147
169.282 131.147
" fill="green"/> 
<polygon  points="169.282 131.147
169.282 146.147
189.282 146.147
189.282 131.147
" fill="green"/> 
<polygon  points="189.282 131.147
189.282 146.147
209.282 146.147
209.282 131.147
" fill="green"/> 
<polygon  points="60.6218 146.147
60.6218 161.147
80.6218 161.147
80.6218 146.147
" fill="green"/> 
<polygon  points="80.6218 146.147
80.6218 161.147
100.622 161.147
100.622 146.147
" fill="green"/> 
<polygon  points="100.622 146.147
100.622 161.147
120.622 161.147
120.622 146.147
" fill="green"/> 
<polygon  points="120.622 146.147
120.622 161.147
140.622 161.147
140.622 146.147
" fill="green"/> 
<polygon  points="140.622 146.147
140.622 161.147
160.622 161.147
160.622 146.147
" fill="green"/> 
<polygon  points="160.622 146.147
160.622 161.147
180.622 161.147
180.622 146.147
" fill="green"/> 
<polygon  points="180.622 146.147
180.622 161.147
200.622 161.147
200.622 146.147
" fill="green"/> 
<polygon  points="200.622 146.147
200.622 161.147
220.622 161.147
220.622 146.147
" fill="green"/> 
<polygon  points="51.9615 161.147
51.9615 176.147
71.9615 176.147
71.9615 161.147
" fill="green"/> 
<polygon  points="71.9615 161.147
71.9615 176.147
91.9615 176.147
91.9615 161.147
" fill="green"/> 
<polygon  points="91.9615 161.147
91.9615 176.147
111.962 176.147
111.962 161.147
" fill="green"/> 
<polygon  points="111.962 161.147
111.962 176.147
131.962 176.147
131.962 161.147
" fill="green"/> 
<polygon  points="131.962 161.147
131.962 176.147
151.962 176.147
151.962 161.147
" fill="green"/> 
<polygon  points="151.962 161.147
151.962 176.147
171.962 176.147
171.962 161.147
" fill="green"/> 
<polygon  points="171.962 161.147
171.962 176.147
191.962 176.147
191.962 161.147
" fill="green"/> 
<polygon  points="191.962 161.147
191.962 176.147
211.962 176.147
211.962 161.147
" fill="green"/> 
<polygon  points="211.962 161.147
211.962 176.147
231.962 176.147
231.962 161.147
" fill="green"/> 
<polygon  points="43.3013 176.147
43.3013 191.147
63.3013 191.147
63.3013 176.147
" fill="green"/> 
<polygon  points="63.3013 176.147
63.3013 191.147
83.3013 191.147
83.3013 176.147
" fill="green"/> 
<polygon  points="83.3013 176.147
83.3013 191.147
103.301 191.147
103.301 176.147
" fill="green"/> 
<polygon  points="103.301 176.147
103.301 191.147
123.301 191.147
123.301 176.147
" fill="green"/> 
<polygon  points="123.301 176.147
123.301 191.147
143.301 191.147
143.301 176.147
" fill="green"/> 
<polygon  points="143.301 176.147
143.301 191.147
163.301 191.147
163.301 176.147
" fill="green"/> 
<polygon  points="163.301 176.147
163.301 191.147
183.301 191.147
183.301 176.147
" fill="green"/> 
<polygon  points="183.301 176.147
183.301 191.147
203.301 191.147
203.301 176.147
" fill="green"/> 
<polygon  points="203.301 176.147
203.301 191.147
223.301 191.147
223.301 176.147
" fill="green"/> 
<polygon  points="223.301 176.147
223.301 191.147
243.301 191.147
243.301 176.147
" fill="green"/> 
<polygon  points="34.641 191.147
34.641 206.147
54.641 206.147
54.641 191.147
" fill="green"/> 
<polygon  points="54.641 191.147
54.641 206.147
74.641 206.147
74.641 191.147
" fill="green"/> 
<polygon  points="74.641 191.147
74.641 206.147
94.641 206.147
94.641 191.147
" fill="green"/> 
<polygon  points="94.641 191.147
94.641 206.147
114.641 206.147
114.641 191.147
" fill="green"/> 
<polygon  points="114.641 191.147
114.641 206.147
134.641 206.147
134.641 191.147
" fill="green"/> 
<polygon  points="134.641 191.147
134.641 206.147
154.641 206.147
154.641 191.147
" fill="green"/> 
<polygon  points="154.641 191.147
154.641 206.147
174.641 206.147
174.641 191.147
" fill="green"/> 
<polygon  points="174.641 191.147
174.641 206.147
194.641 206.147
194.641 191.147
" fill="green"/> 
<polygon  points="194.641 191.147
194.641 206.147
214.641 206.147
214.641 191.147
" fill="green"/> 
<polygon  points="214.641 191.147
214.641 206.147
234.641 206.147
234.641 191.147
" fill="green"/> 
<polygon  points="234.641 191.147
234.641 206.147
254.641 206.147
254.641 191.147
" fill="green"/> 
<polygon  points="25.9808 206.147
25.9808 221.147
45.9808 221.147
45.9808 206.147
" fill="green"/> 
<polygon  points="45.9808 206.147
45.9808 221.147
65.9808 221.147
65.9808 206.147
" fill="green"/> 
<polygon  points="65.9808 206.147
65.9808 221.147
85.9808 221.147
85.9808 206.147
" fill="green"/> 
<polygon  points="85.9808 206.147
85.9808 221.147
105.981 221.147
105.981 206.147
" fill="green"/> 
<polygon  points="105.981 206.147
105.981 221.147
125.981 221.147
125.981 206.147
" fill="green"/> 
<polygon  points="125.981 206.147
125.981 221.147
145.981 221.147
145.981 206.147
" fill="green"/> 
<polygon  points="145.981 206.147
145.981 221.147
165.981 221.147
165.981 206.147
" fill="green"/> 
<polygon  points="165.981 206.147
165.981 221.147
185.981 221.147
185.981 206.147
" fill="green"/> 
<polygon  points="185.981 206.147
185.981 221.147
205.981 221.147
205.981 206.147
" fill="green"/> 
<polygon  points="205.981 206.147
205.981 221.147
225.981 221.147
225.981 206.147
" fill="green"/> 
<polygon  points="225.981 206.147
225.981 221.147
245.981 221.147
245.981 206.147
" fill="green"/> 
<polygon  points="17.3205 221.147
17.3205 236.147
37.3205 236.147
37.3205 221.147
" fill="green"/> 
<polygon  points="37.3205 221.147
37.3205 236.147
57.3205 236.147
57.3205 221.147
" fill="green"/> 
<polygon  points="57.3205 221.147
57.3205 236.147
77.3205 236.147
77.3205 221.147
" fill="green"/> 
<polygon  points="77.3205 221.147
77.3205 236.147
97.3205 236.147
97.3205 221.147
" fill="green"/> 
<polygon  points="97.3205 221.147
97.3205 236.147
117.321 236.147
117.321 221.147
" fill="green"/> 
<polygon  points="117.321 221.147
117.321 236.147
137.321 236.147
137.321 221.147
" fill="green"/> 
<polygon  points="137.321 221.147
137.321 236.147
157.321 236.147
157.321 221.147
" fill="green"/> 
<polygon  points="157.321 221.147
157.321 236.147
177.321 236.147
177.321 221.147
" fill="green"/> 
<polygon  points="177.321 221.147
177.321 236.147
197.321 236.147
197.321 221.147
" fill="green"/> 
<polygon  points="197.321 221.147
197.321 236.147
217.321 236.147
217.321 221.147
" fill="green"/> 
<polygon  points="217.321 221.147
217.321 236.147
237.321 236.147
237.321 221.147
" fill="green"/> 
<polygon  points="237.321 221.147
237.321 236.147
257.321 236.147
257.321 221.147
" fill="green"/> 
<polygon  points="8.66025 236.147
8.66025 251.147
28.6603 251.147
28.6603 236.147
" fill="green"/> 
<polygon  points="28.6603 236.147
28.6603 251.147
48.6603 251.147
48.6603 236.147
" fill="green"/> 
<polygon  points="48.6603 236.147
48.6603 251.147
68.6603 251.147
68.6603 236.147
" fill="green"/> 
<polygon  points="68.6603 236.147
68.6603 251.147
88.6603 251.147
88.6603 236.147
" fill="green"/> 
<polygon  points="88.6603 236.147
88.6603 251.147
108.66 251.147
108.66 236.147
" fill="green"/> 
<polygon  points="108.66 236.147
108.66 251.147
128.66 251.147
128.66 236.147
" fill="green"/> 
<polygon  points="128.66 236.147
128.66 251.147
148.66 251.147
148.66 236.147
" fill="green"/> 
<polygon  points="148.66 236.147
148.66 251.147
168.66 251.147
168.66 236.147
" fill="green"/> 
<polygon  points="168.66 236.147
168.66 251.147
188.66 251.147
188.66 236.147
" fill="green"/> 
<polygon  points="188.66 236.147
188.66 251.147
208.66 251.147
208.66 236.147
" fill="green"/> 
<polygon  points="208.66 236.147
208.66 251.147
228.66 251.147
228.66 236.147
" fill="green"/> 
<polygon  points="228.66 236.147
228.66 251.147
248.66 251.147
248.66 236.147
" fill="green"/> 
<polygon  points="248.66 236.147
248.66 251.147
268.66 251.147
268.66 236.147
" fill="green"/> 
 </svg> 
