<svg version="1.1" baseProfile="full" width="100%" height="100%" xmlns="http://www.w3.org/2000/svg"> <polygon  points="0 0
0 300
120 300
120 0
" fill="red"/> 
<polygon  points="0 7.5
12.9904 15
12.9904 0
" fill="green"/> 
<polygon  points="12.9904 7.5
25.9808 15
25.9808 0
" fill="green"/> 
<polygon  points="25.9808 7.5
38.9711 15
38.9711 0
" fill="green"/> 
<polygon  points="38.9711 7.5
51.9615 15
51.9615 0
" fill="green"/> 
<polygon  points="51.9615 7.5
64.9519 15
64.9519 0
" fill="green"/> 
<polygon  points="64.9519 7.5
77.9423 15
77.9423 0
" fill="green"/> 
<polygon  points="77.9423 7.5
90.9327 15
90.9327 0
" fill="green"/> 
<polygon  points="90.9327 7.5
103.923 15
103.923 0
" fill="green"/> 
<polygon  points="103.923 7.5
116.913 15
116.913 0
" fill="green"/> 
<polygon  points="0 22.5
12.9904 30
12.9904 15
" fill="green"/> 
<polygon  points="12.9904 22.5
25.9808 30
25.9808 15
" fill="green"/> 
<polygon  points="25.9808 22.5
38.9711 30
38.9711 15
" fill="green"/> 
<polygon  points="38.9711 22.5
51.9615 30
51.9615 15
" fill="green"/> 
<polygon  points="51.9615 22.5
64.9519 30
64.9519 15
" fill="green"/> 
<polygon  points="64.9519 22.5
77.9423 30
77.9423 15
" fill="green"/> 
<polygon  points="77.9423 22.5
90.9327 30
90.9327 15
" fill="green"/> 
<polygon  points="90.9327 22.5
103.923 30
103.923 15
" fill="green"/> 
<polygon  points="103.923 22.5
116.913 30
116.913 15
" fill="green"/> 
<polygon  points="0 37.5
12.9904 45
12.9904 30
" fill="green"/> 
<polygon  points="12.9904 37.5
25.9808 45
25.9808 30
" fill="green"/> 
<polygon  points="25.9808 37.5
38.9711 45
38.9711 30
" fill="green"/> 
<polygon  points="38.9711 37.5
51.9615 45
51.9615 30
" fill="green"/> 
<polygon  points="51.9615 37.5
64.9519 45
64.9519 30
" fill="green"/> 
<polygon  points="64.9519 37.5
77.9423 45
77.9423 30
" fill="green"/> 
<polygon  points="77.9423 37.5
90.9327 45
90.9327 30
" fill="green"/> 
<polygon  points="90.9327 37.5
103.923 45
103.923 30
" fill="green"/> 
<polygon  points="103.923 37.5
116.913 45
116.913 30
" fill="green"/> 
<polygon  points="0 52.5
12.9904 60
12.9904 45
" fill="green"/> 
<polygon  points="12.9904 52.5
25.9808 60
25.9808 45
" fill="green"/> 
<polygon  points="25.9808 52.5
38.9711 60
38.9711 45
" fill="green"/> 
<polygon  points="38.9711 52.5
51.9615 60
51.9615 45
" fill="green"/> 
<polygon  points="51.9615 52.5
64.9519 60
64.9519 45
" fill="green"/> 
<polygon  points="64.9519 52.5
77.9423 60
77.9423 45
" fill="green"/> 
<polygon  points="77.9423 52.5
90.9327 60
90.9327 45
" fill="green"/> 
<polygon  points="90.9327 52.5
103.923 60
103.923 45
" fill="green"/> 
<polygon  points="103.923 52.5
116.913 60
116.913 45
" fill="green"/> 
<polygon  points="0 67.5
12.9904 75
12.9904 60
" fill="green"/> 
<polygon  points="12.9904 67.5
25.9808 75
25.9808 60
" fill="green"/> 
<polygon  points="25.9808 67.5
38.9711 75
38.9711 60
" fill="green"/> 
<polygon  points="38.9711 67.5
51.9615 75
51.9615 60
" fill="green"/> 
<polygon  points="51.9615 67.5
64.9519 75
64.9519 60
" fill="green"/> 
<polygon  points="64.9519 67.5
77.9423 75
77.9423 60
" fill="green"/> 
<polygon  points="77.9423 67.5
90.9327 75
90.9327 60
" fill="green"/> 
<polygon  points="90.9327 67.5
103.923 75
103.923 60
" fill="green"/> 
<polygon  points="103.923 67.5
116.913 75
116.913 60
" fill="green"/> 
<polygon  points="0 82.5
12.9904 90
12.9904 75
" fill="green"/> 
<polygon  points="12.9904 82.5
25.9808 90
25.9808 75
" fill="green"/> 
<polygon  points="25.9808 82.5
38.9711 90
38.9711 75
" fill="green"/> 
<polygon  points="38.9711 82.5
51.9615 90
51.9615 75
" fill="green"/> 
<polygon  points="51.9615 82.5
64.9519 90
64.9519 75
" fill="green"/> 
<polygon  points="64.9519 82.5
77.9423 90
77.9423 75
" fill="green"/> 
<polygon  points="77.9423 82.5
90.9327 90
90.9327 75
" fill="green"/> 
<polygon  points="90.9327 82.5
103.923 90
103.923 75
" fill="green"/> 
<polygon  points="103.923 82.5
116.913 90
116.913 75
" fill="green"/> 
<polygon  points="0 97.5
12.9904 105
12.9904 90
" fill="green"/> 
<polygon  points="12.9904 97.5
25.9808 105
25.9808 90
" fill="green"/> 
<polygon  points="25.9808 97.5
38.9711 105
38.9711 90
" fill="green"/> 
<polygon  points="38.9711 97.5
51.9615 105
51.9615 90
" fill="green"/> 
<polygon  points="51.9615 97.5
64.9519 105
64.9519 90
" fill="green"/> 
<polygon  points="64.9519 97.5
77.9423 105
77.9423 90
" fill="green"/> 
<polygon  points="77.9423 97.5
90.9327 105
90.9327 90
" fill="green"/> 
<polygon  points="90.9327 97.5
103.923 105
103.923 90
" fill="green"/> 
<polygon  points="103.923 97.5
116.913 105
116.913 90
" fill="green"/> 
<polygon  points="0 112.5
12.9904 120
12.9904 105
" fill="green"/> 
<polygon  points="12.9904 112.5
25.9808 120
25.9808 105
" fill="green"/> 
<polygon  points="25.9808 112.5
38.9711 120
38.9711 105
" fill="green"/> 
<polygon  points="38.9711 112.5
51.9615 120
51.9615 105
" fill="green"/> 
<polygon  points="51.9615 112.5
64.9519 120
64.9519 105
" fill="green"/> 
<polygon  points="64.9519 112.5
77.9423 120
77.9423 105
" fill="green"/> 
<polygon  points="77.9423 112.5
90.9327 120
90.9327 105
" fill="green"/> 
<polygon  points="90.9327 112.5
103.923 120
103.923 105
" fill="green"/> 
<polygon  points="103.923 112.5
116.913 120
116.913 105
" fill="green"/> 
<polygon  points="0 127.5
12.9904 135
12.9904 120
" fill="green"/> 
<polygon  points="12.9904 127.5
25.9808 135
25.9808 120
" fill="green"/> 
<polygon  points="25.9808 127.5
38.9711 135
38.9711 120
" fill="green"/> 
<polygon  points="38.9711 127.5
51.9615 135
51.9615 120
" fill="green"/> 
<polygon  points="51.9615 127.5
64.9519 135
64.9519 120
" fill="green"/> 
<polygon  points="64.9519 127.5
77.9423 135
77.9423 120
" fill="green"/> 
<polygon  points="77.9423 127.5
90.9327 135
90.9327 120
" fill="green"/> 
<polygon  points="90.9327 127.5
103.923 135
103.923 120
" fill="green"/> 
<polygon  points="103.923 127.5
116.913 135
116.913 120
" fill="green"/> 
<polygon  points="0 142.5
12.9904 150
12.9904 135
" fill="green"/> 
<polygon  points="12.9904 142.5
25.9808 150
25.9808 135
" fill="green"/> 
<polygon  points="25.9808 142.5
38.9711 150
38.9711 135
" fill="green"/> 
<polygon  points="38.9711 142.5
51.9615 150
51.9615 135
" fill="green"/> 
<polygon  points="51.9615 142.5
64.9519 150
64.9519 135
" fill="green"/> 
<polygon  points="64.9519 142.5
77.9423 150
77.9423 135
" fill="green"/> 
<polygon  points="77.9423 142.5
90.9327 150
90.9327 135
" fill="green"/> 
<polygon  points="90.9327 142.5
103.923 150
103.923 135
" fill="green"/> 
<polygon  points="103.923 142.5
116.913 150
116.913 135
" fill="green"/> 
<polygon  points="0 157.5
12.9904 165
12.9904 150
" fill="green"/> 
<polygon  points="12.9904 157.5
25.9808 165
25.9808 150
" fill="green"/> 
<polygon  points="25.9808 157.5
38.9711 165
38.9711 150
" fill="green"/> 
<polygon  points="38.9711 157.5
51.9615 165
51.9615 150
" fill="green"/> 
<polygon  points="51.9615 157.5
64.9519 165
64.9519 150
" fill="green"/> 
<polygon  points="64.9519 157.5
77.9423 165
77.9423 150
" fill="green"/> 
<polygon  points="77.9423 157.5
90.9327 165
90.9327 150
" fill="green"/> 
<polygon  points="90.9327 157.5
103.923 165
103.923 150
" fill="green"/> 
<polygon  points="103.923 157.5
116.913 165
116.913 150
" fill="green"/> 
<polygon  points="0 172.5
12.9904 180
12.9904 165
" fill="green"/> 
<polygon  points="12.9904 172.5
25.9808 180
25.9808 165
" fill="green"/> 
<polygon  points="25.9808 172.5
38.9711 180
38.9711 165
" fill="green"/> 
<polygon  points="38.9711 172.5
51.9615 180
51.9615 165
" fill="green"/> 
<polygon  points="51.9615 172.5
64.9519 180
64.9519 165
" fill="green"/> 
<polygon  points="64.9519 172.5
77.9423 180
77.9423 165
" fill="green"/> 
<polygon  points="77.9423 172.5
90.9327 180
90.9327 165
" fill="green"/> 
<polygon  points="90.9327 172.5
103.923 180
103.923 165
" fill="green"/> 
<polygon  points="103.923 172.5
116.913 180
116.913 165
" fill="green"/> 
<polygon  points="0 187.5
12.9904 195
12.9904 180
" fill="green"/> 
<polygon  points="12.9904 187.5
25.9808 195
25.9808 180
" fill="green"/> 
<polygon  points="25.9808 187.5
38.9711 195
38.9711 180
" fill="green"/> 
<polygon  points="38.9711 187.5
51.9615 195
51.9615 180
" fill="green"/> 
<polygon  points="51.9615 187.5
64.9519 195
64.9519 180
" fill="green"/> 
<polygon  points="64.9519 187.5
77.9423 195
77.9423 180
" fill="green"/> 
<polygon  points="77.9423 187.5
90.9327 195
90.9327 180
" fill="green"/> 
<polygon  points="90.9327 187.5
103.923 195
103.923 180
" fill="green"/> 
<polygon  points="103.923 187.5
116.913 195
116.913 180
" fill="green"/> 
<polygon  points="0 202.5
12.9904 210
12.9904 195
" fill="green"/> 
<polygon  points="12.9904 202.5
25.9808 210
25.9808 195
" fill="green"/> 
<polygon  points="25.9808 202.5
38.9711 210
38.9711 195
" fill="green"/> 
<polygon  points="38.9711 202.5
51.9615 210
51.9615 195
" fill="green"/> 
<polygon  points="51.9615 202.5
64.9519 210
64.9519 195
" fill="green"/> 
<polygon  points="64.9519 202.5
77.9423 210
77.9423 195
" fill="green"/> 
<polygon  points="77.9423 202.5
90.9327 210
90.9327 195
" fill="green"/> 
<polygon  points="90.9327 202.5
103.923 210
103.923 195
" fill="green"/> 
<polygon  points="103.923 202.5
116.913 210
116.913 195
" fill="green"/> 
<polygon  points="0 217.5
12.9904 225
12.9904 210
" fill="green"/> 
<polygon  points="12.9904 217.5
25.9808 225
25.9808 210
" fill="green"/> 
<polygon  points="25.9808 217.5
38.9711 225
38.9711 210
" fill="green"/> 
<polygon  points="38.9711 217.5
51.9615 225
51.9615 210
" fill="green"/> 
<polygon  points="51.9615 217.5
64.9519 225
64.9519 210
" fill="green"/> 
<polygon  points="64.9519 217.5
77.9423 225
77.9423 210
" fill="green"/> 
<polygon  points="77.9423 217.5
90.9327 225
90.9327 210
" fill="green"/> 
<polygon  points="90.9327 217.5
103.923 225
103.923 210
" fill="green"/> 
<polygon  points="103.923 217.5
116.913 225
116.913 210
" fill="green"/> 
<polygon  points="0 232.5
12.9904 240
12.9904 225
" fill="green"/> 
<polygon  points="12.9904 232.5
25.9808 240
25.9808 225
" fill="green"/> 
<polygon  points="25.9808 232.5
38.9711 240
38.9711 225
" fill="green"/> 
<polygon  points="38.9711 232.5
51.9615 240
51.9615 225
" fill="green"/> 
<polygon  points="51.9615 232.5
64.9519 240
64.9519 225
" fill="green"/> 
<polygon  points="64.9519 232.5
77.9423 240
77.9423 225
" fill="green"/> 
<polygon  points="77.9423 232.5
90.9327 240
90.9327 225
" fill="green"/> 
<polygon  points="90.9327 232.5
103.923 240
103.923 225
" fill="green"/> 
<polygon  points="103.923 232.5
116.913 240
116.913 225
" fill="green"/> 
<polygon  points="0 247.5
12.9904 255
12.9904 240
" fill="green"/> 
<polygon  points="12.9904 247.5
25.9808 255
25.9808 240
" fill="green"/> 
<polygon  points="25.9808 247.5
38.9711 255
38.9711 240
" fill="green"/> 
<polygon  points="38.9711 247.5
51.9615 255
51.9615 240
" fill="green"/> 
<polygon  points="51.9615 247.5
64.9519 255
64.9519 240
" fill="green"/> 
<polygon  points="64.9519 247.5
77.9423 255
77.9423 240
" fill="green"/> 
<polygon  points="77.9423 247.5
90.9327 255
90.9327 240
" fill="green"/> 
<polygon  points="90.9327 247.5
103.923 255
103.923 240
" fill="green"/> 
<polygon  points="103.923 247.5
116.913 255
116.913 240
" fill="green"/> 
<polygon  points="0 262.5
12.9904 270
12.9904 255
" fill="green"/> 
<polygon  points="12.9904 262.5
25.9808 270
25.9808 255
" fill="green"/> 
<polygon  points="25.9808 262.5
38.9711 270
38.9711 255
" fill="green"/> 
<polygon  points="38.9711 262.5
51.9615 270
51.9615 255
" fill="green"/> 
<polygon  points="51.9615 262.5
64.9519 270
64.9519 255
" fill="green"/> 
<polygon  points="64.9519 262.5
77.9423 270
77.9423 255
" fill="green"/> 
<polygon  points="77.9423 262.5
90.9327 270
90.9327 255
" fill="green"/> 
<polygon  points="90.9327 262.5
103.923 270
103.923 255
" fill="green"/> 
<polygon  points="103.923 262.5
116.913 270
116.913 255
" fill="green"/> 
<polygon  points="0 277.5
12.9904 285
12.9904 270
" fill="green"/> 
<polygon  points="12.9904 277.5
25.9808 285
25.9808 270
" fill="green"/> 
<polygon  points="25.9808 277.5
38.9711 285
38.9711 270
" fill="green"/> 
<polygon  points="38.9711 277.5
51.9615 285
51.9615 270
" fill="green"/> 
<polygon  points="51.9615 277.5
64.9519 285
64.9519 270
" fill="green"/> 
<polygon  points="64.9519 277.5
77.9423 285
77.9423 270
" fill="green"/> 
<polygon  points="77.9423 277.5
90.9327 285
90.9327 270
" fill="green"/> 
<polygon  points="90.9327 277.5
103.923 285
103.923 270
" fill="green"/> 
<polygon  points="103.923 277.5
116.913 285
116.913 270
" fill="green"/> 
<polygon  points="0 292.5
12.9904 300
12.9904 285
" fill="green"/> 
<polygon  points="12.9904 292.5
25.9808 300
25.9808 285
" fill="green"/> 
<polygon  points="25.9808 292.5
38.9711 300
38.9711 285
" fill="green"/> 
<polygon  points="38.9711 292.5
51.9615 300
51.9615 285
" fill="green"/> 
<polygon  points="51.9615 292.5
64.9519 300
64.9519 285
" fill="green"/> 
<polygon  points="64.9519 292.5
77.9423 300
77.9423 285
" fill="green"/> 
<polygon  points="77.9423 292.5
90.9327 300
90.9327 285
" fill="green"/> 
<polygon  points="90.9327 292.5
103.923 300
103.923 285
" fill="green"/> 
<polygon  points="103.923 292.5
116.913 300
116.913 285
" fill="green"/> 
<polygon  points="0 7.5
0 22.5
12.9904 15
" fill="green"/> 
<polygon  points="12.9904 7.5
12.9904 22.5
25.9808 15
" fill="green"/> 
<polygon  points="25.9808 7.5
25.9808 22.5
38.9711 15
" fill="green"/> 
<polygon  points="38.9711 7.5
38.9711 22.5
51.9615 15
" fill="green"/> 
<polygon  points="51.9615 7.5
51.9615 22.5
64.9519 15
" fill="green"/> 
<polygon  points="64.9519 7.5
64.9519 22.5
77.9423 15
" fill="green"/> 
<polygon  points="77.9423 7.5
77.9423 22.5
90.9327 15
" fill="green"/> 
<polygon  points="90.9327 7.5
90.9327 22.5
103.923 15
" fill="green"/> 
<polygon  points="103.923 7.5
103.923 22.5
116.913 15
" fill="green"/> 
<polygon  points="0 22.5
0 37.5
12.9904 30
" fill="green"/> 
<polygon  points="12.9904 22.5
12.9904 37.5
25.9808 30
" fill="green"/> 
<polygon  points="25.9808 22.5
25.9808 37.5
38.9711 30
" fill="green"/> 
<polygon  points="38.9711 22.5
38.9711 37.5
51.9615 30
" fill="green"/> 
<polygon  points="51.9615 22.5
51.9615 37.5
64.9519 30
" fill="green"/> 
<polygon  points="64.9519 22.5
64.9519 37.5
77.9423 30
" fill="green"/> 
<polygon  points="77.9423 22.5
77.9423 37.5
90.9327 30
" fill="green"/> 
<polygon  points="90.9327 22.5
90.9327 37.5
103.923 30
" fill="green"/> 
<polygon  points="103.923 22.5
103.923 37.5
116.913 30
" fill="green"/> 
<polygon  points="0 37.5
0 52.5
12.9904 45
" fill="green"/> 
<polygon  points="12.9904 37.5
12.9904 52.5
25.9808 45
" fill="green"/> 
<polygon  points="25.9808 37.5
25.9808 52.5
38.9711 45
" fill="green"/> 
<polygon  points="38.9711 37.5
38.9711 52.5
51.9615 45
" fill="green"/> 
<polygon  points="51.9615 37.5
51.9615 52.5
64.9519 45
" fill="green"/> 
<polygon  points="64.9519 37.5
64.9519 52.5
77.9423 45
" fill="green"/> 
<polygon  points="77.9423 37.5
77.9423 52.5
90.9327 45
" fill="green"/> 
<polygon  points="90.9327 37.5
90.9327 52.5
103.923 45
" fill="green"/> 
<polygon  points="103.923 37.5
103.923 52.5
116.913 45
" fill="green"/> 
<polygon  points="0 52.5
0 67.5
12.9904 60
" fill="green"/> 
<polygon  points="12.9904 52.5
12.9904 67.5
25.9808 60
" fill="green"/> 
<polygon  points="25.9808 52.5
25.9808 67.5
38.9711 60
" fill="green"/> 
<polygon  points="38.9711 52.5
38.9711 67.5
51.9615 60
" fill="green"/> 
<polygon  points="51.9615 52.5
51.9615 67.5
64.9519 60
" fill="green"/> 
<polygon  points="64.9519 52.5
64.9519 67.5
77.9423 60
" fill="green"/> 
<polygon  points="77.9423 52.5
77.9423 67.5
90.9327 60
" fill="green"/> 
<polygon  points="90.9327 52.5
90.9327 67.5
103.923 60
" fill="green"/> 
<polygon  points="103.923 52.5
103.923 67.5
116.913 60
" fill="green"/> 
<polygon  points="0 67.5
0 82.5
12.9904 75
" fill="green"/> 
<polygon  points="12.9904 67.5
12.9904 82.5
25.9808 75
" fill="green"/> 
<polygon  points="25.9808 67.5
25.9808 82.5
38.9711 75
" fill="green"/> 
<polygon  points="38.9711 67.5
38.9711 82.5
51.9615 75
" fill="green"/> 
<polygon  points="51.9615 67.5
51.9615 82.5
64.9519 75
" fill="green"/> 
<polygon  points="64.9519 67.5
64.9519 82.5
77.9423 75
" fill="green"/> 
<polygon  points="77.9423 67.5
77.9423 82.5
90.9327 75
" fill="green"/> 
<polygon  points="90.9327 67.5
90.9327 82.5
103.923 75
" fill="green"/> 
<polygon  points="103.923 67.5
103.923 82.5
116.913 75
" fill="green"/> 
<polygon  points="0 82.5
0 97.5
12.9904 90
" fill="green"/> 
<polygon  points="12.9904 82.5
12.9904 97.5
25.9808 90
" fill="green"/> 
<polygon  points="25.9808 82.5
25.9808 97.5
38.9711 90
" fill="green"/> 
<polygon  points="38.9711 82.5
38.9711 97.5
51.9615 90
" fill="green"/> 
<polygon  points="51.9615 82.5
51.9615 97.5
64.9519 90
" fill="green"/> 
<polygon  points="64.9519 82.5
64.9519 97.5
77.9423 90
" fill="green"/> 
<polygon  points="77.9423 82.5
77.9423 97.5
90.9327 90
" fill="green"/> 
<polygon  points="90.9327 82.5
90.9327 97.5
103.923 90
" fill="green"/> 
<polygon  points="103.923 82.5
103.923 97.5
116.913 90
" fill="green"/> 
<polygon  points="0 97.5
0 112.5
12.9904 105
" fill="green"/> 
<polygon  points="12.9904 97.5
12.9904 112.5
25.9808 105
" fill="green"/> 
<polygon  points="25.9808 97.5
25.9808 112.5
38.9711 105
" fill="green"/> 
<polygon  points="38.9711 97.5
38.9711 112.5
51.9615 105
" fill="green"/> 
<polygon  points="51.9615 97.5
51.9615 112.5
64.9519 105
" fill="green"/> 
<polygon  points="64.9519 97.5
64.9519 112.5
77.9423 105
" fill="green"/> 
<polygon  points="77.9423 97.5
77.9423 112.5
90.9327 105
" fill="green"/> 
<polygon  points="90.9327 97.5
90.9327 112.5
103.923 105
" fill="green"/> 
<polygon  points="103.923 97.5
103.923 112.5
116.913 105
" fill="green"/> 
<polygon  points="0 112.5
0 127.5
12.9904 120
" fill="green"/> 
<polygon  points="12.9904 112.5
12.9904 127.5
25.9808 120
" fill="green"/> 
<polygon  points="25.9808 112.5
25.9808 127.5
38.9711 120
" fill="green"/> 
<polygon  points="38.9711 112.5
38.9711 127.5
51.9615 120
" fill="green"/> 
<polygon  points="51.9615 112.5
51.9615 127.5
64.9519 120
" fill="green"/> 
<polygon  points="64.9519 112.5
64.9519 127.5
77.9423 120
" fill="green"/> 
<polygon  points="77.9423 112.5
77.9423 127.5
90.9327 120
" fill="green"/> 
<polygon  points="90.9327 112.5
90.9327 127.5
103.923 120
" fill="green"/> 
<polygon  points="103.923 112.5
103.923 127.5
116.913 120
" fill="green"/> 
<polygon  points="0 127.5
0 142.5
12.9904 135
" fill="green"/> 
<polygon  points="12.9904 127.5
12.9904 142.5
25.9808 135
" fill="green"/> 
<polygon  points="25.9808 127.5
25.9808 142.5
38.9711 135
" fill="green"/> 
<polygon  points="38.9711 127.5
38.9711 142.5
51.9615 135
" fill="green"/> 
<polygon  points="51.9615 127.5
51.9615 142.5
64.9519 135
" fill="green"/> 
<polygon  points="64.9519 127.5
64.9519 142.5
77.9423 135
" fill="green"/> 
<polygon  points="77.9423 127.5
77.9423 142.5
90.9327 135
" fill="green"/> 
<polygon  points="90.9327 127.5
90.9327 142.5
103.923 135
" fill="green"/> 
<polygon  points="103.923 127.5
103.923 142.5
116.913 135
" fill="green"/> 
<polygon  points="0 142.5
0 157.5
12.9904 150
" fill="green"/> 
<polygon  points="12.9904 142.5
12.9904 157.5
25.9808 150
" fill="green"/> 
<polygon  points="25.9808 142.5
25.9808 157.5
38.9711 150
" fill="green"/> 
<polygon  points="38.9711 142.5
38.9711 157.5
51.9615 150
" fill="green"/> 
<polygon  points="51.9615 142.5
51.9615 157.5
64.9519 150
" fill="green"/> 
<polygon  points="64.9519 142.5
64.9519 157.5
77.9423 150
" fill="green"/> 
<polygon  points="77.9423 142.5
77.9423 157.5
90.9327 150
" fill="green"/> 
<polygon  points="90.9327 142.5
90.9327 157.5
103.923 150
" fill="green"/> 
<polygon  points="103.923 142.5
103.923 157.5
116.913 150
" fill="green"/> 
<polygon  points="0 157.5
0 172.5
12.9904 165
" fill="green"/> 
<polygon  points="12.9904 157.5
12.9904 172.5
25.9808 165
" fill="green"/> 
<polygon  points="25.9808 157.5
25.9808 172.5
38.9711 165
" fill="green"/> 
<polygon  points="38.9711 157.5
38.9711 172.5
51.9615 165
" fill="green"/> 
<polygon  points="51.9615 157.5
51.9615 172.5
64.9519 165
" fill="green"/> 
<polygon  points="64.9519 157.5
64.9519 172.5
77.9423 165
" fill="green"/> 
<polygon  points="77.9423 157.5
77.9423 172.5
90.9327 165
" fill="green"/> 
<polygon  points="90.9327 157.5
90.9327 172.5
103.923 165
" fill="green"/> 
<polygon  points="103.923 157.5
103.923 172.5
116.913 165
" fill="green"/> 
<polygon  points="0 172.5
0 187.5
12.9904 180
" fill="green"/> 
<polygon  points="12.9904 172.5
12.9904 187.5
25.9808 180
" fill="green"/> 
<polygon  points="25.9808 172.5
25.9808 187.5
38.9711 180
" fill="green"/> 
<polygon  points="38.9711 172.5
38.9711 187.5
51.9615 180
" fill="green"/> 
<polygon  points="51.9615 172.5
51.9615 187.5
64.9519 180
" fill="green"/> 
<polygon  points="64.9519 172.5
64.9519 187.5
77.9423 180
" fill="green"/> 
<polygon  points="77.9423 172.5
77.9423 187.5
90.9327 180
" fill="green"/> 
<polygon  points="90.9327 172.5
90.9327 187.5
103.923 180
" fill="green"/> 
<polygon  points="103.923 172.5
103.923 187.5
116.913 180
" fill="green"/> 
<polygon  points="0 187.5
0 202.5
12.9904 195
" fill="green"/> 
<polygon  points="12.9904 187.5
12.9904 202.5
25.9808 195
" fill="green"/> 
<polygon  points="25.9808 187.5
25.9808 202.5
38.9711 195
" fill="green"/> 
<polygon  points="38.9711 187.5
38.9711 202.5
51.9615 195
" fill="green"/> 
<polygon  points="51.9615 187.5
51.9615 202.5
64.9519 195
" fill="green"/> 
<polygon  points="64.9519 187.5
64.9519 202.5
77.9423 195
" fill="green"/> 
<polygon  points="77.9423 187.5
77.9423 202.5
90.9327 195
" fill="green"/> 
<polygon  points="90.9327 187.5
90.9327 202.5
103.923 195
" fill="green"/> 
<polygon  points="103.923 187.5
103.923 202.5
116.913 195
" fill="green"/> 
<polygon  points="0 202.5
0 217.5
12.9904 210
" fill="green"/> 
<polygon  points="12.9904 202.5
12.9904 217.5
25.9808 210
" fill="green"/> 
<polygon  points="25.9808 202.5
25.9808 217.5
38.9711 210
" fill="green"/> 
<polygon  points="38.9711 202.5
38.9711 217.5
51.9615 210
" fill="green"/> 
<polygon  points="51.9615 202.5
51.9615 217.5
64.9519 210
" fill="green"/> 
<polygon  points="64.9519 202.5
64.9519 217.5
77.9423 210
" fill="green"/> 
<polygon  points="77.9423 202.5
77.9423 217.5
90.9327 210
" fill="green"/> 
<polygon  points="90.9327 202.5
90.9327 217.5
103.923 210
" fill="green"/> 
<polygon  points="103.923 202.5
103.923 217.5
116.913 210
" fill="green"/> 
<polygon  points="0 217.5
0 232.5
12.9904 225
" fill="green"/> 
<polygon  points="12.9904 217.5
12.9904 232.5
25.9808 225
" fill="green"/> 
<polygon  points="25.9808 217.5
25.9808 232.5
38.9711 225
" fill="green"/> 
<polygon  points="38.9711 217.5
38.9711 232.5
51.9615 225
" fill="green"/> 
<polygon  points="51.9615 217.5
51.9615 232.5
64.9519 225
" fill="green"/> 
<polygon  points="64.9519 217.5
64.9519 232.5
77.9423 225
" fill="green"/> 
<polygon  points="77.9423 217.5
77.9423 232.5
90.9327 225
" fill="green"/> 
<polygon  points="90.9327 217.5
90.9327 232.5
103.923 225
" fill="green"/> 
<polygon  points="103.923 217.5
103.923 232.5
116.913 225
" fill="green"/> 
<polygon  points="0 232.5
0 247.5
12.9904 240
" fill="green"/> 
<polygon  points="12.9904 232.5
12.9904 247.5
25.9808 240
" fill="green"/> 
<polygon  points="25.9808 232.5
25.9808 247.5
38.9711 240
" fill="green"/> 
<polygon  points="38.9711 232.5
38.9711 247.5
51.9615 240
" fill="green"/> 
<polygon  points="51.9615 232.5
51.9615 247.5
64.9519 240
" fill="green"/> 
<polygon  points="64.9519 232.5
64.9519 247.5
77.9423 240
" fill="green"/> 
<polygon  points="77.9423 232.5
77.9423 247.5
90.9327 240
" fill="green"/> 
<polygon  points="90.9327 232.5
90.9327 247.5
103.923 240
" fill="green"/> 
<polygon  points="103.923 232.5
103.923 247.5
116.913 240
" fill="green"/> 
<polygon  points="0 247.5
0 262.5
12.9904 255
" fill="green"/> 
<polygon  points="12.9904 247.5
12.9904 262.5
25.9808 255
" fill="green"/> 
<polygon  points="25.9808 247.5
25.9808 262.5
38.9711 255
" fill="green"/> 
<polygon  points="38.9711 247.5
38.9711 262.5
51.9615 255
" fill="green"/> 
<polygon  points="51.9615 247.5
51.9615 262.5
64.9519 255
" fill="green"/> 
<polygon  points="64.9519 247.5
64.9519 262.5
77.9423 255
" fill="green"/> 
<polygon  points="77.9423 247.5
77.9423 262.5
90.9327 255
" fill="green"/> 
<polygon  points="90.9327 247.5
90.9327 262.5
103.923 255
" fill="green"/> 
<polygon  points="103.923 247.5
103.923 262.5
116.913 255
" fill="green"/> 
<polygon  points="0 262.5
0 277.5
12.9904 270
" fill="green"/> 
<polygon  points="12.9904 262.5
12.9904 277.5
25.9808 270
" fill="green"/> 
<polygon  points="25.9808 262.5
25.9808 277.5
38.9711 270
" fill="green"/> 
<polygon  points="38.9711 262.5
38.9711 277.5
51.9615 270
" fill="green"/> 
<polygon  points="51.9615 262.5
51.9615 277.5
64.9519 270
" fill="green"/> 
<polygon  points="64.9519 262.5
64.9519 277.5
77.9423 270
" fill="green"/> 
<polygon  points="77.9423 262.5
77.9423 277.5
90.9327 270
" fill="green"/> 
<polygon  points="90.9327 262.5
90.9327 277.5
103.923 270
" fill="green"/> 
<polygon  points="103.923 262.5
103.923 277.5
116.913 270
" fill="green"/> 
<polygon  points="0 277.5
0 292.5
12.9904 285
" fill="green"/> 
<polygon  points="12.9904 277.5
12.9904 292.5
25.9808 285
" fill="green"/> 
<polygon  points="25.9808 277.5
25.9808 292.5
38.9711 285
" fill="green"/> 
<polygon  points="38.9711 277.5
38.9711 292.5
51.9615 285
" fill="green"/> 
<polygon  points="51.9615 277.5
51.9615 292.5
64.9519 285
" fill="green"/> 
<polygon  points="64.9519 277.5
64.9519 292.5
77.9423 285
" fill="green"/> 
<polygon  points="77.9423 277.5
77.9423 292.5
90.9327 285
" fill="green"/> 
<polygon  points="90.9327 277.5
90.9327 292.5
103.923 285
" fill="green"/> 
<polygon  points="103.923 277.5
103.923 292.5
116.913 285
" fill="green"/> 
 </svg> 
