<svg version="1.1" baseProfile="full" width="100%" height="100%" xmlns="http://www.w3.org/2000/svg"> <polygon  points="0 0
0 345
560 345
560 0
" fill="red"/> 
<polygon  points="0 0
0 180
76 180
76 0
" fill="green"/> 
<polygon  points="76 0
76 180
152 180
152 0
" fill="green"/> 
<polygon  points="152 0
152 180
228 180
228 0
" fill="green"/> 
<polygon  points="228 0
228 180
304 180
304 0
" fill="green"/> 
<polygon  points="304 0
304 180
380 180
380 0
" fill="green"/> 
<polygon  points="380 0
380 180
456 180
456 0
" fill="green"/> 
<polygon  points="456 0
456 180
532 180
532 0
" fill="green"/> 
<polygon  points="0 180
0 256
180 256
180 180
" fill="green"/> 
<polygon  points="180 180
180 256
360 256
360 180
" fill="green"/> 
<polygon  points="360 180
360 256
540 256
540 180
" fill="green"/> 
<polygon  points="0 256
0 332
180 332
180 256
" fill="green"/> 
<polygon  points="180 256
180 332
360 332
360 256
" fill="green"/> 
<polygon  points="360 256
360 332
540 332
540 256
" fill="green"/> 
 </svg> 
