<svg version="1.1" baseProfile="full" width="100%" height="100%" xmlns="http://www.w3.org/2000/svg"> <polygon  points="400 200
399.606 212.552
398.425 225.054
396.461 237.457
393.723 249.713
390.221 261.773
385.969 273.589
380.984 285.116
375.286 296.306
368.896 307.117
361.841 317.506
354.147 327.431
345.846 336.854
336.97 345.737
327.554 354.046
317.634 361.747
307.251 368.811
296.446 375.209
285.26 380.917
273.737 385.911
261.925 390.172
249.868 393.683
237.614 396.431
225.212 398.405
212.711 399.596
200.159 400
187.607 399.616
175.104 398.444
162.699 396.491
150.441 393.762
138.378 390.27
126.559 386.028
115.029 381.052
103.834 375.363
93.0176 368.982
82.6234 361.934
72.692 354.249
63.2625 345.955
54.3721 337.086
46.0558 327.676
38.3465 317.763
31.2745 307.386
24.8677 296.585
19.1514 285.404
14.1481 273.885
9.87748 262.076
6.35645 250.022
3.59888 237.77
1.61562 225.37
0.414498 212.87
0.000253654 200.319
0.374517 187.766
1.53581 175.262
3.47956 162.855
6.1981 150.595
9.68071 138.53
13.9137 126.707
18.8803 115.173
24.561 103.973
30.9333 93.1522
37.9722 82.7524
45.6499 72.8149
53.9362 63.3788
62.7983 54.4813
72.2013 46.1576
82.1082 38.4403
92.4799 31.3601
103.275 24.9447
114.452 19.2195
125.967 14.207
137.773 9.92697
149.824 6.39635
162.073 3.62902
174.472 1.63588
186.971 0.42481
199.522 0.000570722
212.075 0.364838
224.58 1.51618
236.988 3.45005
249.25 6.15882
261.318 9.63182
273.145 13.8554
284.683 18.8128
295.887 24.4845
306.713 30.8483
317.119 37.8789
327.062 45.5487
336.505 53.8274
345.409 62.6824
353.741 72.0788
361.466 81.9796
368.554 92.3456
374.978 103.136
380.712 114.308
385.734 125.819
390.023 137.621
393.564 149.67
396.341 161.917
398.344 174.314
399.565 186.813
" fill="red"/> 
<polygon  points="58.5786 58.5786
58.5786 73.5786
78.5786 73.5786
78.5786 58.5786
" fill="green"/> 
<polygon  points="78.5786 58.5786
78.5786 73.5786
98.5786 73.5786
98.5786 58.5786
" fill="green"/> 
<polygon  points="98.5786 58.5786
98.5786 73.5786
118.579 73.5786
118.579 58.5786
" fill="green"/> 
<polygon  points="118.579 58.5786
118.579 73.5786
138.579 73.5786
138.579 58.5786
" fill="green"/> 
<polygon  points="138.579 58.5786
138.579 73.5786
158.579 73.5786
158.579 58.5786
" fill="green"/> 
<polygon  points="158.579 58.5786
158.579 73.5786
178.579 73.5786
178.579 58.5786
" fill="green"/> 
<polygon  points="178.579 58.5786
178.579 73.5786
198.579 73.5786
198.579 58.5786
" fill="green"/> 
<polygon  points="198.579 58.5786
198.579 73.5786
218.579 73.5786
218.579 58.5786
" fill="green"/> 
<polygon  points="218.579 58.5786
218.579 73.5786
238.579 73.5786
238.579 58.5786
" fill="green"/> 
<polygon  points="238.579 58.5786
238.579 73.5786
258.579 73.5786
258.579 58.5786
" fill="green"/> 
<polygon  points="258.579 58.5786
258.579 73.5786
278.579 73.5786
278.579 58.5786
" fill="green"/> 
<polygon  points="278.579 58.5786
278.579 73.5786
298.579 73.5786
298.579 58.5786
" fill="green"/> 
<polygon  points="298.579 58.5786
298.579 73.5786
318.579 73.5786
318.579 58.5786
" fill="green"/> 
<polygon  points="318.579 58.5786
318.579 73.5786
338.579 73.5786
338.579 58.5786
" fill="green"/> 
<polygon  points="58.5786 73.5786
58.5786 88.5786
78.5786 88.5786
78.5786 73.5786
" fill="green"/> 
<polygon  points="78.5786 73.5786
78.5786 88.5786
98.5786 88.5786
98.5786 73.5786
" fill="green"/> 
<polygon  points="98.5786 73.5786
98.5786 88.5786
118.579 88.5786
118.579 73.5786
" fill="green"/> 
<polygon  points="118.579 73.5786
118.579 88.5786
138.579 88.5786
138.579 73.5786
" fill="green"/> 
<polygon  points="138.579 73.5786
138.579 88.5786
158.579 88.5786
158.579 73.5786
" fill="green"/> 
<polygon  points="158.579 73.5786
158.579 88.5786
178.579 88.5786
178.579 73.5786
" fill="green"/> 
<polygon  points="178.579 73.5786
178.579 88.5786
198.579 88.5786
198.579 73.5786
" fill="green"/> 
<polygon  points="198.579 73.5786
198.579 88.5786
218.579 88.5786
218.579 73.5786
" fill="green"/> 
<polygon  points="218.579 73.5786
218.579 88.5786
238.579 88.5786
238.579 73.5786
" fill="green"/> 
<polygon  points="238.579 73.5786
238.579 88.5786
258.579 88.5786
258.579 73.5786
" fill="green"/> 
<polygon  points="258.579 73.5786
258.579 88.5786
278.579 88.5786
278.579 73.5786
" fill="green"/> 
<polygon  points="278.579 73.5786
278.579 88.5786
298.579 88.5786
298.579 73.5786
" fill="green"/> 
<polygon  points="298.579 73.5786
298.579 88.5786
318.579 88.5786
318.579 73.5786
" fill="green"/> 
<polygon  points="318.579 73.5786
318.579 88.5786
338.579 88.5786
338.579 73.5786
" fill="green"/> 
<polygon  points="58.5786 88.5786
58.5786 103.579
78.5786 103.579
78.5786 88.5786
" fill="green"/> 
<polygon  points="78.5786 88.5786
78.5786 103.579
98.5786 103.579
98.5786 88.5786
" fill="green"/> 
<polygon  points="98.5786 88.5786
98.5786 103.579
118.579 103.579
118.579 88.5786
" fill="green"/> 
<polygon  points="118.579 88.5786
118.579 103.579
138.579 103.579
138.579 88.5786
" fill="green"/> 
<polygon  points="138.579 88.5786
138.579 103.579
158.579 103.579
158.579 88.5786
" fill="green"/> 
<polygon  points="158.579 88.5786
158.579 103.579
178.579 103.579
178.579 88.5786
" fill="green"/> 
<polygon  points="178.579 88.5786
178.579 103.579
198.579 103.579
198.579 88.5786
" fill="green"/> 
<polygon  points="198.579 88.5786
198.579 103.579
218.579 103.579
218.579 88.5786
" fill="green"/> 
<polygon  points="218.579 88.5786
218.579 103.579
238.579 103.579
238.579 88.5786
" fill="green"/> 
<polygon  points="238.579 88.5786
238.579 103.579
258.579 103.579
258.579 88.5786
" fill="green"/> 
<polygon  points="258.579 88.5786
258.579 103.579
278.579 103.579
278.579 88.5786
" fill="green"/> 
<polygon  points="278.579 88.5786
278.579 103.579
298.579 103.579
298.579 88.5786
" fill="green"/> 
<polygon  points="298.579 88.5786
298.579 103.579
318.579 103.579
318.579 88.5786
" fill="green"/> 
<polygon  points="318.579 88.5786
318.579 103.579
338.579 103.579
338.579 88.5786
" fill="green"/> 
<polygon  points="58.5786 103.579
58.5786 118.579
78.5786 118.579
78.5786 103.579
" fill="green"/> 
<polygon  points="78.5786 103.579
78.5786 118.579
98.5786 118.579
98.5786 103.579
" fill="green"/> 
<polygon  points="98.5786 103.579
98.5786 118.579
118.579 118.579
118.579 103.579
" fill="green"/> 
<polygon  points="118.579 103.579
118.579 118.579
138.579 118.579
138.579 103.579
" fill="green"/> 
<polygon  points="138.579 103.579
138.579 118.579
158.579 118.579
158.579 103.579
" fill="green"/> 
<polygon  points="158.579 103.579
158.579 118.579
178.579 118.579
178.579 103.579
" fill="green"/> 
<polygon  points="178.579 103.579
178.579 118.579
198.579 118.579
198.579 103.579
" fill="green"/> 
<polygon  points="198.579 103.579
198.579 118.579
218.579 118.579
218.579 103.579
" fill="green"/> 
<polygon  points="218.579 103.579
218.579 118.579
238.579 118.579
238.579 103.579
" fill="green"/> 
<polygon  points="238.579 103.579
238.579 118.579
258.579 118.579
258.579 103.579
" fill="green"/> 
<polygon  points="258.579 103.579
258.579 118.579
278.579 118.579
278.579 103.579
" fill="green"/> 
<polygon  points="278.579 103.579
278.579 118.579
298.579 118.579
298.579 103.579
" fill="green"/> 
<polygon  points="298.579 103.579
298.579 118.579
318.579 118.579
318.579 103.579
" fill="green"/> 
<polygon  points="318.579 103.579
318.579 118.579
338.579 118.579
338.579 103.579
" fill="green"/> 
<polygon  points="58.5786 118.579
58.5786 133.579
78.5786 133.579
78.5786 118.579
" fill="green"/> 
<polygon  points="78.5786 118.579
78.5786 133.579
98.5786 133.579
98.5786 118.579
" fill="green"/> 
<polygon  points="98.5786 118.579
98.5786 133.579
118.579 133.579
118.579 118.579
" fill="green"/> 
<polygon  points="118.579 118.579
118.579 133.579
138.579 133.579
138.579 118.579
" fill="green"/> 
<polygon  points="138.579 118.579
138.579 133.579
158.579 133.579
158.579 118.579
" fill="green"/> 
<polygon  points="158.579 118.579
158.579 133.579
178.579 133.579
178.579 118.579
" fill="green"/> 
<polygon  points="178.579 118.579
178.579 133.579
198.579 133.579
198.579 118.579
" fill="green"/> 
<polygon  points="198.579 118.579
198.579 133.579
218.579 133.579
218.579 118.579
" fill="green"/> 
<polygon  points="218.579 118.579
218.579 133.579
238.579 133.579
238.579 118.579
" fill="green"/> 
<polygon  points="238.579 118.579
238.579 133.579
258.579 133.579
258.579 118.579
" fill="green"/> 
<polygon  points="258.579 118.579
258.579 133.579
278.579 133.579
278.579 118.579
" fill="green"/> 
<polygon  points="278.579 118.579
278.579 133.579
298.579 133.579
298.579 118.579
" fill="green"/> 
<polygon  points="298.579 118.579
298.579 133.579
318.579 133.579
318.579 118.579
" fill="green"/> 
<polygon  points="318.579 118.579
318.579 133.579
338.579 133.579
338.579 118.579
" fill="green"/> 
<polygon  points="58.5786 133.579
58.5786 148.579
78.5786 148.579
78.5786 133.579
" fill="green"/> 
<polygon  points="78.5786 133.579
78.5786 148.579
98.5786 148.579
98.5786 133.579
" fill="green"/> 
<polygon  points="98.5786 133.579
98.5786 148.579
118.579 148.579
118.579 133.579
" fill="green"/> 
<polygon  points="118.579 133.579
118.579 148.579
138.579 148.579
138.579 133.579
" fill="green"/> 
<polygon  points="138.579 133.579
138.579 148.579
158.579 148.579
158.579 133.579
" fill="green"/> 
<polygon  points="158.579 133.579
158.579 148.579
178.579 148.579
178.579 133.579
" fill="green"/> 
<polygon  points="178.579 133.579
178.579 148.579
198.579 148.579
198.579 133.579
" fill="green"/> 
<polygon  points="198.579 133.579
198.579 148.579
218.579 148.579
218.579 133.579
" fill="green"/> 
<polygon  points="218.579 133.579
218.579 148.579
238.579 148.579
238.579 133.579
" fill="green"/> 
<polygon  points="238.579 133.579
238.579 148.579
258.579 148.579
258.579 133.579
" fill="green"/> 
<polygon  points="258.579 133.579
258.579 148.579
278.579 148.579
278.579 133.579
" fill="green"/> 
<polygon  points="278.579 133.579
278.579 148.579
298.579 148.579
298.579 133.579
" fill="green"/> 
<polygon  points="298.579 133.579
298.579 148.579
318.579 148.579
318.579 133.579
" fill="green"/> 
<polygon  points="318.579 133.579
318.579 148.579
338.579 148.579
338.579 133.579
" fill="green"/> 
<polygon  points="58.5786 148.579
58.5786 163.579
78.5786 163.579
78.5786 148.579
" fill="green"/> 
<polygon  points="78.5786 148.579
78.5786 163.579
98.5786 163.579
98.5786 148.579
" fill="green"/> 
<polygon  points="98.5786 148.579
98.5786 163.579
118.579 163.579
118.579 148.579
" fill="green"/> 
<polygon  points="118.579 148.579
118.579 163.579
138.579 163.579
138.579 148.579
" fill="green"/> 
<polygon  points="138.579 148.579
138.579 163.579
158.579 163.579
158.579 148.579
" fill="green"/> 
<polygon  points="158.579 148.579
158.579 163.579
178.579 163.579
178.579 148.579
" fill="green"/> 
<polygon  points="178.579 148.579
178.579 163.579
198.579 163.579
198.579 148.579
" fill="green"/> 
<polygon  points="198.579 148.579
198.579 163.579
218.579 163.579
218.579 148.579
" fill="green"/> 
<polygon  points="218.579 148.579
218.579 163.579
238.579 163.579
238.579 148.579
" fill="green"/> 
<polygon  points="238.579 148.579
238.579 163.579
258.579 163.579
258.579 148.579
" fill="green"/> 
<polygon  points="258.579 148.579
258.579 163.579
278.579 163.579
278.579 148.579
" fill="green"/> 
<polygon  points="278.579 148.579
278.579 163.579
298.579 163.579
298.579 148.579
" fill="green"/> 
<polygon  points="298.579 148.579
298.579 163.579
318.579 163.579
318.579 148.579
" fill="green"/> 
<polygon  points="318.579 148.579
318.579 163.579
338.579 163.579
338.579 148.579
" fill="green"/> 
<polygon  points="58.5786 163.579
58.5786 178.579
78.5786 178.579
78.5786 163.579
" fill="green"/> 
<polygon  points="78.5786 163.579
78.5786 178.579
98.5786 178.579
98.5786 163.579
" fill="green"/> 
<polygon  points="98.5786 163.579
98.5786 178.579
118.579 178.579
118.579 163.579
" fill="green"/> 
<polygon  points="118.579 163.579
118.579 178.579
138.579 178.579
138.579 163.579
" fill="green"/> 
<polygon  points="138.579 163.579
138.579 178.579
158.579 178.579
158.579 163.579
" fill="green"/> 
<polygon  points="158.579 163.579
158.579 178.579
178.579 178.579
178.579 163.579
" fill="green"/> 
<polygon  points="178.579 163.579
178.579 178.579
198.579 178.579
198.579 163.579
" fill="green"/> 
<polygon  points="198.579 163.579
198.579 178.579
218.579 178.579
218.579 163.579
" fill="green"/> 
<polygon  points="218.579 163.579
218.579 178.579
238.579 178.579
238.579 163.579
" fill="green"/> 
<polygon  points="238.579 163.579
238.579 178.579
258.579 178.579
258.579 163.579
" fill="green"/> 
<polygon  points="258.579 163.579
258.579 178.579
278.579 178.579
278.579 163.579
" fill="green"/> 
<polygon  points="278.579 163.579
278.579 178.579
298.579 178.579
298.579 163.579
" fill="green"/> 
<polygon  points="298.579 163.579
298.579 178.579
318.579 178.579
318.579 163.579
" fill="green"/> 
<polygon  points="318.579 163.579
318.579 178.579
338.579 178.579
338.579 163.579
" fill="green"/> 
<polygon  points="58.5786 178.579
58.5786 193.579
78.5786 193.579
78.5786 178.579
" fill="green"/> 
<polygon  points="78.5786 178.579
78.5786 193.579
98.5786 193.579
98.5786 178.579
" fill="green"/> 
<polygon  points="98.5786 178.579
98.5786 193.579
118.579 193.579
118.579 178.579
" fill="green"/> 
<polygon  points="118.579 178.579
118.579 193.579
138.579 193.579
138.579 178.579
" fill="green"/> 
<polygon  points="138.579 178.579
138.579 193.579
158.579 193.579
158.579 178.579
" fill="green"/> 
<polygon  points="158.579 178.579
158.579 193.579
178.579 193.579
178.579 178.579
" fill="green"/> 
<polygon  points="178.579 178.579
178.579 193.579
198.579 193.579
198.579 178.579
" fill="green"/> 
<polygon  points="198.579 178.579
198.579 193.579
218.579 193.579
218.579 178.579
" fill="green"/> 
<polygon  points="218.579 178.579
218.579 193.579
238.579 193.579
238.579 178.579
" fill="green"/> 
<polygon  points="238.579 178.579
238.579 193.579
258.579 193.579
258.579 178.579
" fill="green"/> 
<polygon  points="258.579 178.579
258.579 193.579
278.579 193.579
278.579 178.579
" fill="green"/> 
<polygon  points="278.579 178.579
278.579 193.579
298.579 193.579
298.579 178.579
" fill="green"/> 
<polygon  points="298.579 178.579
298.579 193.579
318.579 193.579
318.579 178.579
" fill="green"/> 
<polygon  points="318.579 178.579
318.579 193.579
338.579 193.579
338.579 178.579
" fill="green"/> 
<polygon  points="58.5786 193.579
58.5786 208.579
78.5786 208.579
78.5786 193.579
" fill="green"/> 
<polygon  points="78.5786 193.579
78.5786 208.579
98.5786 208.579
98.5786 193.579
" fill="green"/> 
<polygon  points="98.5786 193.579
98.5786 208.579
118.579 208.579
118.579 193.579
" fill="green"/> 
<polygon  points="118.579 193.579
118.579 208.579
138.579 208.579
138.579 193.579
" fill="green"/> 
<polygon  points="138.579 193.579
138.579 208.579
158.579 208.579
158.579 193.579
" fill="green"/> 
<polygon  points="158.579 193.579
158.579 208.579
178.579 208.579
178.579 193.579
" fill="green"/> 
<polygon  points="178.579 193.579
178.579 208.579
198.579 208.579
198.579 193.579
" fill="green"/> 
<polygon  points="198.579 193.579
198.579 208.579
218.579 208.579
218.579 193.579
" fill="green"/> 
<polygon  points="218.579 193.579
218.579 208.579
238.579 208.579
238.579 193.579
" fill="green"/> 
<polygon  points="238.579 193.579
238.579 208.579
258.579 208.579
258.579 193.579
" fill="green"/> 
<polygon  points="258.579 193.579
258.579 208.579
278.579 208.579
278.579 193.579
" fill="green"/> 
<polygon  points="278.579 193.579
278.579 208.579
298.579 208.579
298.579 193.579
" fill="green"/> 
<polygon  points="298.579 193.579
298.579 208.579
318.579 208.579
318.579 193.579
" fill="green"/> 
<polygon  points="318.579 193.579
318.579 208.579
338.579 208.579
338.579 193.579
" fill="green"/> 
<polygon  points="58.5786 208.579
58.5786 223.579
78.5786 223.579
78.5786 208.579
" fill="green"/> 
<polygon  points="78.5786 208.579
78.5786 223.579
98.5786 223.579
98.5786 208.579
" fill="green"/> 
<polygon  points="98.5786 208.579
98.5786 223.579
118.579 223.579
118.579 208.579
" fill="green"/> 
<polygon  points="118.579 208.579
118.579 223.579
138.579 223.579
138.579 208.579
" fill="green"/> 
<polygon  points="138.579 208.579
138.579 223.579
158.579 223.579
158.579 208.579
" fill="green"/> 
<polygon  points="158.579 208.579
158.579 223.579
178.579 223.579
178.579 208.579
" fill="green"/> 
<polygon  points="178.579 208.579
178.579 223.579
198.579 223.579
198.579 208.579
" fill="green"/> 
<polygon  points="198.579 208.579
198.579 223.579
218.579 223.579
218.579 208.579
" fill="green"/> 
<polygon  points="218.579 208.579
218.579 223.579
238.579 223.579
238.579 208.579
" fill="green"/> 
<polygon  points="238.579 208.579
238.579 223.579
258.579 223.579
258.579 208.579
" fill="green"/> 
<polygon  points="258.579 208.579
258.579 223.579
278.579 223.579
278.579 208.579
" fill="green"/> 
<polygon  points="278.579 208.579
278.579 223.579
298.579 223.579
298.579 208.579
" fill="green"/> 
<polygon  points="298.579 208.579
298.579 223.579
318.579 223.579
318.579 208.579
" fill="green"/> 
<polygon  points="318.579 208.579
318.579 223.579
338.579 223.579
338.579 208.579
" fill="green"/> 
<polygon  points="58.5786 223.579
58.5786 238.579
78.5786 238.579
78.5786 223.579
" fill="green"/> 
<polygon  points="78.5786 223.579
78.5786 238.579
98.5786 238.579
98.5786 223.579
" fill="green"/> 
<polygon  points="98.5786 223.579
98.5786 238.579
118.579 238.579
118.579 223.579
" fill="green"/> 
<polygon  points="118.579 223.579
118.579 238.579
138.579 238.579
138.579 223.579
" fill="green"/> 
<polygon  points="138.579 223.579
138.579 238.579
158.579 238.579
158.579 223.579
" fill="green"/> 
<polygon  points="158.579 223.579
158.579 238.579
178.579 238.579
178.579 223.579
" fill="green"/> 
<polygon  points="178.579 223.579
178.579 238.579
198.579 238.579
198.579 223.579
" fill="green"/> 
<polygon  points="198.579 223.579
198.579 238.579
218.579 238.579
218.579 223.579
" fill="green"/> 
<polygon  points="218.579 223.579
218.579 238.579
238.579 238.579
238.579 223.579
" fill="green"/> 
<polygon  points="238.579 223.579
238.579 238.579
258.579 238.579
258.579 223.579
" fill="green"/> 
<polygon  points="258.579 223.579
258.579 238.579
278.579 238.579
278.579 223.579
" fill="green"/> 
<polygon  points="278.579 223.579
278.579 238.579
298.579 238.579
298.579 223.579
" fill="green"/> 
<polygon  points="298.579 223.579
298.579 238.579
318.579 238.579
318.579 223.579
" fill="green"/> 
<polygon  points="318.579 223.579
318.579 238.579
338.579 238.579
338.579 223.579
" fill="green"/> 
<polygon  points="58.5786 238.579
58.5786 253.579
78.5786 253.579
78.5786 238.579
" fill="green"/> 
<polygon  points="78.5786 238.579
78.5786 253.579
98.5786 253.579
98.5786 238.579
" fill="green"/> 
<polygon  points="98.5786 238.579
98.5786 253.579
118.579 253.579
118.579 238.579
" fill="green"/> 
<polygon  points="118.579 238.579
118.579 253.579
138.579 253.579
138.579 238.579
" fill="green"/> 
<polygon  points="138.579 238.579
138.579 253.579
158.579 253.579
158.579 238.579
" fill="green"/> 
<polygon  points="158.579 238.579
158.579 253.579
178.579 253.579
178.579 238.579
" fill="green"/> 
<polygon  points="178.579 238.579
178.579 253.579
198.579 253.579
198.579 238.579
" fill="green"/> 
<polygon  points="198.579 238.579
198.579 253.579
218.579 253.579
218.579 238.579
" fill="green"/> 
<polygon  points="218.579 238.579
218.579 253.579
238.579 253.579
238.579 238.579
" fill="green"/> 
<polygon  points="238.579 238.579
238.579 253.579
258.579 253.579
258.579 238.579
" fill="green"/> 
<polygon  points="258.579 238.579
258.579 253.579
278.579 253.579
278.579 238.579
" fill="green"/> 
<polygon  points="278.579 238.579
278.579 253.579
298.579 253.579
298.579 238.579
" fill="green"/> 
<polygon  points="298.579 238.579
298.579 253.579
318.579 253.579
318.579 238.579
" fill="green"/> 
<polygon  points="318.579 238.579
318.579 253.579
338.579 253.579
338.579 238.579
" fill="green"/> 
<polygon  points="58.5786 253.579
58.5786 268.579
78.5786 268.579
78.5786 253.579
" fill="green"/> 
<polygon  points="78.5786 253.579
78.5786 268.579
98.5786 268.579
98.5786 253.579
" fill="green"/> 
<polygon  points="98.5786 253.579
98.5786 268.579
118.579 268.579
118.579 253.579
" fill="green"/> 
<polygon  points="118.579 253.579
118.579 268.579
138.579 268.579
138.579 253.579
" fill="green"/> 
<polygon  points="138.579 253.579
138.579 268.579
158.579 268.579
158.579 253.579
" fill="green"/> 
<polygon  points="158.579 253.579
158.579 268.579
178.579 268.579
178.579 253.579
" fill="green"/> 
<polygon  points="178.579 253.579
178.579 268.579
198.579 268.579
198.579 253.579
" fill="green"/> 
<polygon  points="198.579 253.579
198.579 268.579
218.579 268.579
218.579 253.579
" fill="green"/> 
<polygon  points="218.579 253.579
218.579 268.579
238.579 268.579
238.579 253.579
" fill="green"/> 
<polygon  points="238.579 253.579
238.579 268.579
258.579 268.579
258.579 253.579
" fill="green"/> 
<polygon  points="258.579 253.579
258.579 268.579
278.579 268.579
278.579 253.579
" fill="green"/> 
<polygon  points="278.579 253.579
278.579 268.579
298.579 268.579
298.579 253.579
" fill="green"/> 
<polygon  points="298.579 253.579
298.579 268.579
318.579 268.579
318.579 253.579
" fill="green"/> 
<polygon  points="318.579 253.579
318.579 268.579
338.579 268.579
338.579 253.579
" fill="green"/> 
<polygon  points="58.5786 268.579
58.5786 283.579
78.5786 283.579
78.5786 268.579
" fill="green"/> 
<polygon  points="78.5786 268.579
78.5786 283.579
98.5786 283.579
98.5786 268.579
" fill="green"/> 
<polygon  points="98.5786 268.579
98.5786 283.579
118.579 283.579
118.579 268.579
" fill="green"/> 
<polygon  points="118.579 268.579
118.579 283.579
138.579 283.579
138.579 268.579
" fill="green"/> 
<polygon  points="138.579 268.579
138.579 283.579
158.579 283.579
158.579 268.579
" fill="green"/> 
<polygon  points="158.579 268.579
158.579 283.579
178.579 283.579
178.579 268.579
" fill="green"/> 
<polygon  points="178.579 268.579
178.579 283.579
198.579 283.579
198.579 268.579
" fill="green"/> 
<polygon  points="198.579 268.579
198.579 283.579
218.579 283.579
218.579 268.579
" fill="green"/> 
<polygon  points="218.579 268.579
218.579 283.579
238.579 283.579
238.579 268.579
" fill="green"/> 
<polygon  points="238.579 268.579
238.579 283.579
258.579 283.579
258.579 268.579
" fill="green"/> 
<polygon  points="258.579 268.579
258.579 283.579
278.579 283.579
278.579 268.579
" fill="green"/> 
<polygon  points="278.579 268.579
278.579 283.579
298.579 283.579
298.579 268.579
" fill="green"/> 
<polygon  points="298.579 268.579
298.579 283.579
318.579 283.579
318.579 268.579
" fill="green"/> 
<polygon  points="318.579 268.579
318.579 283.579
338.579 283.579
338.579 268.579
" fill="green"/> 
<polygon  points="58.5786 283.579
58.5786 298.579
78.5786 298.579
78.5786 283.579
" fill="green"/> 
<polygon  points="78.5786 283.579
78.5786 298.579
98.5786 298.579
98.5786 283.579
" fill="green"/> 
<polygon  points="98.5786 283.579
98.5786 298.579
118.579 298.579
118.579 283.579
" fill="green"/> 
<polygon  points="118.579 283.579
118.579 298.579
138.579 298.579
138.579 283.579
" fill="green"/> 
<polygon  points="138.579 283.579
138.579 298.579
158.579 298.579
158.579 283.579
" fill="green"/> 
<polygon  points="158.579 283.579
158.579 298.579
178.579 298.579
178.579 283.579
" fill="green"/> 
<polygon  points="178.579 283.579
178.579 298.579
198.579 298.579
198.579 283.579
" fill="green"/> 
<polygon  points="198.579 283.579
198.579 298.579
218.579 298.579
218.579 283.579
" fill="green"/> 
<polygon  points="218.579 283.579
218.579 298.579
238.579 298.579
238.579 283.579
" fill="green"/> 
<polygon  points="238.579 283.579
238.579 298.579
258.579 298.579
258.579 283.579
" fill="green"/> 
<polygon  points="258.579 283.579
258.579 298.579
278.579 298.579
278.579 283.579
" fill="green"/> 
<polygon  points="278.579 283.579
278.579 298.579
298.579 298.579
298.579 283.579
" fill="green"/> 
<polygon  points="298.579 283.579
298.579 298.579
318.579 298.579
318.579 283.579
" fill="green"/> 
<polygon  points="318.579 283.579
318.579 298.579
338.579 298.579
338.579 283.579
" fill="green"/> 
<polygon  points="58.5786 298.579
58.5786 313.579
78.5786 313.579
78.5786 298.579
" fill="green"/> 
<polygon  points="78.5786 298.579
78.5786 313.579
98.5786 313.579
98.5786 298.579
" fill="green"/> 
<polygon  points="98.5786 298.579
98.5786 313.579
118.579 313.579
118.579 298.579
" fill="green"/> 
<polygon  points="118.579 298.579
118.579 313.579
138.579 313.579
138.579 298.579
" fill="green"/> 
<polygon  points="138.579 298.579
138.579 313.579
158.579 313.579
158.579 298.579
" fill="green"/> 
<polygon  points="158.579 298.579
158.579 313.579
178.579 313.579
178.579 298.579
" fill="green"/> 
<polygon  points="178.579 298.579
178.579 313.579
198.579 313.579
198.579 298.579
" fill="green"/> 
<polygon  points="198.579 298.579
198.579 313.579
218.579 313.579
218.579 298.579
" fill="green"/> 
<polygon  points="218.579 298.579
218.579 313.579
238.579 313.579
238.579 298.579
" fill="green"/> 
<polygon  points="238.579 298.579
238.579 313.579
258.579 313.579
258.579 298.579
" fill="green"/> 
<polygon  points="258.579 298.579
258.579 313.579
278.579 313.579
278.579 298.579
" fill="green"/> 
<polygon  points="278.579 298.579
278.579 313.579
298.579 313.579
298.579 298.579
" fill="green"/> 
<polygon  points="298.579 298.579
298.579 313.579
318.579 313.579
318.579 298.579
" fill="green"/> 
<polygon  points="318.579 298.579
318.579 313.579
338.579 313.579
338.579 298.579
" fill="green"/> 
<polygon  points="58.5786 313.579
58.5786 328.579
78.5786 328.579
78.5786 313.579
" fill="green"/> 
<polygon  points="78.5786 313.579
78.5786 328.579
98.5786 328.579
98.5786 313.579
" fill="green"/> 
<polygon  points="98.5786 313.579
98.5786 328.579
118.579 328.579
118.579 313.579
" fill="green"/> 
<polygon  points="118.579 313.579
118.579 328.579
138.579 328.579
138.579 313.579
" fill="green"/> 
<polygon  points="138.579 313.579
138.579 328.579
158.579 328.579
158.579 313.579
" fill="green"/> 
<polygon  points="158.579 313.579
158.579 328.579
178.579 328.579
178.579 313.579
" fill="green"/> 
<polygon  points="178.579 313.579
178.579 328.579
198.579 328.579
198.579 313.579
" fill="green"/> 
<polygon  points="198.579 313.579
198.579 328.579
218.579 328.579
218.579 313.579
" fill="green"/> 
<polygon  points="218.579 313.579
218.579 328.579
238.579 328.579
238.579 313.579
" fill="green"/> 
<polygon  points="238.579 313.579
238.579 328.579
258.579 328.579
258.579 313.579
" fill="green"/> 
<polygon  points="258.579 313.579
258.579 328.579
278.579 328.579
278.579 313.579
" fill="green"/> 
<polygon  points="278.579 313.579
278.579 328.579
298.579 328.579
298.579 313.579
" fill="green"/> 
<polygon  points="298.579 313.579
298.579 328.579
318.579 328.579
318.579 313.579
" fill="green"/> 
<polygon  points="318.579 313.579
318.579 328.579
338.579 328.579
338.579 313.579
" fill="green"/> 
 </svg> 
