<svg version="1.1" baseProfile="full" width="100%" height="100%" xmlns="http://www.w3.org/2000/svg"> 
 <rect width="425" height="250" fill="red" /> 
 <rect x="0" y="0" width="45" height="30" fill="green" />
 <rect x="45" y="0" width="45" height="30" fill="green" />
 <rect x="90" y="0" width="45" height="30" fill="green" />
 <rect x="135" y="0" width="45" height="30" fill="green" />
 <rect x="180" y="0" width="45" height="30" fill="green" />
 <rect x="225" y="0" width="45" height="30" fill="green" />
 <rect x="270" y="0" width="45" height="30" fill="green" />
 <rect x="315" y="0" width="45" height="30" fill="green" />
 <rect x="360" y="0" width="45" height="30" fill="green" />
 <rect x="0" y="30" width="45" height="30" fill="green" />
 <rect x="45" y="30" width="45" height="30" fill="green" />
 <rect x="90" y="30" width="45" height="30" fill="green" />
 <rect x="135" y="30" width="45" height="30" fill="green" />
 <rect x="180" y="30" width="45" height="30" fill="green" />
 <rect x="225" y="30" width="45" height="30" fill="green" />
 <rect x="270" y="30" width="45" height="30" fill="green" />
 <rect x="315" y="30" width="45" height="30" fill="green" />
 <rect x="360" y="30" width="45" height="30" fill="green" />
 <rect x="0" y="60" width="45" height="30" fill="green" />
 <rect x="45" y="60" width="45" height="30" fill="green" />
 <rect x="90" y="60" width="45" height="30" fill="green" />
 <rect x="135" y="60" width="45" height="30" fill="green" />
 <rect x="180" y="60" width="45" height="30" fill="green" />
 <rect x="225" y="60" width="45" height="30" fill="green" />
 <rect x="270" y="60" width="45" height="30" fill="green" />
 <rect x="315" y="60" width="45" height="30" fill="green" />
 <rect x="360" y="60" width="45" height="30" fill="green" />
 <rect x="0" y="90" width="45" height="30" fill="green" />
 <rect x="45" y="90" width="45" height="30" fill="green" />
 <rect x="90" y="90" width="45" height="30" fill="green" />
 <rect x="135" y="90" width="45" height="30" fill="green" />
 <rect x="180" y="90" width="45" height="30" fill="green" />
 <rect x="225" y="90" width="45" height="30" fill="green" />
 <rect x="270" y="90" width="45" height="30" fill="green" />
 <rect x="315" y="90" width="45" height="30" fill="green" />
 <rect x="360" y="90" width="45" height="30" fill="green" />
 <rect x="0" y="120" width="45" height="30" fill="green" />
 <rect x="45" y="120" width="45" height="30" fill="green" />
 <rect x="90" y="120" width="45" height="30" fill="green" />
 <rect x="135" y="120" width="45" height="30" fill="green" />
 <rect x="180" y="120" width="45" height="30" fill="green" />
 <rect x="225" y="120" width="45" height="30" fill="green" />
 <rect x="270" y="120" width="45" height="30" fill="green" />
 <rect x="315" y="120" width="45" height="30" fill="green" />
 <rect x="360" y="120" width="45" height="30" fill="green" />
 <rect x="0" y="150" width="45" height="30" fill="green" />
 <rect x="45" y="150" width="45" height="30" fill="green" />
 <rect x="90" y="150" width="45" height="30" fill="green" />
 <rect x="135" y="150" width="45" height="30" fill="green" />
 <rect x="180" y="150" width="45" height="30" fill="green" />
 <rect x="225" y="150" width="45" height="30" fill="green" />
 <rect x="270" y="150" width="45" height="30" fill="green" />
 <rect x="315" y="150" width="45" height="30" fill="green" />
 <rect x="360" y="150" width="45" height="30" fill="green" />
 <rect x="0" y="180" width="45" height="30" fill="green" />
 <rect x="45" y="180" width="45" height="30" fill="green" />
 <rect x="90" y="180" width="45" height="30" fill="green" />
 <rect x="135" y="180" width="45" height="30" fill="green" />
 <rect x="180" y="180" width="45" height="30" fill="green" />
 <rect x="225" y="180" width="45" height="30" fill="green" />
 <rect x="270" y="180" width="45" height="30" fill="green" />
 <rect x="315" y="180" width="45" height="30" fill="green" />
 <rect x="360" y="180" width="45" height="30" fill="green" />
 <rect x="0" y="210" width="45" height="30" fill="green" />
 <rect x="45" y="210" width="45" height="30" fill="green" />
 <rect x="90" y="210" width="45" height="30" fill="green" />
 <rect x="135" y="210" width="45" height="30" fill="green" />
 <rect x="180" y="210" width="45" height="30" fill="green" />
 <rect x="225" y="210" width="45" height="30" fill="green" />
 <rect x="270" y="210" width="45" height="30" fill="green" />
 <rect x="315" y="210" width="45" height="30" fill="green" />
 <rect x="360" y="210" width="45" height="30" fill="green" />
 </svg> 
