<svg version="1.1" baseProfile="full" width="100%" height="100%" xmlns="http://www.w3.org/2000/svg"> 
 <rect width="280" height="120" fill="red" /> 
 <circle cx="12" cy="12" r="12" fill="green" /> 
 <circle cx="36" cy="12" r="12" fill="green" /> 
 <circle cx="60" cy="12" r="12" fill="green" /> 
 <circle cx="84" cy="12" r="12" fill="green" /> 
 <circle cx="108" cy="12" r="12" fill="green" /> 
 <circle cx="132" cy="12" r="12" fill="green" /> 
 <circle cx="156" cy="12" r="12" fill="green" /> 
 <circle cx="180" cy="12" r="12" fill="green" /> 
 <circle cx="204" cy="12" r="12" fill="green" /> 
 <circle cx="228" cy="12" r="12" fill="green" /> 
 <circle cx="252" cy="12" r="12" fill="green" /> 
 <circle cx="12" cy="36" r="12" fill="green" /> 
 <circle cx="36" cy="36" r="12" fill="green" /> 
 <circle cx="60" cy="36" r="12" fill="green" /> 
 <circle cx="84" cy="36" r="12" fill="green" /> 
 <circle cx="108" cy="36" r="12" fill="green" /> 
 <circle cx="132" cy="36" r="12" fill="green" /> 
 <circle cx="156" cy="36" r="12" fill="green" /> 
 <circle cx="180" cy="36" r="12" fill="green" /> 
 <circle cx="204" cy="36" r="12" fill="green" /> 
 <circle cx="228" cy="36" r="12" fill="green" /> 
 <circle cx="252" cy="36" r="12" fill="green" /> 
 <circle cx="12" cy="60" r="12" fill="green" /> 
 <circle cx="36" cy="60" r="12" fill="green" /> 
 <circle cx="60" cy="60" r="12" fill="green" /> 
 <circle cx="84" cy="60" r="12" fill="green" /> 
 <circle cx="108" cy="60" r="12" fill="green" /> 
 <circle cx="132" cy="60" r="12" fill="green" /> 
 <circle cx="156" cy="60" r="12" fill="green" /> 
 <circle cx="180" cy="60" r="12" fill="green" /> 
 <circle cx="204" cy="60" r="12" fill="green" /> 
 <circle cx="228" cy="60" r="12" fill="green" /> 
 <circle cx="252" cy="60" r="12" fill="green" /> 
 <circle cx="12" cy="84" r="12" fill="green" /> 
 <circle cx="36" cy="84" r="12" fill="green" /> 
 <circle cx="60" cy="84" r="12" fill="green" /> 
 <circle cx="84" cy="84" r="12" fill="green" /> 
 <circle cx="108" cy="84" r="12" fill="green" /> 
 <circle cx="132" cy="84" r="12" fill="green" /> 
 <circle cx="156" cy="84" r="12" fill="green" /> 
 <circle cx="180" cy="84" r="12" fill="green" /> 
 <circle cx="204" cy="84" r="12" fill="green" /> 
 <circle cx="228" cy="84" r="12" fill="green" /> 
 <circle cx="252" cy="84" r="12" fill="green" /> 
 <circle cx="12" cy="108" r="12" fill="green" /> 
 <circle cx="36" cy="108" r="12" fill="green" /> 
 <circle cx="60" cy="108" r="12" fill="green" /> 
 <circle cx="84" cy="108" r="12" fill="green" /> 
 <circle cx="108" cy="108" r="12" fill="green" /> 
 <circle cx="132" cy="108" r="12" fill="green" /> 
 <circle cx="156" cy="108" r="12" fill="green" /> 
 <circle cx="180" cy="108" r="12" fill="green" /> 
 <circle cx="204" cy="108" r="12" fill="green" /> 
 <circle cx="228" cy="108" r="12" fill="green" /> 
 <circle cx="252" cy="108" r="12" fill="green" /> 
 </svg> 
