<svg version="1.1" baseProfile="full" width="100%" height="100%" xmlns="http://www.w3.org/2000/svg"> <polygon  points="200 0 0 346.41 400 346.41" fill="red"/> 
 <circle cx="198.453" cy="36.4102" r="10" fill="green" /> 
 <circle cx="186.906" cy="56.4102" r="10" fill="green" /> 
 <circle cx="206.906" cy="56.4102" r="10" fill="green" /> 
 <circle cx="175.359" cy="76.4102" r="10" fill="green" /> 
 <circle cx="195.359" cy="76.4102" r="10" fill="green" /> 
 <circle cx="215.359" cy="76.4102" r="10" fill="green" /> 
 <circle cx="163.812" cy="96.4102" r="10" fill="green" /> 
 <circle cx="183.812" cy="96.4102" r="10" fill="green" /> 
 <circle cx="203.812" cy="96.4102" r="10" fill="green" /> 
 <circle cx="223.812" cy="96.4102" r="10" fill="green" /> 
 <circle cx="152.265" cy="116.41" r="10" fill="green" /> 
 <circle cx="172.265" cy="116.41" r="10" fill="green" /> 
 <circle cx="192.265" cy="116.41" r="10" fill="green" /> 
 <circle cx="212.265" cy="116.41" r="10" fill="green" /> 
 <circle cx="232.265" cy="116.41" r="10" fill="green" /> 
 <circle cx="252.265" cy="116.41" r="10" fill="green" /> 
 <circle cx="140.718" cy="136.41" r="10" fill="green" /> 
 <circle cx="160.718" cy="136.41" r="10" fill="green" /> 
 <circle cx="180.718" cy="136.41" r="10" fill="green" /> 
 <circle cx="200.718" cy="136.41" r="10" fill="green" /> 
 <circle cx="220.718" cy="136.41" r="10" fill="green" /> 
 <circle cx="240.718" cy="136.41" r="10" fill="green" /> 
 <circle cx="260.718" cy="136.41" r="10" fill="green" /> 
 <circle cx="129.171" cy="156.41" r="10" fill="green" /> 
 <circle cx="149.171" cy="156.41" r="10" fill="green" /> 
 <circle cx="169.171" cy="156.41" r="10" fill="green" /> 
 <circle cx="189.171" cy="156.41" r="10" fill="green" /> 
 <circle cx="209.171" cy="156.41" r="10" fill="green" /> 
 <circle cx="229.171" cy="156.41" r="10" fill="green" /> 
 <circle cx="249.171" cy="156.41" r="10" fill="green" /> 
 <circle cx="269.171" cy="156.41" r="10" fill="green" /> 
 <circle cx="117.624" cy="176.41" r="10" fill="green" /> 
 <circle cx="137.624" cy="176.41" r="10" fill="green" /> 
 <circle cx="157.624" cy="176.41" r="10" fill="green" /> 
 <circle cx="177.624" cy="176.41" r="10" fill="green" /> 
 <circle cx="197.624" cy="176.41" r="10" fill="green" /> 
 <circle cx="217.624" cy="176.41" r="10" fill="green" /> 
 <circle cx="237.624" cy="176.41" r="10" fill="green" /> 
 <circle cx="257.624" cy="176.41" r="10" fill="green" /> 
 <circle cx="277.624" cy="176.41" r="10" fill="green" /> 
 <circle cx="106.077" cy="196.41" r="10" fill="green" /> 
 <circle cx="126.077" cy="196.41" r="10" fill="green" /> 
 <circle cx="146.077" cy="196.41" r="10" fill="green" /> 
 <circle cx="166.077" cy="196.41" r="10" fill="green" /> 
 <circle cx="186.077" cy="196.41" r="10" fill="green" /> 
 <circle cx="206.077" cy="196.41" r="10" fill="green" /> 
 <circle cx="226.077" cy="196.41" r="10" fill="green" /> 
 <circle cx="246.077" cy="196.41" r="10" fill="green" /> 
 <circle cx="266.077" cy="196.41" r="10" fill="green" /> 
 <circle cx="286.077" cy="196.41" r="10" fill="green" /> 
 <circle cx="94.5299" cy="216.41" r="10" fill="green" /> 
 <circle cx="114.53" cy="216.41" r="10" fill="green" /> 
 <circle cx="134.53" cy="216.41" r="10" fill="green" /> 
 <circle cx="154.53" cy="216.41" r="10" fill="green" /> 
 <circle cx="174.53" cy="216.41" r="10" fill="green" /> 
 <circle cx="194.53" cy="216.41" r="10" fill="green" /> 
 <circle cx="214.53" cy="216.41" r="10" fill="green" /> 
 <circle cx="234.53" cy="216.41" r="10" fill="green" /> 
 <circle cx="254.53" cy="216.41" r="10" fill="green" /> 
 <circle cx="274.53" cy="216.41" r="10" fill="green" /> 
 <circle cx="294.53" cy="216.41" r="10" fill="green" /> 
 <circle cx="82.9829" cy="236.41" r="10" fill="green" /> 
 <circle cx="102.983" cy="236.41" r="10" fill="green" /> 
 <circle cx="122.983" cy="236.41" r="10" fill="green" /> 
 <circle cx="142.983" cy="236.41" r="10" fill="green" /> 
 <circle cx="162.983" cy="236.41" r="10" fill="green" /> 
 <circle cx="182.983" cy="236.41" r="10" fill="green" /> 
 <circle cx="202.983" cy="236.41" r="10" fill="green" /> 
 <circle cx="222.983" cy="236.41" r="10" fill="green" /> 
 <circle cx="242.983" cy="236.41" r="10" fill="green" /> 
 <circle cx="262.983" cy="236.41" r="10" fill="green" /> 
 <circle cx="282.983" cy="236.41" r="10" fill="green" /> 
 <circle cx="302.983" cy="236.41" r="10" fill="green" /> 
 <circle cx="322.983" cy="236.41" r="10" fill="green" /> 
 <circle cx="71.4359" cy="256.41" r="10" fill="green" /> 
 <circle cx="91.4359" cy="256.41" r="10" fill="green" /> 
 <circle cx="111.436" cy="256.41" r="10" fill="green" /> 
 <circle cx="131.436" cy="256.41" r="10" fill="green" /> 
 <circle cx="151.436" cy="256.41" r="10" fill="green" /> 
 <circle cx="171.436" cy="256.41" r="10" fill="green" /> 
 <circle cx="191.436" cy="256.41" r="10" fill="green" /> 
 <circle cx="211.436" cy="256.41" r="10" fill="green" /> 
 <circle cx="231.436" cy="256.41" r="10" fill="green" /> 
 <circle cx="251.436" cy="256.41" r="10" fill="green" /> 
 <circle cx="271.436" cy="256.41" r="10" fill="green" /> 
 <circle cx="291.436" cy="256.41" r="10" fill="green" /> 
 <circle cx="311.436" cy="256.41" r="10" fill="green" /> 
 <circle cx="331.436" cy="256.41" r="10" fill="green" /> 
 <circle cx="59.8889" cy="276.41" r="10" fill="green" /> 
 <circle cx="79.8889" cy="276.41" r="10" fill="green" /> 
 <circle cx="99.8889" cy="276.41" r="10" fill="green" /> 
 <circle cx="119.889" cy="276.41" r="10" fill="green" /> 
 <circle cx="139.889" cy="276.41" r="10" fill="green" /> 
 <circle cx="159.889" cy="276.41" r="10" fill="green" /> 
 <circle cx="179.889" cy="276.41" r="10" fill="green" /> 
 <circle cx="199.889" cy="276.41" r="10" fill="green" /> 
 <circle cx="219.889" cy="276.41" r="10" fill="green" /> 
 <circle cx="239.889" cy="276.41" r="10" fill="green" /> 
 <circle cx="259.889" cy="276.41" r="10" fill="green" /> 
 <circle cx="279.889" cy="276.41" r="10" fill="green" /> 
 <circle cx="299.889" cy="276.41" r="10" fill="green" /> 
 <circle cx="319.889" cy="276.41" r="10" fill="green" /> 
 <circle cx="339.889" cy="276.41" r="10" fill="green" /> 
 <circle cx="48.3419" cy="296.41" r="10" fill="green" /> 
 <circle cx="68.3419" cy="296.41" r="10" fill="green" /> 
 <circle cx="88.3419" cy="296.41" r="10" fill="green" /> 
 <circle cx="108.342" cy="296.41" r="10" fill="green" /> 
 <circle cx="128.342" cy="296.41" r="10" fill="green" /> 
 <circle cx="148.342" cy="296.41" r="10" fill="green" /> 
 <circle cx="168.342" cy="296.41" r="10" fill="green" /> 
 <circle cx="188.342" cy="296.41" r="10" fill="green" /> 
 <circle cx="208.342" cy="296.41" r="10" fill="green" /> 
 <circle cx="228.342" cy="296.41" r="10" fill="green" /> 
 <circle cx="248.342" cy="296.41" r="10" fill="green" /> 
 <circle cx="268.342" cy="296.41" r="10" fill="green" /> 
 <circle cx="288.342" cy="296.41" r="10" fill="green" /> 
 <circle cx="308.342" cy="296.41" r="10" fill="green" /> 
 <circle cx="328.342" cy="296.41" r="10" fill="green" /> 
 <circle cx="348.342" cy="296.41" r="10" fill="green" /> 
 <circle cx="36.7949" cy="316.41" r="10" fill="green" /> 
 <circle cx="56.7949" cy="316.41" r="10" fill="green" /> 
 <circle cx="76.7949" cy="316.41" r="10" fill="green" /> 
 <circle cx="96.7949" cy="316.41" r="10" fill="green" /> 
 <circle cx="116.795" cy="316.41" r="10" fill="green" /> 
 <circle cx="136.795" cy="316.41" r="10" fill="green" /> 
 <circle cx="156.795" cy="316.41" r="10" fill="green" /> 
 <circle cx="176.795" cy="316.41" r="10" fill="green" /> 
 <circle cx="196.795" cy="316.41" r="10" fill="green" /> 
 <circle cx="216.795" cy="316.41" r="10" fill="green" /> 
 <circle cx="236.795" cy="316.41" r="10" fill="green" /> 
 <circle cx="256.795" cy="316.41" r="10" fill="green" /> 
 <circle cx="276.795" cy="316.41" r="10" fill="green" /> 
 <circle cx="296.795" cy="316.41" r="10" fill="green" /> 
 <circle cx="316.795" cy="316.41" r="10" fill="green" /> 
 <circle cx="336.795" cy="316.41" r="10" fill="green" /> 
 <circle cx="356.795" cy="316.41" r="10" fill="green" /> 
 <circle cx="25.2479" cy="336.41" r="10" fill="green" /> 
 <circle cx="45.2479" cy="336.41" r="10" fill="green" /> 
 <circle cx="65.2479" cy="336.41" r="10" fill="green" /> 
 <circle cx="85.2479" cy="336.41" r="10" fill="green" /> 
 <circle cx="105.248" cy="336.41" r="10" fill="green" /> 
 <circle cx="125.248" cy="336.41" r="10" fill="green" /> 
 <circle cx="145.248" cy="336.41" r="10" fill="green" /> 
 <circle cx="165.248" cy="336.41" r="10" fill="green" /> 
 <circle cx="185.248" cy="336.41" r="10" fill="green" /> 
 <circle cx="205.248" cy="336.41" r="10" fill="green" /> 
 <circle cx="225.248" cy="336.41" r="10" fill="green" /> 
 <circle cx="245.248" cy="336.41" r="10" fill="green" /> 
 <circle cx="265.248" cy="336.41" r="10" fill="green" /> 
 <circle cx="285.248" cy="336.41" r="10" fill="green" /> 
 <circle cx="305.248" cy="336.41" r="10" fill="green" /> 
 <circle cx="325.248" cy="336.41" r="10" fill="green" /> 
 <circle cx="345.248" cy="336.41" r="10" fill="green" /> 
 <circle cx="365.248" cy="336.41" r="10" fill="green" /> 
 </svg> 
