<svg version="1.1" baseProfile="full" width="100%" height="100%" xmlns="http://www.w3.org/2000/svg">  <circle cx="400" cy="400" r="400" fill="red" /> 
 <circle cx="400" cy="400" r="10" fill="green" /> <circle cx="400" cy="420" r="10" fill="green" transform="rotate(60,400,400)"/> 
 <circle cx="400" cy="420" r="10" fill="green" transform="rotate(120,400,400)"/> 
 <circle cx="400" cy="420" r="10" fill="green" transform="rotate(180,400,400)"/> 
 <circle cx="400" cy="420" r="10" fill="green" transform="rotate(240,400,400)"/> 
 <circle cx="400" cy="420" r="10" fill="green" transform="rotate(300,400,400)"/> 
 <circle cx="400" cy="420" r="10" fill="green" transform="rotate(360,400,400)"/> 
 <circle cx="388.453" cy="440" r="10" fill="green" transform="rotate(60,400,400)"/> 
 <circle cx="388.453" cy="440" r="10" fill="green" transform="rotate(120,400,400)"/> 
 <circle cx="388.453" cy="440" r="10" fill="green" transform="rotate(180,400,400)"/> 
 <circle cx="388.453" cy="440" r="10" fill="green" transform="rotate(240,400,400)"/> 
 <circle cx="388.453" cy="440" r="10" fill="green" transform="rotate(300,400,400)"/> 
 <circle cx="388.453" cy="440" r="10" fill="green" transform="rotate(360,400,400)"/> 
 <circle cx="411.547" cy="440" r="10" fill="green" transform="rotate(60,400,400)"/> 
 <circle cx="411.547" cy="440" r="10" fill="green" transform="rotate(120,400,400)"/> 
 <circle cx="411.547" cy="440" r="10" fill="green" transform="rotate(180,400,400)"/> 
 <circle cx="411.547" cy="440" r="10" fill="green" transform="rotate(240,400,400)"/> 
 <circle cx="411.547" cy="440" r="10" fill="green" transform="rotate(300,400,400)"/> 
 <circle cx="411.547" cy="440" r="10" fill="green" transform="rotate(360,400,400)"/> 
 <circle cx="376.906" cy="460" r="10" fill="green" transform="rotate(60,400,400)"/> 
 <circle cx="376.906" cy="460" r="10" fill="green" transform="rotate(120,400,400)"/> 
 <circle cx="376.906" cy="460" r="10" fill="green" transform="rotate(180,400,400)"/> 
 <circle cx="376.906" cy="460" r="10" fill="green" transform="rotate(240,400,400)"/> 
 <circle cx="376.906" cy="460" r="10" fill="green" transform="rotate(300,400,400)"/> 
 <circle cx="376.906" cy="460" r="10" fill="green" transform="rotate(360,400,400)"/> 
 <circle cx="400" cy="460" r="10" fill="green" transform="rotate(60,400,400)"/> 
 <circle cx="400" cy="460" r="10" fill="green" transform="rotate(120,400,400)"/> 
 <circle cx="400" cy="460" r="10" fill="green" transform="rotate(180,400,400)"/> 
 <circle cx="400" cy="460" r="10" fill="green" transform="rotate(240,400,400)"/> 
 <circle cx="400" cy="460" r="10" fill="green" transform="rotate(300,400,400)"/> 
 <circle cx="400" cy="460" r="10" fill="green" transform="rotate(360,400,400)"/> 
 <circle cx="423.094" cy="460" r="10" fill="green" transform="rotate(60,400,400)"/> 
 <circle cx="423.094" cy="460" r="10" fill="green" transform="rotate(120,400,400)"/> 
 <circle cx="423.094" cy="460" r="10" fill="green" transform="rotate(180,400,400)"/> 
 <circle cx="423.094" cy="460" r="10" fill="green" transform="rotate(240,400,400)"/> 
 <circle cx="423.094" cy="460" r="10" fill="green" transform="rotate(300,400,400)"/> 
 <circle cx="423.094" cy="460" r="10" fill="green" transform="rotate(360,400,400)"/> 
 <circle cx="365.359" cy="480" r="10" fill="green" transform="rotate(60,400,400)"/> 
 <circle cx="365.359" cy="480" r="10" fill="green" transform="rotate(120,400,400)"/> 
 <circle cx="365.359" cy="480" r="10" fill="green" transform="rotate(180,400,400)"/> 
 <circle cx="365.359" cy="480" r="10" fill="green" transform="rotate(240,400,400)"/> 
 <circle cx="365.359" cy="480" r="10" fill="green" transform="rotate(300,400,400)"/> 
 <circle cx="365.359" cy="480" r="10" fill="green" transform="rotate(360,400,400)"/> 
 <circle cx="388.453" cy="480" r="10" fill="green" transform="rotate(60,400,400)"/> 
 <circle cx="388.453" cy="480" r="10" fill="green" transform="rotate(120,400,400)"/> 
 <circle cx="388.453" cy="480" r="10" fill="green" transform="rotate(180,400,400)"/> 
 <circle cx="388.453" cy="480" r="10" fill="green" transform="rotate(240,400,400)"/> 
 <circle cx="388.453" cy="480" r="10" fill="green" transform="rotate(300,400,400)"/> 
 <circle cx="388.453" cy="480" r="10" fill="green" transform="rotate(360,400,400)"/> 
 <circle cx="411.547" cy="480" r="10" fill="green" transform="rotate(60,400,400)"/> 
 <circle cx="411.547" cy="480" r="10" fill="green" transform="rotate(120,400,400)"/> 
 <circle cx="411.547" cy="480" r="10" fill="green" transform="rotate(180,400,400)"/> 
 <circle cx="411.547" cy="480" r="10" fill="green" transform="rotate(240,400,400)"/> 
 <circle cx="411.547" cy="480" r="10" fill="green" transform="rotate(300,400,400)"/> 
 <circle cx="411.547" cy="480" r="10" fill="green" transform="rotate(360,400,400)"/> 
 <circle cx="434.641" cy="480" r="10" fill="green" transform="rotate(60,400,400)"/> 
 <circle cx="434.641" cy="480" r="10" fill="green" transform="rotate(120,400,400)"/> 
 <circle cx="434.641" cy="480" r="10" fill="green" transform="rotate(180,400,400)"/> 
 <circle cx="434.641" cy="480" r="10" fill="green" transform="rotate(240,400,400)"/> 
 <circle cx="434.641" cy="480" r="10" fill="green" transform="rotate(300,400,400)"/> 
 <circle cx="434.641" cy="480" r="10" fill="green" transform="rotate(360,400,400)"/> 
 <circle cx="353.812" cy="500" r="10" fill="green" transform="rotate(60,400,400)"/> 
 <circle cx="353.812" cy="500" r="10" fill="green" transform="rotate(120,400,400)"/> 
 <circle cx="353.812" cy="500" r="10" fill="green" transform="rotate(180,400,400)"/> 
 <circle cx="353.812" cy="500" r="10" fill="green" transform="rotate(240,400,400)"/> 
 <circle cx="353.812" cy="500" r="10" fill="green" transform="rotate(300,400,400)"/> 
 <circle cx="353.812" cy="500" r="10" fill="green" transform="rotate(360,400,400)"/> 
 <circle cx="376.906" cy="500" r="10" fill="green" transform="rotate(60,400,400)"/> 
 <circle cx="376.906" cy="500" r="10" fill="green" transform="rotate(120,400,400)"/> 
 <circle cx="376.906" cy="500" r="10" fill="green" transform="rotate(180,400,400)"/> 
 <circle cx="376.906" cy="500" r="10" fill="green" transform="rotate(240,400,400)"/> 
 <circle cx="376.906" cy="500" r="10" fill="green" transform="rotate(300,400,400)"/> 
 <circle cx="376.906" cy="500" r="10" fill="green" transform="rotate(360,400,400)"/> 
 <circle cx="400" cy="500" r="10" fill="green" transform="rotate(60,400,400)"/> 
 <circle cx="400" cy="500" r="10" fill="green" transform="rotate(120,400,400)"/> 
 <circle cx="400" cy="500" r="10" fill="green" transform="rotate(180,400,400)"/> 
 <circle cx="400" cy="500" r="10" fill="green" transform="rotate(240,400,400)"/> 
 <circle cx="400" cy="500" r="10" fill="green" transform="rotate(300,400,400)"/> 
 <circle cx="400" cy="500" r="10" fill="green" transform="rotate(360,400,400)"/> 
 <circle cx="423.094" cy="500" r="10" fill="green" transform="rotate(60,400,400)"/> 
 <circle cx="423.094" cy="500" r="10" fill="green" transform="rotate(120,400,400)"/> 
 <circle cx="423.094" cy="500" r="10" fill="green" transform="rotate(180,400,400)"/> 
 <circle cx="423.094" cy="500" r="10" fill="green" transform="rotate(240,400,400)"/> 
 <circle cx="423.094" cy="500" r="10" fill="green" transform="rotate(300,400,400)"/> 
 <circle cx="423.094" cy="500" r="10" fill="green" transform="rotate(360,400,400)"/> 
 <circle cx="446.188" cy="500" r="10" fill="green" transform="rotate(60,400,400)"/> 
 <circle cx="446.188" cy="500" r="10" fill="green" transform="rotate(120,400,400)"/> 
 <circle cx="446.188" cy="500" r="10" fill="green" transform="rotate(180,400,400)"/> 
 <circle cx="446.188" cy="500" r="10" fill="green" transform="rotate(240,400,400)"/> 
 <circle cx="446.188" cy="500" r="10" fill="green" transform="rotate(300,400,400)"/> 
 <circle cx="446.188" cy="500" r="10" fill="green" transform="rotate(360,400,400)"/> 
 <circle cx="342.265" cy="520" r="10" fill="green" transform="rotate(60,400,400)"/> 
 <circle cx="342.265" cy="520" r="10" fill="green" transform="rotate(120,400,400)"/> 
 <circle cx="342.265" cy="520" r="10" fill="green" transform="rotate(180,400,400)"/> 
 <circle cx="342.265" cy="520" r="10" fill="green" transform="rotate(240,400,400)"/> 
 <circle cx="342.265" cy="520" r="10" fill="green" transform="rotate(300,400,400)"/> 
 <circle cx="342.265" cy="520" r="10" fill="green" transform="rotate(360,400,400)"/> 
 <circle cx="365.359" cy="520" r="10" fill="green" transform="rotate(60,400,400)"/> 
 <circle cx="365.359" cy="520" r="10" fill="green" transform="rotate(120,400,400)"/> 
 <circle cx="365.359" cy="520" r="10" fill="green" transform="rotate(180,400,400)"/> 
 <circle cx="365.359" cy="520" r="10" fill="green" transform="rotate(240,400,400)"/> 
 <circle cx="365.359" cy="520" r="10" fill="green" transform="rotate(300,400,400)"/> 
 <circle cx="365.359" cy="520" r="10" fill="green" transform="rotate(360,400,400)"/> 
 <circle cx="388.453" cy="520" r="10" fill="green" transform="rotate(60,400,400)"/> 
 <circle cx="388.453" cy="520" r="10" fill="green" transform="rotate(120,400,400)"/> 
 <circle cx="388.453" cy="520" r="10" fill="green" transform="rotate(180,400,400)"/> 
 <circle cx="388.453" cy="520" r="10" fill="green" transform="rotate(240,400,400)"/> 
 <circle cx="388.453" cy="520" r="10" fill="green" transform="rotate(300,400,400)"/> 
 <circle cx="388.453" cy="520" r="10" fill="green" transform="rotate(360,400,400)"/> 
 <circle cx="411.547" cy="520" r="10" fill="green" transform="rotate(60,400,400)"/> 
 <circle cx="411.547" cy="520" r="10" fill="green" transform="rotate(120,400,400)"/> 
 <circle cx="411.547" cy="520" r="10" fill="green" transform="rotate(180,400,400)"/> 
 <circle cx="411.547" cy="520" r="10" fill="green" transform="rotate(240,400,400)"/> 
 <circle cx="411.547" cy="520" r="10" fill="green" transform="rotate(300,400,400)"/> 
 <circle cx="411.547" cy="520" r="10" fill="green" transform="rotate(360,400,400)"/> 
 <circle cx="434.641" cy="520" r="10" fill="green" transform="rotate(60,400,400)"/> 
 <circle cx="434.641" cy="520" r="10" fill="green" transform="rotate(120,400,400)"/> 
 <circle cx="434.641" cy="520" r="10" fill="green" transform="rotate(180,400,400)"/> 
 <circle cx="434.641" cy="520" r="10" fill="green" transform="rotate(240,400,400)"/> 
 <circle cx="434.641" cy="520" r="10" fill="green" transform="rotate(300,400,400)"/> 
 <circle cx="434.641" cy="520" r="10" fill="green" transform="rotate(360,400,400)"/> 
 <circle cx="457.735" cy="520" r="10" fill="green" transform="rotate(60,400,400)"/> 
 <circle cx="457.735" cy="520" r="10" fill="green" transform="rotate(120,400,400)"/> 
 <circle cx="457.735" cy="520" r="10" fill="green" transform="rotate(180,400,400)"/> 
 <circle cx="457.735" cy="520" r="10" fill="green" transform="rotate(240,400,400)"/> 
 <circle cx="457.735" cy="520" r="10" fill="green" transform="rotate(300,400,400)"/> 
 <circle cx="457.735" cy="520" r="10" fill="green" transform="rotate(360,400,400)"/> 
 <circle cx="330.718" cy="540" r="10" fill="green" transform="rotate(60,400,400)"/> 
 <circle cx="330.718" cy="540" r="10" fill="green" transform="rotate(120,400,400)"/> 
 <circle cx="330.718" cy="540" r="10" fill="green" transform="rotate(180,400,400)"/> 
 <circle cx="330.718" cy="540" r="10" fill="green" transform="rotate(240,400,400)"/> 
 <circle cx="330.718" cy="540" r="10" fill="green" transform="rotate(300,400,400)"/> 
 <circle cx="330.718" cy="540" r="10" fill="green" transform="rotate(360,400,400)"/> 
 <circle cx="353.812" cy="540" r="10" fill="green" transform="rotate(60,400,400)"/> 
 <circle cx="353.812" cy="540" r="10" fill="green" transform="rotate(120,400,400)"/> 
 <circle cx="353.812" cy="540" r="10" fill="green" transform="rotate(180,400,400)"/> 
 <circle cx="353.812" cy="540" r="10" fill="green" transform="rotate(240,400,400)"/> 
 <circle cx="353.812" cy="540" r="10" fill="green" transform="rotate(300,400,400)"/> 
 <circle cx="353.812" cy="540" r="10" fill="green" transform="rotate(360,400,400)"/> 
 <circle cx="376.906" cy="540" r="10" fill="green" transform="rotate(60,400,400)"/> 
 <circle cx="376.906" cy="540" r="10" fill="green" transform="rotate(120,400,400)"/> 
 <circle cx="376.906" cy="540" r="10" fill="green" transform="rotate(180,400,400)"/> 
 <circle cx="376.906" cy="540" r="10" fill="green" transform="rotate(240,400,400)"/> 
 <circle cx="376.906" cy="540" r="10" fill="green" transform="rotate(300,400,400)"/> 
 <circle cx="376.906" cy="540" r="10" fill="green" transform="rotate(360,400,400)"/> 
 <circle cx="400" cy="540" r="10" fill="green" transform="rotate(60,400,400)"/> 
 <circle cx="400" cy="540" r="10" fill="green" transform="rotate(120,400,400)"/> 
 <circle cx="400" cy="540" r="10" fill="green" transform="rotate(180,400,400)"/> 
 <circle cx="400" cy="540" r="10" fill="green" transform="rotate(240,400,400)"/> 
 <circle cx="400" cy="540" r="10" fill="green" transform="rotate(300,400,400)"/> 
 <circle cx="400" cy="540" r="10" fill="green" transform="rotate(360,400,400)"/> 
 <circle cx="423.094" cy="540" r="10" fill="green" transform="rotate(60,400,400)"/> 
 <circle cx="423.094" cy="540" r="10" fill="green" transform="rotate(120,400,400)"/> 
 <circle cx="423.094" cy="540" r="10" fill="green" transform="rotate(180,400,400)"/> 
 <circle cx="423.094" cy="540" r="10" fill="green" transform="rotate(240,400,400)"/> 
 <circle cx="423.094" cy="540" r="10" fill="green" transform="rotate(300,400,400)"/> 
 <circle cx="423.094" cy="540" r="10" fill="green" transform="rotate(360,400,400)"/> 
 <circle cx="446.188" cy="540" r="10" fill="green" transform="rotate(60,400,400)"/> 
 <circle cx="446.188" cy="540" r="10" fill="green" transform="rotate(120,400,400)"/> 
 <circle cx="446.188" cy="540" r="10" fill="green" transform="rotate(180,400,400)"/> 
 <circle cx="446.188" cy="540" r="10" fill="green" transform="rotate(240,400,400)"/> 
 <circle cx="446.188" cy="540" r="10" fill="green" transform="rotate(300,400,400)"/> 
 <circle cx="446.188" cy="540" r="10" fill="green" transform="rotate(360,400,400)"/> 
 <circle cx="469.282" cy="540" r="10" fill="green" transform="rotate(60,400,400)"/> 
 <circle cx="469.282" cy="540" r="10" fill="green" transform="rotate(120,400,400)"/> 
 <circle cx="469.282" cy="540" r="10" fill="green" transform="rotate(180,400,400)"/> 
 <circle cx="469.282" cy="540" r="10" fill="green" transform="rotate(240,400,400)"/> 
 <circle cx="469.282" cy="540" r="10" fill="green" transform="rotate(300,400,400)"/> 
 <circle cx="469.282" cy="540" r="10" fill="green" transform="rotate(360,400,400)"/> 
 <circle cx="319.171" cy="560" r="10" fill="green" transform="rotate(60,400,400)"/> 
 <circle cx="319.171" cy="560" r="10" fill="green" transform="rotate(120,400,400)"/> 
 <circle cx="319.171" cy="560" r="10" fill="green" transform="rotate(180,400,400)"/> 
 <circle cx="319.171" cy="560" r="10" fill="green" transform="rotate(240,400,400)"/> 
 <circle cx="319.171" cy="560" r="10" fill="green" transform="rotate(300,400,400)"/> 
 <circle cx="319.171" cy="560" r="10" fill="green" transform="rotate(360,400,400)"/> 
 <circle cx="342.265" cy="560" r="10" fill="green" transform="rotate(60,400,400)"/> 
 <circle cx="342.265" cy="560" r="10" fill="green" transform="rotate(120,400,400)"/> 
 <circle cx="342.265" cy="560" r="10" fill="green" transform="rotate(180,400,400)"/> 
 <circle cx="342.265" cy="560" r="10" fill="green" transform="rotate(240,400,400)"/> 
 <circle cx="342.265" cy="560" r="10" fill="green" transform="rotate(300,400,400)"/> 
 <circle cx="342.265" cy="560" r="10" fill="green" transform="rotate(360,400,400)"/> 
 <circle cx="365.359" cy="560" r="10" fill="green" transform="rotate(60,400,400)"/> 
 <circle cx="365.359" cy="560" r="10" fill="green" transform="rotate(120,400,400)"/> 
 <circle cx="365.359" cy="560" r="10" fill="green" transform="rotate(180,400,400)"/> 
 <circle cx="365.359" cy="560" r="10" fill="green" transform="rotate(240,400,400)"/> 
 <circle cx="365.359" cy="560" r="10" fill="green" transform="rotate(300,400,400)"/> 
 <circle cx="365.359" cy="560" r="10" fill="green" transform="rotate(360,400,400)"/> 
 <circle cx="388.453" cy="560" r="10" fill="green" transform="rotate(60,400,400)"/> 
 <circle cx="388.453" cy="560" r="10" fill="green" transform="rotate(120,400,400)"/> 
 <circle cx="388.453" cy="560" r="10" fill="green" transform="rotate(180,400,400)"/> 
 <circle cx="388.453" cy="560" r="10" fill="green" transform="rotate(240,400,400)"/> 
 <circle cx="388.453" cy="560" r="10" fill="green" transform="rotate(300,400,400)"/> 
 <circle cx="388.453" cy="560" r="10" fill="green" transform="rotate(360,400,400)"/> 
 <circle cx="411.547" cy="560" r="10" fill="green" transform="rotate(60,400,400)"/> 
 <circle cx="411.547" cy="560" r="10" fill="green" transform="rotate(120,400,400)"/> 
 <circle cx="411.547" cy="560" r="10" fill="green" transform="rotate(180,400,400)"/> 
 <circle cx="411.547" cy="560" r="10" fill="green" transform="rotate(240,400,400)"/> 
 <circle cx="411.547" cy="560" r="10" fill="green" transform="rotate(300,400,400)"/> 
 <circle cx="411.547" cy="560" r="10" fill="green" transform="rotate(360,400,400)"/> 
 <circle cx="434.641" cy="560" r="10" fill="green" transform="rotate(60,400,400)"/> 
 <circle cx="434.641" cy="560" r="10" fill="green" transform="rotate(120,400,400)"/> 
 <circle cx="434.641" cy="560" r="10" fill="green" transform="rotate(180,400,400)"/> 
 <circle cx="434.641" cy="560" r="10" fill="green" transform="rotate(240,400,400)"/> 
 <circle cx="434.641" cy="560" r="10" fill="green" transform="rotate(300,400,400)"/> 
 <circle cx="434.641" cy="560" r="10" fill="green" transform="rotate(360,400,400)"/> 
 <circle cx="457.735" cy="560" r="10" fill="green" transform="rotate(60,400,400)"/> 
 <circle cx="457.735" cy="560" r="10" fill="green" transform="rotate(120,400,400)"/> 
 <circle cx="457.735" cy="560" r="10" fill="green" transform="rotate(180,400,400)"/> 
 <circle cx="457.735" cy="560" r="10" fill="green" transform="rotate(240,400,400)"/> 
 <circle cx="457.735" cy="560" r="10" fill="green" transform="rotate(300,400,400)"/> 
 <circle cx="457.735" cy="560" r="10" fill="green" transform="rotate(360,400,400)"/> 
 <circle cx="480.829" cy="560" r="10" fill="green" transform="rotate(60,400,400)"/> 
 <circle cx="480.829" cy="560" r="10" fill="green" transform="rotate(120,400,400)"/> 
 <circle cx="480.829" cy="560" r="10" fill="green" transform="rotate(180,400,400)"/> 
 <circle cx="480.829" cy="560" r="10" fill="green" transform="rotate(240,400,400)"/> 
 <circle cx="480.829" cy="560" r="10" fill="green" transform="rotate(300,400,400)"/> 
 <circle cx="480.829" cy="560" r="10" fill="green" transform="rotate(360,400,400)"/> 
 <circle cx="307.624" cy="580" r="10" fill="green" transform="rotate(60,400,400)"/> 
 <circle cx="307.624" cy="580" r="10" fill="green" transform="rotate(120,400,400)"/> 
 <circle cx="307.624" cy="580" r="10" fill="green" transform="rotate(180,400,400)"/> 
 <circle cx="307.624" cy="580" r="10" fill="green" transform="rotate(240,400,400)"/> 
 <circle cx="307.624" cy="580" r="10" fill="green" transform="rotate(300,400,400)"/> 
 <circle cx="307.624" cy="580" r="10" fill="green" transform="rotate(360,400,400)"/> 
 <circle cx="330.718" cy="580" r="10" fill="green" transform="rotate(60,400,400)"/> 
 <circle cx="330.718" cy="580" r="10" fill="green" transform="rotate(120,400,400)"/> 
 <circle cx="330.718" cy="580" r="10" fill="green" transform="rotate(180,400,400)"/> 
 <circle cx="330.718" cy="580" r="10" fill="green" transform="rotate(240,400,400)"/> 
 <circle cx="330.718" cy="580" r="10" fill="green" transform="rotate(300,400,400)"/> 
 <circle cx="330.718" cy="580" r="10" fill="green" transform="rotate(360,400,400)"/> 
 <circle cx="353.812" cy="580" r="10" fill="green" transform="rotate(60,400,400)"/> 
 <circle cx="353.812" cy="580" r="10" fill="green" transform="rotate(120,400,400)"/> 
 <circle cx="353.812" cy="580" r="10" fill="green" transform="rotate(180,400,400)"/> 
 <circle cx="353.812" cy="580" r="10" fill="green" transform="rotate(240,400,400)"/> 
 <circle cx="353.812" cy="580" r="10" fill="green" transform="rotate(300,400,400)"/> 
 <circle cx="353.812" cy="580" r="10" fill="green" transform="rotate(360,400,400)"/> 
 <circle cx="376.906" cy="580" r="10" fill="green" transform="rotate(60,400,400)"/> 
 <circle cx="376.906" cy="580" r="10" fill="green" transform="rotate(120,400,400)"/> 
 <circle cx="376.906" cy="580" r="10" fill="green" transform="rotate(180,400,400)"/> 
 <circle cx="376.906" cy="580" r="10" fill="green" transform="rotate(240,400,400)"/> 
 <circle cx="376.906" cy="580" r="10" fill="green" transform="rotate(300,400,400)"/> 
 <circle cx="376.906" cy="580" r="10" fill="green" transform="rotate(360,400,400)"/> 
 <circle cx="400" cy="580" r="10" fill="green" transform="rotate(60,400,400)"/> 
 <circle cx="400" cy="580" r="10" fill="green" transform="rotate(120,400,400)"/> 
 <circle cx="400" cy="580" r="10" fill="green" transform="rotate(180,400,400)"/> 
 <circle cx="400" cy="580" r="10" fill="green" transform="rotate(240,400,400)"/> 
 <circle cx="400" cy="580" r="10" fill="green" transform="rotate(300,400,400)"/> 
 <circle cx="400" cy="580" r="10" fill="green" transform="rotate(360,400,400)"/> 
 <circle cx="423.094" cy="580" r="10" fill="green" transform="rotate(60,400,400)"/> 
 <circle cx="423.094" cy="580" r="10" fill="green" transform="rotate(120,400,400)"/> 
 <circle cx="423.094" cy="580" r="10" fill="green" transform="rotate(180,400,400)"/> 
 <circle cx="423.094" cy="580" r="10" fill="green" transform="rotate(240,400,400)"/> 
 <circle cx="423.094" cy="580" r="10" fill="green" transform="rotate(300,400,400)"/> 
 <circle cx="423.094" cy="580" r="10" fill="green" transform="rotate(360,400,400)"/> 
 <circle cx="446.188" cy="580" r="10" fill="green" transform="rotate(60,400,400)"/> 
 <circle cx="446.188" cy="580" r="10" fill="green" transform="rotate(120,400,400)"/> 
 <circle cx="446.188" cy="580" r="10" fill="green" transform="rotate(180,400,400)"/> 
 <circle cx="446.188" cy="580" r="10" fill="green" transform="rotate(240,400,400)"/> 
 <circle cx="446.188" cy="580" r="10" fill="green" transform="rotate(300,400,400)"/> 
 <circle cx="446.188" cy="580" r="10" fill="green" transform="rotate(360,400,400)"/> 
 <circle cx="469.282" cy="580" r="10" fill="green" transform="rotate(60,400,400)"/> 
 <circle cx="469.282" cy="580" r="10" fill="green" transform="rotate(120,400,400)"/> 
 <circle cx="469.282" cy="580" r="10" fill="green" transform="rotate(180,400,400)"/> 
 <circle cx="469.282" cy="580" r="10" fill="green" transform="rotate(240,400,400)"/> 
 <circle cx="469.282" cy="580" r="10" fill="green" transform="rotate(300,400,400)"/> 
 <circle cx="469.282" cy="580" r="10" fill="green" transform="rotate(360,400,400)"/> 
 <circle cx="492.376" cy="580" r="10" fill="green" transform="rotate(60,400,400)"/> 
 <circle cx="492.376" cy="580" r="10" fill="green" transform="rotate(120,400,400)"/> 
 <circle cx="492.376" cy="580" r="10" fill="green" transform="rotate(180,400,400)"/> 
 <circle cx="492.376" cy="580" r="10" fill="green" transform="rotate(240,400,400)"/> 
 <circle cx="492.376" cy="580" r="10" fill="green" transform="rotate(300,400,400)"/> 
 <circle cx="492.376" cy="580" r="10" fill="green" transform="rotate(360,400,400)"/> 
 <circle cx="296.077" cy="600" r="10" fill="green" transform="rotate(60,400,400)"/> 
 <circle cx="296.077" cy="600" r="10" fill="green" transform="rotate(120,400,400)"/> 
 <circle cx="296.077" cy="600" r="10" fill="green" transform="rotate(180,400,400)"/> 
 <circle cx="296.077" cy="600" r="10" fill="green" transform="rotate(240,400,400)"/> 
 <circle cx="296.077" cy="600" r="10" fill="green" transform="rotate(300,400,400)"/> 
 <circle cx="296.077" cy="600" r="10" fill="green" transform="rotate(360,400,400)"/> 
 <circle cx="319.171" cy="600" r="10" fill="green" transform="rotate(60,400,400)"/> 
 <circle cx="319.171" cy="600" r="10" fill="green" transform="rotate(120,400,400)"/> 
 <circle cx="319.171" cy="600" r="10" fill="green" transform="rotate(180,400,400)"/> 
 <circle cx="319.171" cy="600" r="10" fill="green" transform="rotate(240,400,400)"/> 
 <circle cx="319.171" cy="600" r="10" fill="green" transform="rotate(300,400,400)"/> 
 <circle cx="319.171" cy="600" r="10" fill="green" transform="rotate(360,400,400)"/> 
 <circle cx="342.265" cy="600" r="10" fill="green" transform="rotate(60,400,400)"/> 
 <circle cx="342.265" cy="600" r="10" fill="green" transform="rotate(120,400,400)"/> 
 <circle cx="342.265" cy="600" r="10" fill="green" transform="rotate(180,400,400)"/> 
 <circle cx="342.265" cy="600" r="10" fill="green" transform="rotate(240,400,400)"/> 
 <circle cx="342.265" cy="600" r="10" fill="green" transform="rotate(300,400,400)"/> 
 <circle cx="342.265" cy="600" r="10" fill="green" transform="rotate(360,400,400)"/> 
 <circle cx="365.359" cy="600" r="10" fill="green" transform="rotate(60,400,400)"/> 
 <circle cx="365.359" cy="600" r="10" fill="green" transform="rotate(120,400,400)"/> 
 <circle cx="365.359" cy="600" r="10" fill="green" transform="rotate(180,400,400)"/> 
 <circle cx="365.359" cy="600" r="10" fill="green" transform="rotate(240,400,400)"/> 
 <circle cx="365.359" cy="600" r="10" fill="green" transform="rotate(300,400,400)"/> 
 <circle cx="365.359" cy="600" r="10" fill="green" transform="rotate(360,400,400)"/> 
 <circle cx="388.453" cy="600" r="10" fill="green" transform="rotate(60,400,400)"/> 
 <circle cx="388.453" cy="600" r="10" fill="green" transform="rotate(120,400,400)"/> 
 <circle cx="388.453" cy="600" r="10" fill="green" transform="rotate(180,400,400)"/> 
 <circle cx="388.453" cy="600" r="10" fill="green" transform="rotate(240,400,400)"/> 
 <circle cx="388.453" cy="600" r="10" fill="green" transform="rotate(300,400,400)"/> 
 <circle cx="388.453" cy="600" r="10" fill="green" transform="rotate(360,400,400)"/> 
 <circle cx="411.547" cy="600" r="10" fill="green" transform="rotate(60,400,400)"/> 
 <circle cx="411.547" cy="600" r="10" fill="green" transform="rotate(120,400,400)"/> 
 <circle cx="411.547" cy="600" r="10" fill="green" transform="rotate(180,400,400)"/> 
 <circle cx="411.547" cy="600" r="10" fill="green" transform="rotate(240,400,400)"/> 
 <circle cx="411.547" cy="600" r="10" fill="green" transform="rotate(300,400,400)"/> 
 <circle cx="411.547" cy="600" r="10" fill="green" transform="rotate(360,400,400)"/> 
 <circle cx="434.641" cy="600" r="10" fill="green" transform="rotate(60,400,400)"/> 
 <circle cx="434.641" cy="600" r="10" fill="green" transform="rotate(120,400,400)"/> 
 <circle cx="434.641" cy="600" r="10" fill="green" transform="rotate(180,400,400)"/> 
 <circle cx="434.641" cy="600" r="10" fill="green" transform="rotate(240,400,400)"/> 
 <circle cx="434.641" cy="600" r="10" fill="green" transform="rotate(300,400,400)"/> 
 <circle cx="434.641" cy="600" r="10" fill="green" transform="rotate(360,400,400)"/> 
 <circle cx="457.735" cy="600" r="10" fill="green" transform="rotate(60,400,400)"/> 
 <circle cx="457.735" cy="600" r="10" fill="green" transform="rotate(120,400,400)"/> 
 <circle cx="457.735" cy="600" r="10" fill="green" transform="rotate(180,400,400)"/> 
 <circle cx="457.735" cy="600" r="10" fill="green" transform="rotate(240,400,400)"/> 
 <circle cx="457.735" cy="600" r="10" fill="green" transform="rotate(300,400,400)"/> 
 <circle cx="457.735" cy="600" r="10" fill="green" transform="rotate(360,400,400)"/> 
 <circle cx="480.829" cy="600" r="10" fill="green" transform="rotate(60,400,400)"/> 
 <circle cx="480.829" cy="600" r="10" fill="green" transform="rotate(120,400,400)"/> 
 <circle cx="480.829" cy="600" r="10" fill="green" transform="rotate(180,400,400)"/> 
 <circle cx="480.829" cy="600" r="10" fill="green" transform="rotate(240,400,400)"/> 
 <circle cx="480.829" cy="600" r="10" fill="green" transform="rotate(300,400,400)"/> 
 <circle cx="480.829" cy="600" r="10" fill="green" transform="rotate(360,400,400)"/> 
 <circle cx="503.923" cy="600" r="10" fill="green" transform="rotate(60,400,400)"/> 
 <circle cx="503.923" cy="600" r="10" fill="green" transform="rotate(120,400,400)"/> 
 <circle cx="503.923" cy="600" r="10" fill="green" transform="rotate(180,400,400)"/> 
 <circle cx="503.923" cy="600" r="10" fill="green" transform="rotate(240,400,400)"/> 
 <circle cx="503.923" cy="600" r="10" fill="green" transform="rotate(300,400,400)"/> 
 <circle cx="503.923" cy="600" r="10" fill="green" transform="rotate(360,400,400)"/> 
 <circle cx="284.53" cy="620" r="10" fill="green" transform="rotate(60,400,400)"/> 
 <circle cx="284.53" cy="620" r="10" fill="green" transform="rotate(120,400,400)"/> 
 <circle cx="284.53" cy="620" r="10" fill="green" transform="rotate(180,400,400)"/> 
 <circle cx="284.53" cy="620" r="10" fill="green" transform="rotate(240,400,400)"/> 
 <circle cx="284.53" cy="620" r="10" fill="green" transform="rotate(300,400,400)"/> 
 <circle cx="284.53" cy="620" r="10" fill="green" transform="rotate(360,400,400)"/> 
 <circle cx="307.624" cy="620" r="10" fill="green" transform="rotate(60,400,400)"/> 
 <circle cx="307.624" cy="620" r="10" fill="green" transform="rotate(120,400,400)"/> 
 <circle cx="307.624" cy="620" r="10" fill="green" transform="rotate(180,400,400)"/> 
 <circle cx="307.624" cy="620" r="10" fill="green" transform="rotate(240,400,400)"/> 
 <circle cx="307.624" cy="620" r="10" fill="green" transform="rotate(300,400,400)"/> 
 <circle cx="307.624" cy="620" r="10" fill="green" transform="rotate(360,400,400)"/> 
 <circle cx="330.718" cy="620" r="10" fill="green" transform="rotate(60,400,400)"/> 
 <circle cx="330.718" cy="620" r="10" fill="green" transform="rotate(120,400,400)"/> 
 <circle cx="330.718" cy="620" r="10" fill="green" transform="rotate(180,400,400)"/> 
 <circle cx="330.718" cy="620" r="10" fill="green" transform="rotate(240,400,400)"/> 
 <circle cx="330.718" cy="620" r="10" fill="green" transform="rotate(300,400,400)"/> 
 <circle cx="330.718" cy="620" r="10" fill="green" transform="rotate(360,400,400)"/> 
 <circle cx="353.812" cy="620" r="10" fill="green" transform="rotate(60,400,400)"/> 
 <circle cx="353.812" cy="620" r="10" fill="green" transform="rotate(120,400,400)"/> 
 <circle cx="353.812" cy="620" r="10" fill="green" transform="rotate(180,400,400)"/> 
 <circle cx="353.812" cy="620" r="10" fill="green" transform="rotate(240,400,400)"/> 
 <circle cx="353.812" cy="620" r="10" fill="green" transform="rotate(300,400,400)"/> 
 <circle cx="353.812" cy="620" r="10" fill="green" transform="rotate(360,400,400)"/> 
 <circle cx="376.906" cy="620" r="10" fill="green" transform="rotate(60,400,400)"/> 
 <circle cx="376.906" cy="620" r="10" fill="green" transform="rotate(120,400,400)"/> 
 <circle cx="376.906" cy="620" r="10" fill="green" transform="rotate(180,400,400)"/> 
 <circle cx="376.906" cy="620" r="10" fill="green" transform="rotate(240,400,400)"/> 
 <circle cx="376.906" cy="620" r="10" fill="green" transform="rotate(300,400,400)"/> 
 <circle cx="376.906" cy="620" r="10" fill="green" transform="rotate(360,400,400)"/> 
 <circle cx="400" cy="620" r="10" fill="green" transform="rotate(60,400,400)"/> 
 <circle cx="400" cy="620" r="10" fill="green" transform="rotate(120,400,400)"/> 
 <circle cx="400" cy="620" r="10" fill="green" transform="rotate(180,400,400)"/> 
 <circle cx="400" cy="620" r="10" fill="green" transform="rotate(240,400,400)"/> 
 <circle cx="400" cy="620" r="10" fill="green" transform="rotate(300,400,400)"/> 
 <circle cx="400" cy="620" r="10" fill="green" transform="rotate(360,400,400)"/> 
 <circle cx="423.094" cy="620" r="10" fill="green" transform="rotate(60,400,400)"/> 
 <circle cx="423.094" cy="620" r="10" fill="green" transform="rotate(120,400,400)"/> 
 <circle cx="423.094" cy="620" r="10" fill="green" transform="rotate(180,400,400)"/> 
 <circle cx="423.094" cy="620" r="10" fill="green" transform="rotate(240,400,400)"/> 
 <circle cx="423.094" cy="620" r="10" fill="green" transform="rotate(300,400,400)"/> 
 <circle cx="423.094" cy="620" r="10" fill="green" transform="rotate(360,400,400)"/> 
 <circle cx="446.188" cy="620" r="10" fill="green" transform="rotate(60,400,400)"/> 
 <circle cx="446.188" cy="620" r="10" fill="green" transform="rotate(120,400,400)"/> 
 <circle cx="446.188" cy="620" r="10" fill="green" transform="rotate(180,400,400)"/> 
 <circle cx="446.188" cy="620" r="10" fill="green" transform="rotate(240,400,400)"/> 
 <circle cx="446.188" cy="620" r="10" fill="green" transform="rotate(300,400,400)"/> 
 <circle cx="446.188" cy="620" r="10" fill="green" transform="rotate(360,400,400)"/> 
 <circle cx="469.282" cy="620" r="10" fill="green" transform="rotate(60,400,400)"/> 
 <circle cx="469.282" cy="620" r="10" fill="green" transform="rotate(120,400,400)"/> 
 <circle cx="469.282" cy="620" r="10" fill="green" transform="rotate(180,400,400)"/> 
 <circle cx="469.282" cy="620" r="10" fill="green" transform="rotate(240,400,400)"/> 
 <circle cx="469.282" cy="620" r="10" fill="green" transform="rotate(300,400,400)"/> 
 <circle cx="469.282" cy="620" r="10" fill="green" transform="rotate(360,400,400)"/> 
 <circle cx="492.376" cy="620" r="10" fill="green" transform="rotate(60,400,400)"/> 
 <circle cx="492.376" cy="620" r="10" fill="green" transform="rotate(120,400,400)"/> 
 <circle cx="492.376" cy="620" r="10" fill="green" transform="rotate(180,400,400)"/> 
 <circle cx="492.376" cy="620" r="10" fill="green" transform="rotate(240,400,400)"/> 
 <circle cx="492.376" cy="620" r="10" fill="green" transform="rotate(300,400,400)"/> 
 <circle cx="492.376" cy="620" r="10" fill="green" transform="rotate(360,400,400)"/> 
 <circle cx="515.47" cy="620" r="10" fill="green" transform="rotate(60,400,400)"/> 
 <circle cx="515.47" cy="620" r="10" fill="green" transform="rotate(120,400,400)"/> 
 <circle cx="515.47" cy="620" r="10" fill="green" transform="rotate(180,400,400)"/> 
 <circle cx="515.47" cy="620" r="10" fill="green" transform="rotate(240,400,400)"/> 
 <circle cx="515.47" cy="620" r="10" fill="green" transform="rotate(300,400,400)"/> 
 <circle cx="515.47" cy="620" r="10" fill="green" transform="rotate(360,400,400)"/> 
 <circle cx="272.983" cy="640" r="10" fill="green" transform="rotate(60,400,400)"/> 
 <circle cx="272.983" cy="640" r="10" fill="green" transform="rotate(120,400,400)"/> 
 <circle cx="272.983" cy="640" r="10" fill="green" transform="rotate(180,400,400)"/> 
 <circle cx="272.983" cy="640" r="10" fill="green" transform="rotate(240,400,400)"/> 
 <circle cx="272.983" cy="640" r="10" fill="green" transform="rotate(300,400,400)"/> 
 <circle cx="272.983" cy="640" r="10" fill="green" transform="rotate(360,400,400)"/> 
 <circle cx="296.077" cy="640" r="10" fill="green" transform="rotate(60,400,400)"/> 
 <circle cx="296.077" cy="640" r="10" fill="green" transform="rotate(120,400,400)"/> 
 <circle cx="296.077" cy="640" r="10" fill="green" transform="rotate(180,400,400)"/> 
 <circle cx="296.077" cy="640" r="10" fill="green" transform="rotate(240,400,400)"/> 
 <circle cx="296.077" cy="640" r="10" fill="green" transform="rotate(300,400,400)"/> 
 <circle cx="296.077" cy="640" r="10" fill="green" transform="rotate(360,400,400)"/> 
 <circle cx="319.171" cy="640" r="10" fill="green" transform="rotate(60,400,400)"/> 
 <circle cx="319.171" cy="640" r="10" fill="green" transform="rotate(120,400,400)"/> 
 <circle cx="319.171" cy="640" r="10" fill="green" transform="rotate(180,400,400)"/> 
 <circle cx="319.171" cy="640" r="10" fill="green" transform="rotate(240,400,400)"/> 
 <circle cx="319.171" cy="640" r="10" fill="green" transform="rotate(300,400,400)"/> 
 <circle cx="319.171" cy="640" r="10" fill="green" transform="rotate(360,400,400)"/> 
 <circle cx="342.265" cy="640" r="10" fill="green" transform="rotate(60,400,400)"/> 
 <circle cx="342.265" cy="640" r="10" fill="green" transform="rotate(120,400,400)"/> 
 <circle cx="342.265" cy="640" r="10" fill="green" transform="rotate(180,400,400)"/> 
 <circle cx="342.265" cy="640" r="10" fill="green" transform="rotate(240,400,400)"/> 
 <circle cx="342.265" cy="640" r="10" fill="green" transform="rotate(300,400,400)"/> 
 <circle cx="342.265" cy="640" r="10" fill="green" transform="rotate(360,400,400)"/> 
 <circle cx="365.359" cy="640" r="10" fill="green" transform="rotate(60,400,400)"/> 
 <circle cx="365.359" cy="640" r="10" fill="green" transform="rotate(120,400,400)"/> 
 <circle cx="365.359" cy="640" r="10" fill="green" transform="rotate(180,400,400)"/> 
 <circle cx="365.359" cy="640" r="10" fill="green" transform="rotate(240,400,400)"/> 
 <circle cx="365.359" cy="640" r="10" fill="green" transform="rotate(300,400,400)"/> 
 <circle cx="365.359" cy="640" r="10" fill="green" transform="rotate(360,400,400)"/> 
 <circle cx="388.453" cy="640" r="10" fill="green" transform="rotate(60,400,400)"/> 
 <circle cx="388.453" cy="640" r="10" fill="green" transform="rotate(120,400,400)"/> 
 <circle cx="388.453" cy="640" r="10" fill="green" transform="rotate(180,400,400)"/> 
 <circle cx="388.453" cy="640" r="10" fill="green" transform="rotate(240,400,400)"/> 
 <circle cx="388.453" cy="640" r="10" fill="green" transform="rotate(300,400,400)"/> 
 <circle cx="388.453" cy="640" r="10" fill="green" transform="rotate(360,400,400)"/> 
 <circle cx="411.547" cy="640" r="10" fill="green" transform="rotate(60,400,400)"/> 
 <circle cx="411.547" cy="640" r="10" fill="green" transform="rotate(120,400,400)"/> 
 <circle cx="411.547" cy="640" r="10" fill="green" transform="rotate(180,400,400)"/> 
 <circle cx="411.547" cy="640" r="10" fill="green" transform="rotate(240,400,400)"/> 
 <circle cx="411.547" cy="640" r="10" fill="green" transform="rotate(300,400,400)"/> 
 <circle cx="411.547" cy="640" r="10" fill="green" transform="rotate(360,400,400)"/> 
 <circle cx="434.641" cy="640" r="10" fill="green" transform="rotate(60,400,400)"/> 
 <circle cx="434.641" cy="640" r="10" fill="green" transform="rotate(120,400,400)"/> 
 <circle cx="434.641" cy="640" r="10" fill="green" transform="rotate(180,400,400)"/> 
 <circle cx="434.641" cy="640" r="10" fill="green" transform="rotate(240,400,400)"/> 
 <circle cx="434.641" cy="640" r="10" fill="green" transform="rotate(300,400,400)"/> 
 <circle cx="434.641" cy="640" r="10" fill="green" transform="rotate(360,400,400)"/> 
 <circle cx="457.735" cy="640" r="10" fill="green" transform="rotate(60,400,400)"/> 
 <circle cx="457.735" cy="640" r="10" fill="green" transform="rotate(120,400,400)"/> 
 <circle cx="457.735" cy="640" r="10" fill="green" transform="rotate(180,400,400)"/> 
 <circle cx="457.735" cy="640" r="10" fill="green" transform="rotate(240,400,400)"/> 
 <circle cx="457.735" cy="640" r="10" fill="green" transform="rotate(300,400,400)"/> 
 <circle cx="457.735" cy="640" r="10" fill="green" transform="rotate(360,400,400)"/> 
 <circle cx="480.829" cy="640" r="10" fill="green" transform="rotate(60,400,400)"/> 
 <circle cx="480.829" cy="640" r="10" fill="green" transform="rotate(120,400,400)"/> 
 <circle cx="480.829" cy="640" r="10" fill="green" transform="rotate(180,400,400)"/> 
 <circle cx="480.829" cy="640" r="10" fill="green" transform="rotate(240,400,400)"/> 
 <circle cx="480.829" cy="640" r="10" fill="green" transform="rotate(300,400,400)"/> 
 <circle cx="480.829" cy="640" r="10" fill="green" transform="rotate(360,400,400)"/> 
 <circle cx="503.923" cy="640" r="10" fill="green" transform="rotate(60,400,400)"/> 
 <circle cx="503.923" cy="640" r="10" fill="green" transform="rotate(120,400,400)"/> 
 <circle cx="503.923" cy="640" r="10" fill="green" transform="rotate(180,400,400)"/> 
 <circle cx="503.923" cy="640" r="10" fill="green" transform="rotate(240,400,400)"/> 
 <circle cx="503.923" cy="640" r="10" fill="green" transform="rotate(300,400,400)"/> 
 <circle cx="503.923" cy="640" r="10" fill="green" transform="rotate(360,400,400)"/> 
 <circle cx="527.017" cy="640" r="10" fill="green" transform="rotate(60,400,400)"/> 
 <circle cx="527.017" cy="640" r="10" fill="green" transform="rotate(120,400,400)"/> 
 <circle cx="527.017" cy="640" r="10" fill="green" transform="rotate(180,400,400)"/> 
 <circle cx="527.017" cy="640" r="10" fill="green" transform="rotate(240,400,400)"/> 
 <circle cx="527.017" cy="640" r="10" fill="green" transform="rotate(300,400,400)"/> 
 <circle cx="527.017" cy="640" r="10" fill="green" transform="rotate(360,400,400)"/> 
 <circle cx="261.436" cy="660" r="10" fill="green" transform="rotate(60,400,400)"/> 
 <circle cx="261.436" cy="660" r="10" fill="green" transform="rotate(120,400,400)"/> 
 <circle cx="261.436" cy="660" r="10" fill="green" transform="rotate(180,400,400)"/> 
 <circle cx="261.436" cy="660" r="10" fill="green" transform="rotate(240,400,400)"/> 
 <circle cx="261.436" cy="660" r="10" fill="green" transform="rotate(300,400,400)"/> 
 <circle cx="261.436" cy="660" r="10" fill="green" transform="rotate(360,400,400)"/> 
 <circle cx="284.53" cy="660" r="10" fill="green" transform="rotate(60,400,400)"/> 
 <circle cx="284.53" cy="660" r="10" fill="green" transform="rotate(120,400,400)"/> 
 <circle cx="284.53" cy="660" r="10" fill="green" transform="rotate(180,400,400)"/> 
 <circle cx="284.53" cy="660" r="10" fill="green" transform="rotate(240,400,400)"/> 
 <circle cx="284.53" cy="660" r="10" fill="green" transform="rotate(300,400,400)"/> 
 <circle cx="284.53" cy="660" r="10" fill="green" transform="rotate(360,400,400)"/> 
 <circle cx="307.624" cy="660" r="10" fill="green" transform="rotate(60,400,400)"/> 
 <circle cx="307.624" cy="660" r="10" fill="green" transform="rotate(120,400,400)"/> 
 <circle cx="307.624" cy="660" r="10" fill="green" transform="rotate(180,400,400)"/> 
 <circle cx="307.624" cy="660" r="10" fill="green" transform="rotate(240,400,400)"/> 
 <circle cx="307.624" cy="660" r="10" fill="green" transform="rotate(300,400,400)"/> 
 <circle cx="307.624" cy="660" r="10" fill="green" transform="rotate(360,400,400)"/> 
 <circle cx="330.718" cy="660" r="10" fill="green" transform="rotate(60,400,400)"/> 
 <circle cx="330.718" cy="660" r="10" fill="green" transform="rotate(120,400,400)"/> 
 <circle cx="330.718" cy="660" r="10" fill="green" transform="rotate(180,400,400)"/> 
 <circle cx="330.718" cy="660" r="10" fill="green" transform="rotate(240,400,400)"/> 
 <circle cx="330.718" cy="660" r="10" fill="green" transform="rotate(300,400,400)"/> 
 <circle cx="330.718" cy="660" r="10" fill="green" transform="rotate(360,400,400)"/> 
 <circle cx="353.812" cy="660" r="10" fill="green" transform="rotate(60,400,400)"/> 
 <circle cx="353.812" cy="660" r="10" fill="green" transform="rotate(120,400,400)"/> 
 <circle cx="353.812" cy="660" r="10" fill="green" transform="rotate(180,400,400)"/> 
 <circle cx="353.812" cy="660" r="10" fill="green" transform="rotate(240,400,400)"/> 
 <circle cx="353.812" cy="660" r="10" fill="green" transform="rotate(300,400,400)"/> 
 <circle cx="353.812" cy="660" r="10" fill="green" transform="rotate(360,400,400)"/> 
 <circle cx="376.906" cy="660" r="10" fill="green" transform="rotate(60,400,400)"/> 
 <circle cx="376.906" cy="660" r="10" fill="green" transform="rotate(120,400,400)"/> 
 <circle cx="376.906" cy="660" r="10" fill="green" transform="rotate(180,400,400)"/> 
 <circle cx="376.906" cy="660" r="10" fill="green" transform="rotate(240,400,400)"/> 
 <circle cx="376.906" cy="660" r="10" fill="green" transform="rotate(300,400,400)"/> 
 <circle cx="376.906" cy="660" r="10" fill="green" transform="rotate(360,400,400)"/> 
 <circle cx="400" cy="660" r="10" fill="green" transform="rotate(60,400,400)"/> 
 <circle cx="400" cy="660" r="10" fill="green" transform="rotate(120,400,400)"/> 
 <circle cx="400" cy="660" r="10" fill="green" transform="rotate(180,400,400)"/> 
 <circle cx="400" cy="660" r="10" fill="green" transform="rotate(240,400,400)"/> 
 <circle cx="400" cy="660" r="10" fill="green" transform="rotate(300,400,400)"/> 
 <circle cx="400" cy="660" r="10" fill="green" transform="rotate(360,400,400)"/> 
 <circle cx="423.094" cy="660" r="10" fill="green" transform="rotate(60,400,400)"/> 
 <circle cx="423.094" cy="660" r="10" fill="green" transform="rotate(120,400,400)"/> 
 <circle cx="423.094" cy="660" r="10" fill="green" transform="rotate(180,400,400)"/> 
 <circle cx="423.094" cy="660" r="10" fill="green" transform="rotate(240,400,400)"/> 
 <circle cx="423.094" cy="660" r="10" fill="green" transform="rotate(300,400,400)"/> 
 <circle cx="423.094" cy="660" r="10" fill="green" transform="rotate(360,400,400)"/> 
 <circle cx="446.188" cy="660" r="10" fill="green" transform="rotate(60,400,400)"/> 
 <circle cx="446.188" cy="660" r="10" fill="green" transform="rotate(120,400,400)"/> 
 <circle cx="446.188" cy="660" r="10" fill="green" transform="rotate(180,400,400)"/> 
 <circle cx="446.188" cy="660" r="10" fill="green" transform="rotate(240,400,400)"/> 
 <circle cx="446.188" cy="660" r="10" fill="green" transform="rotate(300,400,400)"/> 
 <circle cx="446.188" cy="660" r="10" fill="green" transform="rotate(360,400,400)"/> 
 <circle cx="469.282" cy="660" r="10" fill="green" transform="rotate(60,400,400)"/> 
 <circle cx="469.282" cy="660" r="10" fill="green" transform="rotate(120,400,400)"/> 
 <circle cx="469.282" cy="660" r="10" fill="green" transform="rotate(180,400,400)"/> 
 <circle cx="469.282" cy="660" r="10" fill="green" transform="rotate(240,400,400)"/> 
 <circle cx="469.282" cy="660" r="10" fill="green" transform="rotate(300,400,400)"/> 
 <circle cx="469.282" cy="660" r="10" fill="green" transform="rotate(360,400,400)"/> 
 <circle cx="492.376" cy="660" r="10" fill="green" transform="rotate(60,400,400)"/> 
 <circle cx="492.376" cy="660" r="10" fill="green" transform="rotate(120,400,400)"/> 
 <circle cx="492.376" cy="660" r="10" fill="green" transform="rotate(180,400,400)"/> 
 <circle cx="492.376" cy="660" r="10" fill="green" transform="rotate(240,400,400)"/> 
 <circle cx="492.376" cy="660" r="10" fill="green" transform="rotate(300,400,400)"/> 
 <circle cx="492.376" cy="660" r="10" fill="green" transform="rotate(360,400,400)"/> 
 <circle cx="515.47" cy="660" r="10" fill="green" transform="rotate(60,400,400)"/> 
 <circle cx="515.47" cy="660" r="10" fill="green" transform="rotate(120,400,400)"/> 
 <circle cx="515.47" cy="660" r="10" fill="green" transform="rotate(180,400,400)"/> 
 <circle cx="515.47" cy="660" r="10" fill="green" transform="rotate(240,400,400)"/> 
 <circle cx="515.47" cy="660" r="10" fill="green" transform="rotate(300,400,400)"/> 
 <circle cx="515.47" cy="660" r="10" fill="green" transform="rotate(360,400,400)"/> 
 <circle cx="538.564" cy="660" r="10" fill="green" transform="rotate(60,400,400)"/> 
 <circle cx="538.564" cy="660" r="10" fill="green" transform="rotate(120,400,400)"/> 
 <circle cx="538.564" cy="660" r="10" fill="green" transform="rotate(180,400,400)"/> 
 <circle cx="538.564" cy="660" r="10" fill="green" transform="rotate(240,400,400)"/> 
 <circle cx="538.564" cy="660" r="10" fill="green" transform="rotate(300,400,400)"/> 
 <circle cx="538.564" cy="660" r="10" fill="green" transform="rotate(360,400,400)"/> 
 <circle cx="249.889" cy="680" r="10" fill="green" transform="rotate(60,400,400)"/> 
 <circle cx="249.889" cy="680" r="10" fill="green" transform="rotate(120,400,400)"/> 
 <circle cx="249.889" cy="680" r="10" fill="green" transform="rotate(180,400,400)"/> 
 <circle cx="249.889" cy="680" r="10" fill="green" transform="rotate(240,400,400)"/> 
 <circle cx="249.889" cy="680" r="10" fill="green" transform="rotate(300,400,400)"/> 
 <circle cx="249.889" cy="680" r="10" fill="green" transform="rotate(360,400,400)"/> 
 <circle cx="272.983" cy="680" r="10" fill="green" transform="rotate(60,400,400)"/> 
 <circle cx="272.983" cy="680" r="10" fill="green" transform="rotate(120,400,400)"/> 
 <circle cx="272.983" cy="680" r="10" fill="green" transform="rotate(180,400,400)"/> 
 <circle cx="272.983" cy="680" r="10" fill="green" transform="rotate(240,400,400)"/> 
 <circle cx="272.983" cy="680" r="10" fill="green" transform="rotate(300,400,400)"/> 
 <circle cx="272.983" cy="680" r="10" fill="green" transform="rotate(360,400,400)"/> 
 <circle cx="296.077" cy="680" r="10" fill="green" transform="rotate(60,400,400)"/> 
 <circle cx="296.077" cy="680" r="10" fill="green" transform="rotate(120,400,400)"/> 
 <circle cx="296.077" cy="680" r="10" fill="green" transform="rotate(180,400,400)"/> 
 <circle cx="296.077" cy="680" r="10" fill="green" transform="rotate(240,400,400)"/> 
 <circle cx="296.077" cy="680" r="10" fill="green" transform="rotate(300,400,400)"/> 
 <circle cx="296.077" cy="680" r="10" fill="green" transform="rotate(360,400,400)"/> 
 <circle cx="319.171" cy="680" r="10" fill="green" transform="rotate(60,400,400)"/> 
 <circle cx="319.171" cy="680" r="10" fill="green" transform="rotate(120,400,400)"/> 
 <circle cx="319.171" cy="680" r="10" fill="green" transform="rotate(180,400,400)"/> 
 <circle cx="319.171" cy="680" r="10" fill="green" transform="rotate(240,400,400)"/> 
 <circle cx="319.171" cy="680" r="10" fill="green" transform="rotate(300,400,400)"/> 
 <circle cx="319.171" cy="680" r="10" fill="green" transform="rotate(360,400,400)"/> 
 <circle cx="342.265" cy="680" r="10" fill="green" transform="rotate(60,400,400)"/> 
 <circle cx="342.265" cy="680" r="10" fill="green" transform="rotate(120,400,400)"/> 
 <circle cx="342.265" cy="680" r="10" fill="green" transform="rotate(180,400,400)"/> 
 <circle cx="342.265" cy="680" r="10" fill="green" transform="rotate(240,400,400)"/> 
 <circle cx="342.265" cy="680" r="10" fill="green" transform="rotate(300,400,400)"/> 
 <circle cx="342.265" cy="680" r="10" fill="green" transform="rotate(360,400,400)"/> 
 <circle cx="365.359" cy="680" r="10" fill="green" transform="rotate(60,400,400)"/> 
 <circle cx="365.359" cy="680" r="10" fill="green" transform="rotate(120,400,400)"/> 
 <circle cx="365.359" cy="680" r="10" fill="green" transform="rotate(180,400,400)"/> 
 <circle cx="365.359" cy="680" r="10" fill="green" transform="rotate(240,400,400)"/> 
 <circle cx="365.359" cy="680" r="10" fill="green" transform="rotate(300,400,400)"/> 
 <circle cx="365.359" cy="680" r="10" fill="green" transform="rotate(360,400,400)"/> 
 <circle cx="388.453" cy="680" r="10" fill="green" transform="rotate(60,400,400)"/> 
 <circle cx="388.453" cy="680" r="10" fill="green" transform="rotate(120,400,400)"/> 
 <circle cx="388.453" cy="680" r="10" fill="green" transform="rotate(180,400,400)"/> 
 <circle cx="388.453" cy="680" r="10" fill="green" transform="rotate(240,400,400)"/> 
 <circle cx="388.453" cy="680" r="10" fill="green" transform="rotate(300,400,400)"/> 
 <circle cx="388.453" cy="680" r="10" fill="green" transform="rotate(360,400,400)"/> 
 <circle cx="411.547" cy="680" r="10" fill="green" transform="rotate(60,400,400)"/> 
 <circle cx="411.547" cy="680" r="10" fill="green" transform="rotate(120,400,400)"/> 
 <circle cx="411.547" cy="680" r="10" fill="green" transform="rotate(180,400,400)"/> 
 <circle cx="411.547" cy="680" r="10" fill="green" transform="rotate(240,400,400)"/> 
 <circle cx="411.547" cy="680" r="10" fill="green" transform="rotate(300,400,400)"/> 
 <circle cx="411.547" cy="680" r="10" fill="green" transform="rotate(360,400,400)"/> 
 <circle cx="434.641" cy="680" r="10" fill="green" transform="rotate(60,400,400)"/> 
 <circle cx="434.641" cy="680" r="10" fill="green" transform="rotate(120,400,400)"/> 
 <circle cx="434.641" cy="680" r="10" fill="green" transform="rotate(180,400,400)"/> 
 <circle cx="434.641" cy="680" r="10" fill="green" transform="rotate(240,400,400)"/> 
 <circle cx="434.641" cy="680" r="10" fill="green" transform="rotate(300,400,400)"/> 
 <circle cx="434.641" cy="680" r="10" fill="green" transform="rotate(360,400,400)"/> 
 <circle cx="457.735" cy="680" r="10" fill="green" transform="rotate(60,400,400)"/> 
 <circle cx="457.735" cy="680" r="10" fill="green" transform="rotate(120,400,400)"/> 
 <circle cx="457.735" cy="680" r="10" fill="green" transform="rotate(180,400,400)"/> 
 <circle cx="457.735" cy="680" r="10" fill="green" transform="rotate(240,400,400)"/> 
 <circle cx="457.735" cy="680" r="10" fill="green" transform="rotate(300,400,400)"/> 
 <circle cx="457.735" cy="680" r="10" fill="green" transform="rotate(360,400,400)"/> 
 <circle cx="480.829" cy="680" r="10" fill="green" transform="rotate(60,400,400)"/> 
 <circle cx="480.829" cy="680" r="10" fill="green" transform="rotate(120,400,400)"/> 
 <circle cx="480.829" cy="680" r="10" fill="green" transform="rotate(180,400,400)"/> 
 <circle cx="480.829" cy="680" r="10" fill="green" transform="rotate(240,400,400)"/> 
 <circle cx="480.829" cy="680" r="10" fill="green" transform="rotate(300,400,400)"/> 
 <circle cx="480.829" cy="680" r="10" fill="green" transform="rotate(360,400,400)"/> 
 <circle cx="503.923" cy="680" r="10" fill="green" transform="rotate(60,400,400)"/> 
 <circle cx="503.923" cy="680" r="10" fill="green" transform="rotate(120,400,400)"/> 
 <circle cx="503.923" cy="680" r="10" fill="green" transform="rotate(180,400,400)"/> 
 <circle cx="503.923" cy="680" r="10" fill="green" transform="rotate(240,400,400)"/> 
 <circle cx="503.923" cy="680" r="10" fill="green" transform="rotate(300,400,400)"/> 
 <circle cx="503.923" cy="680" r="10" fill="green" transform="rotate(360,400,400)"/> 
 <circle cx="527.017" cy="680" r="10" fill="green" transform="rotate(60,400,400)"/> 
 <circle cx="527.017" cy="680" r="10" fill="green" transform="rotate(120,400,400)"/> 
 <circle cx="527.017" cy="680" r="10" fill="green" transform="rotate(180,400,400)"/> 
 <circle cx="527.017" cy="680" r="10" fill="green" transform="rotate(240,400,400)"/> 
 <circle cx="527.017" cy="680" r="10" fill="green" transform="rotate(300,400,400)"/> 
 <circle cx="527.017" cy="680" r="10" fill="green" transform="rotate(360,400,400)"/> 
 <circle cx="550.111" cy="680" r="10" fill="green" transform="rotate(60,400,400)"/> 
 <circle cx="550.111" cy="680" r="10" fill="green" transform="rotate(120,400,400)"/> 
 <circle cx="550.111" cy="680" r="10" fill="green" transform="rotate(180,400,400)"/> 
 <circle cx="550.111" cy="680" r="10" fill="green" transform="rotate(240,400,400)"/> 
 <circle cx="550.111" cy="680" r="10" fill="green" transform="rotate(300,400,400)"/> 
 <circle cx="550.111" cy="680" r="10" fill="green" transform="rotate(360,400,400)"/> 
 <circle cx="238.342" cy="700" r="10" fill="green" transform="rotate(60,400,400)"/> 
 <circle cx="238.342" cy="700" r="10" fill="green" transform="rotate(120,400,400)"/> 
 <circle cx="238.342" cy="700" r="10" fill="green" transform="rotate(180,400,400)"/> 
 <circle cx="238.342" cy="700" r="10" fill="green" transform="rotate(240,400,400)"/> 
 <circle cx="238.342" cy="700" r="10" fill="green" transform="rotate(300,400,400)"/> 
 <circle cx="238.342" cy="700" r="10" fill="green" transform="rotate(360,400,400)"/> 
 <circle cx="261.436" cy="700" r="10" fill="green" transform="rotate(60,400,400)"/> 
 <circle cx="261.436" cy="700" r="10" fill="green" transform="rotate(120,400,400)"/> 
 <circle cx="261.436" cy="700" r="10" fill="green" transform="rotate(180,400,400)"/> 
 <circle cx="261.436" cy="700" r="10" fill="green" transform="rotate(240,400,400)"/> 
 <circle cx="261.436" cy="700" r="10" fill="green" transform="rotate(300,400,400)"/> 
 <circle cx="261.436" cy="700" r="10" fill="green" transform="rotate(360,400,400)"/> 
 <circle cx="284.53" cy="700" r="10" fill="green" transform="rotate(60,400,400)"/> 
 <circle cx="284.53" cy="700" r="10" fill="green" transform="rotate(120,400,400)"/> 
 <circle cx="284.53" cy="700" r="10" fill="green" transform="rotate(180,400,400)"/> 
 <circle cx="284.53" cy="700" r="10" fill="green" transform="rotate(240,400,400)"/> 
 <circle cx="284.53" cy="700" r="10" fill="green" transform="rotate(300,400,400)"/> 
 <circle cx="284.53" cy="700" r="10" fill="green" transform="rotate(360,400,400)"/> 
 <circle cx="307.624" cy="700" r="10" fill="green" transform="rotate(60,400,400)"/> 
 <circle cx="307.624" cy="700" r="10" fill="green" transform="rotate(120,400,400)"/> 
 <circle cx="307.624" cy="700" r="10" fill="green" transform="rotate(180,400,400)"/> 
 <circle cx="307.624" cy="700" r="10" fill="green" transform="rotate(240,400,400)"/> 
 <circle cx="307.624" cy="700" r="10" fill="green" transform="rotate(300,400,400)"/> 
 <circle cx="307.624" cy="700" r="10" fill="green" transform="rotate(360,400,400)"/> 
 <circle cx="330.718" cy="700" r="10" fill="green" transform="rotate(60,400,400)"/> 
 <circle cx="330.718" cy="700" r="10" fill="green" transform="rotate(120,400,400)"/> 
 <circle cx="330.718" cy="700" r="10" fill="green" transform="rotate(180,400,400)"/> 
 <circle cx="330.718" cy="700" r="10" fill="green" transform="rotate(240,400,400)"/> 
 <circle cx="330.718" cy="700" r="10" fill="green" transform="rotate(300,400,400)"/> 
 <circle cx="330.718" cy="700" r="10" fill="green" transform="rotate(360,400,400)"/> 
 <circle cx="353.812" cy="700" r="10" fill="green" transform="rotate(60,400,400)"/> 
 <circle cx="353.812" cy="700" r="10" fill="green" transform="rotate(120,400,400)"/> 
 <circle cx="353.812" cy="700" r="10" fill="green" transform="rotate(180,400,400)"/> 
 <circle cx="353.812" cy="700" r="10" fill="green" transform="rotate(240,400,400)"/> 
 <circle cx="353.812" cy="700" r="10" fill="green" transform="rotate(300,400,400)"/> 
 <circle cx="353.812" cy="700" r="10" fill="green" transform="rotate(360,400,400)"/> 
 <circle cx="376.906" cy="700" r="10" fill="green" transform="rotate(60,400,400)"/> 
 <circle cx="376.906" cy="700" r="10" fill="green" transform="rotate(120,400,400)"/> 
 <circle cx="376.906" cy="700" r="10" fill="green" transform="rotate(180,400,400)"/> 
 <circle cx="376.906" cy="700" r="10" fill="green" transform="rotate(240,400,400)"/> 
 <circle cx="376.906" cy="700" r="10" fill="green" transform="rotate(300,400,400)"/> 
 <circle cx="376.906" cy="700" r="10" fill="green" transform="rotate(360,400,400)"/> 
 <circle cx="400" cy="700" r="10" fill="green" transform="rotate(60,400,400)"/> 
 <circle cx="400" cy="700" r="10" fill="green" transform="rotate(120,400,400)"/> 
 <circle cx="400" cy="700" r="10" fill="green" transform="rotate(180,400,400)"/> 
 <circle cx="400" cy="700" r="10" fill="green" transform="rotate(240,400,400)"/> 
 <circle cx="400" cy="700" r="10" fill="green" transform="rotate(300,400,400)"/> 
 <circle cx="400" cy="700" r="10" fill="green" transform="rotate(360,400,400)"/> 
 <circle cx="423.094" cy="700" r="10" fill="green" transform="rotate(60,400,400)"/> 
 <circle cx="423.094" cy="700" r="10" fill="green" transform="rotate(120,400,400)"/> 
 <circle cx="423.094" cy="700" r="10" fill="green" transform="rotate(180,400,400)"/> 
 <circle cx="423.094" cy="700" r="10" fill="green" transform="rotate(240,400,400)"/> 
 <circle cx="423.094" cy="700" r="10" fill="green" transform="rotate(300,400,400)"/> 
 <circle cx="423.094" cy="700" r="10" fill="green" transform="rotate(360,400,400)"/> 
 <circle cx="446.188" cy="700" r="10" fill="green" transform="rotate(60,400,400)"/> 
 <circle cx="446.188" cy="700" r="10" fill="green" transform="rotate(120,400,400)"/> 
 <circle cx="446.188" cy="700" r="10" fill="green" transform="rotate(180,400,400)"/> 
 <circle cx="446.188" cy="700" r="10" fill="green" transform="rotate(240,400,400)"/> 
 <circle cx="446.188" cy="700" r="10" fill="green" transform="rotate(300,400,400)"/> 
 <circle cx="446.188" cy="700" r="10" fill="green" transform="rotate(360,400,400)"/> 
 <circle cx="469.282" cy="700" r="10" fill="green" transform="rotate(60,400,400)"/> 
 <circle cx="469.282" cy="700" r="10" fill="green" transform="rotate(120,400,400)"/> 
 <circle cx="469.282" cy="700" r="10" fill="green" transform="rotate(180,400,400)"/> 
 <circle cx="469.282" cy="700" r="10" fill="green" transform="rotate(240,400,400)"/> 
 <circle cx="469.282" cy="700" r="10" fill="green" transform="rotate(300,400,400)"/> 
 <circle cx="469.282" cy="700" r="10" fill="green" transform="rotate(360,400,400)"/> 
 <circle cx="492.376" cy="700" r="10" fill="green" transform="rotate(60,400,400)"/> 
 <circle cx="492.376" cy="700" r="10" fill="green" transform="rotate(120,400,400)"/> 
 <circle cx="492.376" cy="700" r="10" fill="green" transform="rotate(180,400,400)"/> 
 <circle cx="492.376" cy="700" r="10" fill="green" transform="rotate(240,400,400)"/> 
 <circle cx="492.376" cy="700" r="10" fill="green" transform="rotate(300,400,400)"/> 
 <circle cx="492.376" cy="700" r="10" fill="green" transform="rotate(360,400,400)"/> 
 <circle cx="515.47" cy="700" r="10" fill="green" transform="rotate(60,400,400)"/> 
 <circle cx="515.47" cy="700" r="10" fill="green" transform="rotate(120,400,400)"/> 
 <circle cx="515.47" cy="700" r="10" fill="green" transform="rotate(180,400,400)"/> 
 <circle cx="515.47" cy="700" r="10" fill="green" transform="rotate(240,400,400)"/> 
 <circle cx="515.47" cy="700" r="10" fill="green" transform="rotate(300,400,400)"/> 
 <circle cx="515.47" cy="700" r="10" fill="green" transform="rotate(360,400,400)"/> 
 <circle cx="538.564" cy="700" r="10" fill="green" transform="rotate(60,400,400)"/> 
 <circle cx="538.564" cy="700" r="10" fill="green" transform="rotate(120,400,400)"/> 
 <circle cx="538.564" cy="700" r="10" fill="green" transform="rotate(180,400,400)"/> 
 <circle cx="538.564" cy="700" r="10" fill="green" transform="rotate(240,400,400)"/> 
 <circle cx="538.564" cy="700" r="10" fill="green" transform="rotate(300,400,400)"/> 
 <circle cx="538.564" cy="700" r="10" fill="green" transform="rotate(360,400,400)"/> 
 <circle cx="561.658" cy="700" r="10" fill="green" transform="rotate(60,400,400)"/> 
 <circle cx="561.658" cy="700" r="10" fill="green" transform="rotate(120,400,400)"/> 
 <circle cx="561.658" cy="700" r="10" fill="green" transform="rotate(180,400,400)"/> 
 <circle cx="561.658" cy="700" r="10" fill="green" transform="rotate(240,400,400)"/> 
 <circle cx="561.658" cy="700" r="10" fill="green" transform="rotate(300,400,400)"/> 
 <circle cx="561.658" cy="700" r="10" fill="green" transform="rotate(360,400,400)"/> 
 <circle cx="226.795" cy="720" r="10" fill="green" transform="rotate(60,400,400)"/> 
 <circle cx="226.795" cy="720" r="10" fill="green" transform="rotate(120,400,400)"/> 
 <circle cx="226.795" cy="720" r="10" fill="green" transform="rotate(180,400,400)"/> 
 <circle cx="226.795" cy="720" r="10" fill="green" transform="rotate(240,400,400)"/> 
 <circle cx="226.795" cy="720" r="10" fill="green" transform="rotate(300,400,400)"/> 
 <circle cx="226.795" cy="720" r="10" fill="green" transform="rotate(360,400,400)"/> 
 <circle cx="249.889" cy="720" r="10" fill="green" transform="rotate(60,400,400)"/> 
 <circle cx="249.889" cy="720" r="10" fill="green" transform="rotate(120,400,400)"/> 
 <circle cx="249.889" cy="720" r="10" fill="green" transform="rotate(180,400,400)"/> 
 <circle cx="249.889" cy="720" r="10" fill="green" transform="rotate(240,400,400)"/> 
 <circle cx="249.889" cy="720" r="10" fill="green" transform="rotate(300,400,400)"/> 
 <circle cx="249.889" cy="720" r="10" fill="green" transform="rotate(360,400,400)"/> 
 <circle cx="272.983" cy="720" r="10" fill="green" transform="rotate(60,400,400)"/> 
 <circle cx="272.983" cy="720" r="10" fill="green" transform="rotate(120,400,400)"/> 
 <circle cx="272.983" cy="720" r="10" fill="green" transform="rotate(180,400,400)"/> 
 <circle cx="272.983" cy="720" r="10" fill="green" transform="rotate(240,400,400)"/> 
 <circle cx="272.983" cy="720" r="10" fill="green" transform="rotate(300,400,400)"/> 
 <circle cx="272.983" cy="720" r="10" fill="green" transform="rotate(360,400,400)"/> 
 <circle cx="296.077" cy="720" r="10" fill="green" transform="rotate(60,400,400)"/> 
 <circle cx="296.077" cy="720" r="10" fill="green" transform="rotate(120,400,400)"/> 
 <circle cx="296.077" cy="720" r="10" fill="green" transform="rotate(180,400,400)"/> 
 <circle cx="296.077" cy="720" r="10" fill="green" transform="rotate(240,400,400)"/> 
 <circle cx="296.077" cy="720" r="10" fill="green" transform="rotate(300,400,400)"/> 
 <circle cx="296.077" cy="720" r="10" fill="green" transform="rotate(360,400,400)"/> 
 <circle cx="319.171" cy="720" r="10" fill="green" transform="rotate(60,400,400)"/> 
 <circle cx="319.171" cy="720" r="10" fill="green" transform="rotate(120,400,400)"/> 
 <circle cx="319.171" cy="720" r="10" fill="green" transform="rotate(180,400,400)"/> 
 <circle cx="319.171" cy="720" r="10" fill="green" transform="rotate(240,400,400)"/> 
 <circle cx="319.171" cy="720" r="10" fill="green" transform="rotate(300,400,400)"/> 
 <circle cx="319.171" cy="720" r="10" fill="green" transform="rotate(360,400,400)"/> 
 <circle cx="342.265" cy="720" r="10" fill="green" transform="rotate(60,400,400)"/> 
 <circle cx="342.265" cy="720" r="10" fill="green" transform="rotate(120,400,400)"/> 
 <circle cx="342.265" cy="720" r="10" fill="green" transform="rotate(180,400,400)"/> 
 <circle cx="342.265" cy="720" r="10" fill="green" transform="rotate(240,400,400)"/> 
 <circle cx="342.265" cy="720" r="10" fill="green" transform="rotate(300,400,400)"/> 
 <circle cx="342.265" cy="720" r="10" fill="green" transform="rotate(360,400,400)"/> 
 <circle cx="365.359" cy="720" r="10" fill="green" transform="rotate(60,400,400)"/> 
 <circle cx="365.359" cy="720" r="10" fill="green" transform="rotate(120,400,400)"/> 
 <circle cx="365.359" cy="720" r="10" fill="green" transform="rotate(180,400,400)"/> 
 <circle cx="365.359" cy="720" r="10" fill="green" transform="rotate(240,400,400)"/> 
 <circle cx="365.359" cy="720" r="10" fill="green" transform="rotate(300,400,400)"/> 
 <circle cx="365.359" cy="720" r="10" fill="green" transform="rotate(360,400,400)"/> 
 <circle cx="388.453" cy="720" r="10" fill="green" transform="rotate(60,400,400)"/> 
 <circle cx="388.453" cy="720" r="10" fill="green" transform="rotate(120,400,400)"/> 
 <circle cx="388.453" cy="720" r="10" fill="green" transform="rotate(180,400,400)"/> 
 <circle cx="388.453" cy="720" r="10" fill="green" transform="rotate(240,400,400)"/> 
 <circle cx="388.453" cy="720" r="10" fill="green" transform="rotate(300,400,400)"/> 
 <circle cx="388.453" cy="720" r="10" fill="green" transform="rotate(360,400,400)"/> 
 <circle cx="411.547" cy="720" r="10" fill="green" transform="rotate(60,400,400)"/> 
 <circle cx="411.547" cy="720" r="10" fill="green" transform="rotate(120,400,400)"/> 
 <circle cx="411.547" cy="720" r="10" fill="green" transform="rotate(180,400,400)"/> 
 <circle cx="411.547" cy="720" r="10" fill="green" transform="rotate(240,400,400)"/> 
 <circle cx="411.547" cy="720" r="10" fill="green" transform="rotate(300,400,400)"/> 
 <circle cx="411.547" cy="720" r="10" fill="green" transform="rotate(360,400,400)"/> 
 <circle cx="434.641" cy="720" r="10" fill="green" transform="rotate(60,400,400)"/> 
 <circle cx="434.641" cy="720" r="10" fill="green" transform="rotate(120,400,400)"/> 
 <circle cx="434.641" cy="720" r="10" fill="green" transform="rotate(180,400,400)"/> 
 <circle cx="434.641" cy="720" r="10" fill="green" transform="rotate(240,400,400)"/> 
 <circle cx="434.641" cy="720" r="10" fill="green" transform="rotate(300,400,400)"/> 
 <circle cx="434.641" cy="720" r="10" fill="green" transform="rotate(360,400,400)"/> 
 <circle cx="457.735" cy="720" r="10" fill="green" transform="rotate(60,400,400)"/> 
 <circle cx="457.735" cy="720" r="10" fill="green" transform="rotate(120,400,400)"/> 
 <circle cx="457.735" cy="720" r="10" fill="green" transform="rotate(180,400,400)"/> 
 <circle cx="457.735" cy="720" r="10" fill="green" transform="rotate(240,400,400)"/> 
 <circle cx="457.735" cy="720" r="10" fill="green" transform="rotate(300,400,400)"/> 
 <circle cx="457.735" cy="720" r="10" fill="green" transform="rotate(360,400,400)"/> 
 <circle cx="480.829" cy="720" r="10" fill="green" transform="rotate(60,400,400)"/> 
 <circle cx="480.829" cy="720" r="10" fill="green" transform="rotate(120,400,400)"/> 
 <circle cx="480.829" cy="720" r="10" fill="green" transform="rotate(180,400,400)"/> 
 <circle cx="480.829" cy="720" r="10" fill="green" transform="rotate(240,400,400)"/> 
 <circle cx="480.829" cy="720" r="10" fill="green" transform="rotate(300,400,400)"/> 
 <circle cx="480.829" cy="720" r="10" fill="green" transform="rotate(360,400,400)"/> 
 <circle cx="503.923" cy="720" r="10" fill="green" transform="rotate(60,400,400)"/> 
 <circle cx="503.923" cy="720" r="10" fill="green" transform="rotate(120,400,400)"/> 
 <circle cx="503.923" cy="720" r="10" fill="green" transform="rotate(180,400,400)"/> 
 <circle cx="503.923" cy="720" r="10" fill="green" transform="rotate(240,400,400)"/> 
 <circle cx="503.923" cy="720" r="10" fill="green" transform="rotate(300,400,400)"/> 
 <circle cx="503.923" cy="720" r="10" fill="green" transform="rotate(360,400,400)"/> 
 <circle cx="527.017" cy="720" r="10" fill="green" transform="rotate(60,400,400)"/> 
 <circle cx="527.017" cy="720" r="10" fill="green" transform="rotate(120,400,400)"/> 
 <circle cx="527.017" cy="720" r="10" fill="green" transform="rotate(180,400,400)"/> 
 <circle cx="527.017" cy="720" r="10" fill="green" transform="rotate(240,400,400)"/> 
 <circle cx="527.017" cy="720" r="10" fill="green" transform="rotate(300,400,400)"/> 
 <circle cx="527.017" cy="720" r="10" fill="green" transform="rotate(360,400,400)"/> 
 <circle cx="550.111" cy="720" r="10" fill="green" transform="rotate(60,400,400)"/> 
 <circle cx="550.111" cy="720" r="10" fill="green" transform="rotate(120,400,400)"/> 
 <circle cx="550.111" cy="720" r="10" fill="green" transform="rotate(180,400,400)"/> 
 <circle cx="550.111" cy="720" r="10" fill="green" transform="rotate(240,400,400)"/> 
 <circle cx="550.111" cy="720" r="10" fill="green" transform="rotate(300,400,400)"/> 
 <circle cx="550.111" cy="720" r="10" fill="green" transform="rotate(360,400,400)"/> 
 <circle cx="573.205" cy="720" r="10" fill="green" transform="rotate(60,400,400)"/> 
 <circle cx="573.205" cy="720" r="10" fill="green" transform="rotate(120,400,400)"/> 
 <circle cx="573.205" cy="720" r="10" fill="green" transform="rotate(180,400,400)"/> 
 <circle cx="573.205" cy="720" r="10" fill="green" transform="rotate(240,400,400)"/> 
 <circle cx="573.205" cy="720" r="10" fill="green" transform="rotate(300,400,400)"/> 
 <circle cx="573.205" cy="720" r="10" fill="green" transform="rotate(360,400,400)"/> 
 </svg> 
