<svg version="1.1" baseProfile="full" width="100%" height="100%" xmlns="http://www.w3.org/2000/svg"> <polygon  points="128 0 0 221.703 256 221.703" fill="red"/> 
 <rect x="103.923" y="41.7025" width="45" height="12" fill="green" />
 <rect x="96.9948" y="53.7025" width="45" height="12" fill="green" />
 <rect x="90.0666" y="65.7025" width="45" height="12" fill="green" />
 <rect x="83.1384" y="77.7025" width="45" height="12" fill="green" />
 <rect x="76.2102" y="89.7025" width="45" height="12" fill="green" />
 <rect x="121.21" y="89.7025" width="45" height="12" fill="green" />
 <rect x="69.282" y="101.703" width="45" height="12" fill="green" />
 <rect x="114.282" y="101.703" width="45" height="12" fill="green" />
 <rect x="62.3538" y="113.703" width="45" height="12" fill="green" />
 <rect x="107.354" y="113.703" width="45" height="12" fill="green" />
 <rect x="55.4256" y="125.703" width="45" height="12" fill="green" />
 <rect x="100.426" y="125.703" width="45" height="12" fill="green" />
 <rect x="145.426" y="125.703" width="45" height="12" fill="green" />
 <rect x="48.4974" y="137.703" width="45" height="12" fill="green" />
 <rect x="93.4974" y="137.703" width="45" height="12" fill="green" />
 <rect x="138.497" y="137.703" width="45" height="12" fill="green" />
 <rect x="41.5692" y="149.703" width="45" height="12" fill="green" />
 <rect x="86.5692" y="149.703" width="45" height="12" fill="green" />
 <rect x="131.569" y="149.703" width="45" height="12" fill="green" />
 <rect x="34.641" y="161.703" width="45" height="12" fill="green" />
 <rect x="79.641" y="161.703" width="45" height="12" fill="green" />
 <rect x="124.641" y="161.703" width="45" height="12" fill="green" />
 <rect x="169.641" y="161.703" width="45" height="12" fill="green" />
 <rect x="27.7128" y="173.703" width="45" height="12" fill="green" />
 <rect x="72.7128" y="173.703" width="45" height="12" fill="green" />
 <rect x="117.713" y="173.703" width="45" height="12" fill="green" />
 <rect x="162.713" y="173.703" width="45" height="12" fill="green" />
 <rect x="20.7846" y="185.703" width="45" height="12" fill="green" />
 <rect x="65.7846" y="185.703" width="45" height="12" fill="green" />
 <rect x="110.785" y="185.703" width="45" height="12" fill="green" />
 <rect x="155.785" y="185.703" width="45" height="12" fill="green" />
 <rect x="13.8564" y="197.703" width="45" height="12" fill="green" />
 <rect x="58.8564" y="197.703" width="45" height="12" fill="green" />
 <rect x="103.856" y="197.703" width="45" height="12" fill="green" />
 <rect x="148.856" y="197.703" width="45" height="12" fill="green" />
 <rect x="193.856" y="197.703" width="45" height="12" fill="green" />
 <rect x="6.9282" y="209.703" width="45" height="12" fill="green" />
 <rect x="51.9282" y="209.703" width="45" height="12" fill="green" />
 <rect x="96.9282" y="209.703" width="45" height="12" fill="green" />
 <rect x="141.928" y="209.703" width="45" height="12" fill="green" />
 <rect x="186.928" y="209.703" width="45" height="12" fill="green" />
 </svg> 
