<svg version="1.1" baseProfile="full" width="100%" height="100%" xmlns="http://www.w3.org/2000/svg">  <circle cx="400" cy="400" r="400" fill="red" /> 
 <rect x="117.157" y="117.157" width="50" height="20" fill="green" />
 <rect x="167.157" y="117.157" width="50" height="20" fill="green" />
 <rect x="217.157" y="117.157" width="50" height="20" fill="green" />
 <rect x="267.157" y="117.157" width="50" height="20" fill="green" />
 <rect x="317.157" y="117.157" width="50" height="20" fill="green" />
 <rect x="367.157" y="117.157" width="50" height="20" fill="green" />
 <rect x="417.157" y="117.157" width="50" height="20" fill="green" />
 <rect x="467.157" y="117.157" width="50" height="20" fill="green" />
 <rect x="517.157" y="117.157" width="50" height="20" fill="green" />
 <rect x="567.157" y="117.157" width="50" height="20" fill="green" />
 <rect x="617.157" y="117.157" width="50" height="20" fill="green" />
 <rect x="117.157" y="137.157" width="50" height="20" fill="green" />
 <rect x="167.157" y="137.157" width="50" height="20" fill="green" />
 <rect x="217.157" y="137.157" width="50" height="20" fill="green" />
 <rect x="267.157" y="137.157" width="50" height="20" fill="green" />
 <rect x="317.157" y="137.157" width="50" height="20" fill="green" />
 <rect x="367.157" y="137.157" width="50" height="20" fill="green" />
 <rect x="417.157" y="137.157" width="50" height="20" fill="green" />
 <rect x="467.157" y="137.157" width="50" height="20" fill="green" />
 <rect x="517.157" y="137.157" width="50" height="20" fill="green" />
 <rect x="567.157" y="137.157" width="50" height="20" fill="green" />
 <rect x="617.157" y="137.157" width="50" height="20" fill="green" />
 <rect x="117.157" y="157.157" width="50" height="20" fill="green" />
 <rect x="167.157" y="157.157" width="50" height="20" fill="green" />
 <rect x="217.157" y="157.157" width="50" height="20" fill="green" />
 <rect x="267.157" y="157.157" width="50" height="20" fill="green" />
 <rect x="317.157" y="157.157" width="50" height="20" fill="green" />
 <rect x="367.157" y="157.157" width="50" height="20" fill="green" />
 <rect x="417.157" y="157.157" width="50" height="20" fill="green" />
 <rect x="467.157" y="157.157" width="50" height="20" fill="green" />
 <rect x="517.157" y="157.157" width="50" height="20" fill="green" />
 <rect x="567.157" y="157.157" width="50" height="20" fill="green" />
 <rect x="617.157" y="157.157" width="50" height="20" fill="green" />
 <rect x="117.157" y="177.157" width="50" height="20" fill="green" />
 <rect x="167.157" y="177.157" width="50" height="20" fill="green" />
 <rect x="217.157" y="177.157" width="50" height="20" fill="green" />
 <rect x="267.157" y="177.157" width="50" height="20" fill="green" />
 <rect x="317.157" y="177.157" width="50" height="20" fill="green" />
 <rect x="367.157" y="177.157" width="50" height="20" fill="green" />
 <rect x="417.157" y="177.157" width="50" height="20" fill="green" />
 <rect x="467.157" y="177.157" width="50" height="20" fill="green" />
 <rect x="517.157" y="177.157" width="50" height="20" fill="green" />
 <rect x="567.157" y="177.157" width="50" height="20" fill="green" />
 <rect x="617.157" y="177.157" width="50" height="20" fill="green" />
 <rect x="117.157" y="197.157" width="50" height="20" fill="green" />
 <rect x="167.157" y="197.157" width="50" height="20" fill="green" />
 <rect x="217.157" y="197.157" width="50" height="20" fill="green" />
 <rect x="267.157" y="197.157" width="50" height="20" fill="green" />
 <rect x="317.157" y="197.157" width="50" height="20" fill="green" />
 <rect x="367.157" y="197.157" width="50" height="20" fill="green" />
 <rect x="417.157" y="197.157" width="50" height="20" fill="green" />
 <rect x="467.157" y="197.157" width="50" height="20" fill="green" />
 <rect x="517.157" y="197.157" width="50" height="20" fill="green" />
 <rect x="567.157" y="197.157" width="50" height="20" fill="green" />
 <rect x="617.157" y="197.157" width="50" height="20" fill="green" />
 <rect x="117.157" y="217.157" width="50" height="20" fill="green" />
 <rect x="167.157" y="217.157" width="50" height="20" fill="green" />
 <rect x="217.157" y="217.157" width="50" height="20" fill="green" />
 <rect x="267.157" y="217.157" width="50" height="20" fill="green" />
 <rect x="317.157" y="217.157" width="50" height="20" fill="green" />
 <rect x="367.157" y="217.157" width="50" height="20" fill="green" />
 <rect x="417.157" y="217.157" width="50" height="20" fill="green" />
 <rect x="467.157" y="217.157" width="50" height="20" fill="green" />
 <rect x="517.157" y="217.157" width="50" height="20" fill="green" />
 <rect x="567.157" y="217.157" width="50" height="20" fill="green" />
 <rect x="617.157" y="217.157" width="50" height="20" fill="green" />
 <rect x="117.157" y="237.157" width="50" height="20" fill="green" />
 <rect x="167.157" y="237.157" width="50" height="20" fill="green" />
 <rect x="217.157" y="237.157" width="50" height="20" fill="green" />
 <rect x="267.157" y="237.157" width="50" height="20" fill="green" />
 <rect x="317.157" y="237.157" width="50" height="20" fill="green" />
 <rect x="367.157" y="237.157" width="50" height="20" fill="green" />
 <rect x="417.157" y="237.157" width="50" height="20" fill="green" />
 <rect x="467.157" y="237.157" width="50" height="20" fill="green" />
 <rect x="517.157" y="237.157" width="50" height="20" fill="green" />
 <rect x="567.157" y="237.157" width="50" height="20" fill="green" />
 <rect x="617.157" y="237.157" width="50" height="20" fill="green" />
 <rect x="117.157" y="257.157" width="50" height="20" fill="green" />
 <rect x="167.157" y="257.157" width="50" height="20" fill="green" />
 <rect x="217.157" y="257.157" width="50" height="20" fill="green" />
 <rect x="267.157" y="257.157" width="50" height="20" fill="green" />
 <rect x="317.157" y="257.157" width="50" height="20" fill="green" />
 <rect x="367.157" y="257.157" width="50" height="20" fill="green" />
 <rect x="417.157" y="257.157" width="50" height="20" fill="green" />
 <rect x="467.157" y="257.157" width="50" height="20" fill="green" />
 <rect x="517.157" y="257.157" width="50" height="20" fill="green" />
 <rect x="567.157" y="257.157" width="50" height="20" fill="green" />
 <rect x="617.157" y="257.157" width="50" height="20" fill="green" />
 <rect x="117.157" y="277.157" width="50" height="20" fill="green" />
 <rect x="167.157" y="277.157" width="50" height="20" fill="green" />
 <rect x="217.157" y="277.157" width="50" height="20" fill="green" />
 <rect x="267.157" y="277.157" width="50" height="20" fill="green" />
 <rect x="317.157" y="277.157" width="50" height="20" fill="green" />
 <rect x="367.157" y="277.157" width="50" height="20" fill="green" />
 <rect x="417.157" y="277.157" width="50" height="20" fill="green" />
 <rect x="467.157" y="277.157" width="50" height="20" fill="green" />
 <rect x="517.157" y="277.157" width="50" height="20" fill="green" />
 <rect x="567.157" y="277.157" width="50" height="20" fill="green" />
 <rect x="617.157" y="277.157" width="50" height="20" fill="green" />
 <rect x="117.157" y="297.157" width="50" height="20" fill="green" />
 <rect x="167.157" y="297.157" width="50" height="20" fill="green" />
 <rect x="217.157" y="297.157" width="50" height="20" fill="green" />
 <rect x="267.157" y="297.157" width="50" height="20" fill="green" />
 <rect x="317.157" y="297.157" width="50" height="20" fill="green" />
 <rect x="367.157" y="297.157" width="50" height="20" fill="green" />
 <rect x="417.157" y="297.157" width="50" height="20" fill="green" />
 <rect x="467.157" y="297.157" width="50" height="20" fill="green" />
 <rect x="517.157" y="297.157" width="50" height="20" fill="green" />
 <rect x="567.157" y="297.157" width="50" height="20" fill="green" />
 <rect x="617.157" y="297.157" width="50" height="20" fill="green" />
 <rect x="117.157" y="317.157" width="50" height="20" fill="green" />
 <rect x="167.157" y="317.157" width="50" height="20" fill="green" />
 <rect x="217.157" y="317.157" width="50" height="20" fill="green" />
 <rect x="267.157" y="317.157" width="50" height="20" fill="green" />
 <rect x="317.157" y="317.157" width="50" height="20" fill="green" />
 <rect x="367.157" y="317.157" width="50" height="20" fill="green" />
 <rect x="417.157" y="317.157" width="50" height="20" fill="green" />
 <rect x="467.157" y="317.157" width="50" height="20" fill="green" />
 <rect x="517.157" y="317.157" width="50" height="20" fill="green" />
 <rect x="567.157" y="317.157" width="50" height="20" fill="green" />
 <rect x="617.157" y="317.157" width="50" height="20" fill="green" />
 <rect x="117.157" y="337.157" width="50" height="20" fill="green" />
 <rect x="167.157" y="337.157" width="50" height="20" fill="green" />
 <rect x="217.157" y="337.157" width="50" height="20" fill="green" />
 <rect x="267.157" y="337.157" width="50" height="20" fill="green" />
 <rect x="317.157" y="337.157" width="50" height="20" fill="green" />
 <rect x="367.157" y="337.157" width="50" height="20" fill="green" />
 <rect x="417.157" y="337.157" width="50" height="20" fill="green" />
 <rect x="467.157" y="337.157" width="50" height="20" fill="green" />
 <rect x="517.157" y="337.157" width="50" height="20" fill="green" />
 <rect x="567.157" y="337.157" width="50" height="20" fill="green" />
 <rect x="617.157" y="337.157" width="50" height="20" fill="green" />
 <rect x="117.157" y="357.157" width="50" height="20" fill="green" />
 <rect x="167.157" y="357.157" width="50" height="20" fill="green" />
 <rect x="217.157" y="357.157" width="50" height="20" fill="green" />
 <rect x="267.157" y="357.157" width="50" height="20" fill="green" />
 <rect x="317.157" y="357.157" width="50" height="20" fill="green" />
 <rect x="367.157" y="357.157" width="50" height="20" fill="green" />
 <rect x="417.157" y="357.157" width="50" height="20" fill="green" />
 <rect x="467.157" y="357.157" width="50" height="20" fill="green" />
 <rect x="517.157" y="357.157" width="50" height="20" fill="green" />
 <rect x="567.157" y="357.157" width="50" height="20" fill="green" />
 <rect x="617.157" y="357.157" width="50" height="20" fill="green" />
 <rect x="117.157" y="377.157" width="50" height="20" fill="green" />
 <rect x="167.157" y="377.157" width="50" height="20" fill="green" />
 <rect x="217.157" y="377.157" width="50" height="20" fill="green" />
 <rect x="267.157" y="377.157" width="50" height="20" fill="green" />
 <rect x="317.157" y="377.157" width="50" height="20" fill="green" />
 <rect x="367.157" y="377.157" width="50" height="20" fill="green" />
 <rect x="417.157" y="377.157" width="50" height="20" fill="green" />
 <rect x="467.157" y="377.157" width="50" height="20" fill="green" />
 <rect x="517.157" y="377.157" width="50" height="20" fill="green" />
 <rect x="567.157" y="377.157" width="50" height="20" fill="green" />
 <rect x="617.157" y="377.157" width="50" height="20" fill="green" />
 <rect x="117.157" y="397.157" width="50" height="20" fill="green" />
 <rect x="167.157" y="397.157" width="50" height="20" fill="green" />
 <rect x="217.157" y="397.157" width="50" height="20" fill="green" />
 <rect x="267.157" y="397.157" width="50" height="20" fill="green" />
 <rect x="317.157" y="397.157" width="50" height="20" fill="green" />
 <rect x="367.157" y="397.157" width="50" height="20" fill="green" />
 <rect x="417.157" y="397.157" width="50" height="20" fill="green" />
 <rect x="467.157" y="397.157" width="50" height="20" fill="green" />
 <rect x="517.157" y="397.157" width="50" height="20" fill="green" />
 <rect x="567.157" y="397.157" width="50" height="20" fill="green" />
 <rect x="617.157" y="397.157" width="50" height="20" fill="green" />
 <rect x="117.157" y="417.157" width="50" height="20" fill="green" />
 <rect x="167.157" y="417.157" width="50" height="20" fill="green" />
 <rect x="217.157" y="417.157" width="50" height="20" fill="green" />
 <rect x="267.157" y="417.157" width="50" height="20" fill="green" />
 <rect x="317.157" y="417.157" width="50" height="20" fill="green" />
 <rect x="367.157" y="417.157" width="50" height="20" fill="green" />
 <rect x="417.157" y="417.157" width="50" height="20" fill="green" />
 <rect x="467.157" y="417.157" width="50" height="20" fill="green" />
 <rect x="517.157" y="417.157" width="50" height="20" fill="green" />
 <rect x="567.157" y="417.157" width="50" height="20" fill="green" />
 <rect x="617.157" y="417.157" width="50" height="20" fill="green" />
 <rect x="117.157" y="437.157" width="50" height="20" fill="green" />
 <rect x="167.157" y="437.157" width="50" height="20" fill="green" />
 <rect x="217.157" y="437.157" width="50" height="20" fill="green" />
 <rect x="267.157" y="437.157" width="50" height="20" fill="green" />
 <rect x="317.157" y="437.157" width="50" height="20" fill="green" />
 <rect x="367.157" y="437.157" width="50" height="20" fill="green" />
 <rect x="417.157" y="437.157" width="50" height="20" fill="green" />
 <rect x="467.157" y="437.157" width="50" height="20" fill="green" />
 <rect x="517.157" y="437.157" width="50" height="20" fill="green" />
 <rect x="567.157" y="437.157" width="50" height="20" fill="green" />
 <rect x="617.157" y="437.157" width="50" height="20" fill="green" />
 <rect x="117.157" y="457.157" width="50" height="20" fill="green" />
 <rect x="167.157" y="457.157" width="50" height="20" fill="green" />
 <rect x="217.157" y="457.157" width="50" height="20" fill="green" />
 <rect x="267.157" y="457.157" width="50" height="20" fill="green" />
 <rect x="317.157" y="457.157" width="50" height="20" fill="green" />
 <rect x="367.157" y="457.157" width="50" height="20" fill="green" />
 <rect x="417.157" y="457.157" width="50" height="20" fill="green" />
 <rect x="467.157" y="457.157" width="50" height="20" fill="green" />
 <rect x="517.157" y="457.157" width="50" height="20" fill="green" />
 <rect x="567.157" y="457.157" width="50" height="20" fill="green" />
 <rect x="617.157" y="457.157" width="50" height="20" fill="green" />
 <rect x="117.157" y="477.157" width="50" height="20" fill="green" />
 <rect x="167.157" y="477.157" width="50" height="20" fill="green" />
 <rect x="217.157" y="477.157" width="50" height="20" fill="green" />
 <rect x="267.157" y="477.157" width="50" height="20" fill="green" />
 <rect x="317.157" y="477.157" width="50" height="20" fill="green" />
 <rect x="367.157" y="477.157" width="50" height="20" fill="green" />
 <rect x="417.157" y="477.157" width="50" height="20" fill="green" />
 <rect x="467.157" y="477.157" width="50" height="20" fill="green" />
 <rect x="517.157" y="477.157" width="50" height="20" fill="green" />
 <rect x="567.157" y="477.157" width="50" height="20" fill="green" />
 <rect x="617.157" y="477.157" width="50" height="20" fill="green" />
 <rect x="117.157" y="497.157" width="50" height="20" fill="green" />
 <rect x="167.157" y="497.157" width="50" height="20" fill="green" />
 <rect x="217.157" y="497.157" width="50" height="20" fill="green" />
 <rect x="267.157" y="497.157" width="50" height="20" fill="green" />
 <rect x="317.157" y="497.157" width="50" height="20" fill="green" />
 <rect x="367.157" y="497.157" width="50" height="20" fill="green" />
 <rect x="417.157" y="497.157" width="50" height="20" fill="green" />
 <rect x="467.157" y="497.157" width="50" height="20" fill="green" />
 <rect x="517.157" y="497.157" width="50" height="20" fill="green" />
 <rect x="567.157" y="497.157" width="50" height="20" fill="green" />
 <rect x="617.157" y="497.157" width="50" height="20" fill="green" />
 <rect x="117.157" y="517.157" width="50" height="20" fill="green" />
 <rect x="167.157" y="517.157" width="50" height="20" fill="green" />
 <rect x="217.157" y="517.157" width="50" height="20" fill="green" />
 <rect x="267.157" y="517.157" width="50" height="20" fill="green" />
 <rect x="317.157" y="517.157" width="50" height="20" fill="green" />
 <rect x="367.157" y="517.157" width="50" height="20" fill="green" />
 <rect x="417.157" y="517.157" width="50" height="20" fill="green" />
 <rect x="467.157" y="517.157" width="50" height="20" fill="green" />
 <rect x="517.157" y="517.157" width="50" height="20" fill="green" />
 <rect x="567.157" y="517.157" width="50" height="20" fill="green" />
 <rect x="617.157" y="517.157" width="50" height="20" fill="green" />
 <rect x="117.157" y="537.157" width="50" height="20" fill="green" />
 <rect x="167.157" y="537.157" width="50" height="20" fill="green" />
 <rect x="217.157" y="537.157" width="50" height="20" fill="green" />
 <rect x="267.157" y="537.157" width="50" height="20" fill="green" />
 <rect x="317.157" y="537.157" width="50" height="20" fill="green" />
 <rect x="367.157" y="537.157" width="50" height="20" fill="green" />
 <rect x="417.157" y="537.157" width="50" height="20" fill="green" />
 <rect x="467.157" y="537.157" width="50" height="20" fill="green" />
 <rect x="517.157" y="537.157" width="50" height="20" fill="green" />
 <rect x="567.157" y="537.157" width="50" height="20" fill="green" />
 <rect x="617.157" y="537.157" width="50" height="20" fill="green" />
 <rect x="117.157" y="557.157" width="50" height="20" fill="green" />
 <rect x="167.157" y="557.157" width="50" height="20" fill="green" />
 <rect x="217.157" y="557.157" width="50" height="20" fill="green" />
 <rect x="267.157" y="557.157" width="50" height="20" fill="green" />
 <rect x="317.157" y="557.157" width="50" height="20" fill="green" />
 <rect x="367.157" y="557.157" width="50" height="20" fill="green" />
 <rect x="417.157" y="557.157" width="50" height="20" fill="green" />
 <rect x="467.157" y="557.157" width="50" height="20" fill="green" />
 <rect x="517.157" y="557.157" width="50" height="20" fill="green" />
 <rect x="567.157" y="557.157" width="50" height="20" fill="green" />
 <rect x="617.157" y="557.157" width="50" height="20" fill="green" />
 <rect x="117.157" y="577.157" width="50" height="20" fill="green" />
 <rect x="167.157" y="577.157" width="50" height="20" fill="green" />
 <rect x="217.157" y="577.157" width="50" height="20" fill="green" />
 <rect x="267.157" y="577.157" width="50" height="20" fill="green" />
 <rect x="317.157" y="577.157" width="50" height="20" fill="green" />
 <rect x="367.157" y="577.157" width="50" height="20" fill="green" />
 <rect x="417.157" y="577.157" width="50" height="20" fill="green" />
 <rect x="467.157" y="577.157" width="50" height="20" fill="green" />
 <rect x="517.157" y="577.157" width="50" height="20" fill="green" />
 <rect x="567.157" y="577.157" width="50" height="20" fill="green" />
 <rect x="617.157" y="577.157" width="50" height="20" fill="green" />
 <rect x="117.157" y="597.157" width="50" height="20" fill="green" />
 <rect x="167.157" y="597.157" width="50" height="20" fill="green" />
 <rect x="217.157" y="597.157" width="50" height="20" fill="green" />
 <rect x="267.157" y="597.157" width="50" height="20" fill="green" />
 <rect x="317.157" y="597.157" width="50" height="20" fill="green" />
 <rect x="367.157" y="597.157" width="50" height="20" fill="green" />
 <rect x="417.157" y="597.157" width="50" height="20" fill="green" />
 <rect x="467.157" y="597.157" width="50" height="20" fill="green" />
 <rect x="517.157" y="597.157" width="50" height="20" fill="green" />
 <rect x="567.157" y="597.157" width="50" height="20" fill="green" />
 <rect x="617.157" y="597.157" width="50" height="20" fill="green" />
 <rect x="117.157" y="617.157" width="50" height="20" fill="green" />
 <rect x="167.157" y="617.157" width="50" height="20" fill="green" />
 <rect x="217.157" y="617.157" width="50" height="20" fill="green" />
 <rect x="267.157" y="617.157" width="50" height="20" fill="green" />
 <rect x="317.157" y="617.157" width="50" height="20" fill="green" />
 <rect x="367.157" y="617.157" width="50" height="20" fill="green" />
 <rect x="417.157" y="617.157" width="50" height="20" fill="green" />
 <rect x="467.157" y="617.157" width="50" height="20" fill="green" />
 <rect x="517.157" y="617.157" width="50" height="20" fill="green" />
 <rect x="567.157" y="617.157" width="50" height="20" fill="green" />
 <rect x="617.157" y="617.157" width="50" height="20" fill="green" />
 <rect x="117.157" y="637.157" width="50" height="20" fill="green" />
 <rect x="167.157" y="637.157" width="50" height="20" fill="green" />
 <rect x="217.157" y="637.157" width="50" height="20" fill="green" />
 <rect x="267.157" y="637.157" width="50" height="20" fill="green" />
 <rect x="317.157" y="637.157" width="50" height="20" fill="green" />
 <rect x="367.157" y="637.157" width="50" height="20" fill="green" />
 <rect x="417.157" y="637.157" width="50" height="20" fill="green" />
 <rect x="467.157" y="637.157" width="50" height="20" fill="green" />
 <rect x="517.157" y="637.157" width="50" height="20" fill="green" />
 <rect x="567.157" y="637.157" width="50" height="20" fill="green" />
 <rect x="617.157" y="637.157" width="50" height="20" fill="green" />
 <rect x="117.157" y="657.157" width="50" height="20" fill="green" />
 <rect x="167.157" y="657.157" width="50" height="20" fill="green" />
 <rect x="217.157" y="657.157" width="50" height="20" fill="green" />
 <rect x="267.157" y="657.157" width="50" height="20" fill="green" />
 <rect x="317.157" y="657.157" width="50" height="20" fill="green" />
 <rect x="367.157" y="657.157" width="50" height="20" fill="green" />
 <rect x="417.157" y="657.157" width="50" height="20" fill="green" />
 <rect x="467.157" y="657.157" width="50" height="20" fill="green" />
 <rect x="517.157" y="657.157" width="50" height="20" fill="green" />
 <rect x="567.157" y="657.157" width="50" height="20" fill="green" />
 <rect x="617.157" y="657.157" width="50" height="20" fill="green" />
 </svg> 
