<svg version="1.1" baseProfile="full" width="100%" height="100%" xmlns="http://www.w3.org/2000/svg"> 
 <rect width="300" height="425" fill="red" /> 
 <rect x="0" y="0" width="67" height="24" fill="green" />
 <rect x="67" y="0" width="67" height="24" fill="green" />
 <rect x="134" y="0" width="67" height="24" fill="green" />
 <rect x="201" y="0" width="67" height="24" fill="green" />
 <rect x="0" y="24" width="67" height="24" fill="green" />
 <rect x="67" y="24" width="67" height="24" fill="green" />
 <rect x="134" y="24" width="67" height="24" fill="green" />
 <rect x="201" y="24" width="67" height="24" fill="green" />
 <rect x="0" y="48" width="67" height="24" fill="green" />
 <rect x="67" y="48" width="67" height="24" fill="green" />
 <rect x="134" y="48" width="67" height="24" fill="green" />
 <rect x="201" y="48" width="67" height="24" fill="green" />
 <rect x="0" y="72" width="67" height="24" fill="green" />
 <rect x="67" y="72" width="67" height="24" fill="green" />
 <rect x="134" y="72" width="67" height="24" fill="green" />
 <rect x="201" y="72" width="67" height="24" fill="green" />
 <rect x="0" y="96" width="67" height="24" fill="green" />
 <rect x="67" y="96" width="67" height="24" fill="green" />
 <rect x="134" y="96" width="67" height="24" fill="green" />
 <rect x="201" y="96" width="67" height="24" fill="green" />
 <rect x="0" y="120" width="67" height="24" fill="green" />
 <rect x="67" y="120" width="67" height="24" fill="green" />
 <rect x="134" y="120" width="67" height="24" fill="green" />
 <rect x="201" y="120" width="67" height="24" fill="green" />
 <rect x="0" y="144" width="67" height="24" fill="green" />
 <rect x="67" y="144" width="67" height="24" fill="green" />
 <rect x="134" y="144" width="67" height="24" fill="green" />
 <rect x="201" y="144" width="67" height="24" fill="green" />
 <rect x="0" y="168" width="67" height="24" fill="green" />
 <rect x="67" y="168" width="67" height="24" fill="green" />
 <rect x="134" y="168" width="67" height="24" fill="green" />
 <rect x="201" y="168" width="67" height="24" fill="green" />
 <rect x="0" y="192" width="67" height="24" fill="green" />
 <rect x="67" y="192" width="67" height="24" fill="green" />
 <rect x="134" y="192" width="67" height="24" fill="green" />
 <rect x="201" y="192" width="67" height="24" fill="green" />
 <rect x="0" y="216" width="67" height="24" fill="green" />
 <rect x="67" y="216" width="67" height="24" fill="green" />
 <rect x="134" y="216" width="67" height="24" fill="green" />
 <rect x="201" y="216" width="67" height="24" fill="green" />
 <rect x="0" y="240" width="67" height="24" fill="green" />
 <rect x="67" y="240" width="67" height="24" fill="green" />
 <rect x="134" y="240" width="67" height="24" fill="green" />
 <rect x="201" y="240" width="67" height="24" fill="green" />
 <rect x="0" y="264" width="67" height="24" fill="green" />
 <rect x="67" y="264" width="67" height="24" fill="green" />
 <rect x="134" y="264" width="67" height="24" fill="green" />
 <rect x="201" y="264" width="67" height="24" fill="green" />
 <rect x="0" y="288" width="67" height="24" fill="green" />
 <rect x="67" y="288" width="67" height="24" fill="green" />
 <rect x="134" y="288" width="67" height="24" fill="green" />
 <rect x="201" y="288" width="67" height="24" fill="green" />
 <rect x="0" y="312" width="67" height="24" fill="green" />
 <rect x="67" y="312" width="67" height="24" fill="green" />
 <rect x="134" y="312" width="67" height="24" fill="green" />
 <rect x="201" y="312" width="67" height="24" fill="green" />
 <rect x="0" y="336" width="67" height="24" fill="green" />
 <rect x="67" y="336" width="67" height="24" fill="green" />
 <rect x="134" y="336" width="67" height="24" fill="green" />
 <rect x="201" y="336" width="67" height="24" fill="green" />
 <rect x="0" y="360" width="67" height="24" fill="green" />
 <rect x="67" y="360" width="67" height="24" fill="green" />
 <rect x="134" y="360" width="67" height="24" fill="green" />
 <rect x="201" y="360" width="67" height="24" fill="green" />
 <rect x="0" y="384" width="67" height="24" fill="green" />
 <rect x="67" y="384" width="67" height="24" fill="green" />
 <rect x="134" y="384" width="67" height="24" fill="green" />
 <rect x="201" y="384" width="67" height="24" fill="green" />
 <rect x="268" y="0" width="24" height="67" fill="green" />
 <rect x="268" y="67" width="24" height="67" fill="green" />
 <rect x="268" y="134" width="24" height="67" fill="green" />
 <rect x="268" y="201" width="24" height="67" fill="green" />
 <rect x="268" y="268" width="24" height="67" fill="green" />
 <rect x="268" y="335" width="24" height="67" fill="green" />
 </svg> 
