<svg version="1.1" baseProfile="full" width="100%" height="100%" xmlns="http://www.w3.org/2000/svg"> <polygon  points="145 0 0 251.147 290 251.147" fill="red"/> 
 <rect x="129" y="26" width="20" height="15" fill="green" />
 <rect x="121" y="41" width="20" height="15" fill="green" />
 <rect x="141" y="41" width="20" height="15" fill="green" />
 <rect x="112" y="56" width="20" height="15" fill="green" />
 <rect x="132" y="56" width="20" height="15" fill="green" />
 <rect x="152" y="56" width="20" height="15" fill="green" />
 <rect x="103" y="71" width="20" height="15" fill="green" />
 <rect x="123" y="71" width="20" height="15" fill="green" />
 <rect x="143" y="71" width="20" height="15" fill="green" />
 <rect x="163" y="71" width="20" height="15" fill="green" />
 <rect x="95" y="86" width="20" height="15" fill="green" />
 <rect x="115" y="86" width="20" height="15" fill="green" />
 <rect x="135" y="86" width="20" height="15" fill="green" />
 <rect x="155" y="86" width="20" height="15" fill="green" />
 <rect x="86" y="101" width="20" height="15" fill="green" />
 <rect x="106" y="101" width="20" height="15" fill="green" />
 <rect x="126" y="101" width="20" height="15" fill="green" />
 <rect x="146" y="101" width="20" height="15" fill="green" />
 <rect x="166" y="101" width="20" height="15" fill="green" />
 <rect x="77" y="116" width="20" height="15" fill="green" />
 <rect x="97" y="116" width="20" height="15" fill="green" />
 <rect x="117" y="116" width="20" height="15" fill="green" />
 <rect x="137" y="116" width="20" height="15" fill="green" />
 <rect x="157" y="116" width="20" height="15" fill="green" />
 <rect x="177" y="116" width="20" height="15" fill="green" />
 <rect x="69" y="131" width="20" height="15" fill="green" />
 <rect x="89" y="131" width="20" height="15" fill="green" />
 <rect x="109" y="131" width="20" height="15" fill="green" />
 <rect x="129" y="131" width="20" height="15" fill="green" />
 <rect x="149" y="131" width="20" height="15" fill="green" />
 <rect x="169" y="131" width="20" height="15" fill="green" />
 <rect x="189" y="131" width="20" height="15" fill="green" />
 <rect x="60" y="146" width="20" height="15" fill="green" />
 <rect x="80" y="146" width="20" height="15" fill="green" />
 <rect x="100" y="146" width="20" height="15" fill="green" />
 <rect x="120" y="146" width="20" height="15" fill="green" />
 <rect x="140" y="146" width="20" height="15" fill="green" />
 <rect x="160" y="146" width="20" height="15" fill="green" />
 <rect x="180" y="146" width="20" height="15" fill="green" />
 <rect x="200" y="146" width="20" height="15" fill="green" />
 <rect x="51" y="161" width="20" height="15" fill="green" />
 <rect x="71" y="161" width="20" height="15" fill="green" />
 <rect x="91" y="161" width="20" height="15" fill="green" />
 <rect x="111" y="161" width="20" height="15" fill="green" />
 <rect x="131" y="161" width="20" height="15" fill="green" />
 <rect x="151" y="161" width="20" height="15" fill="green" />
 <rect x="171" y="161" width="20" height="15" fill="green" />
 <rect x="191" y="161" width="20" height="15" fill="green" />
 <rect x="211" y="161" width="20" height="15" fill="green" />
 <rect x="43" y="176" width="20" height="15" fill="green" />
 <rect x="63" y="176" width="20" height="15" fill="green" />
 <rect x="83" y="176" width="20" height="15" fill="green" />
 <rect x="103" y="176" width="20" height="15" fill="green" />
 <rect x="123" y="176" width="20" height="15" fill="green" />
 <rect x="143" y="176" width="20" height="15" fill="green" />
 <rect x="163" y="176" width="20" height="15" fill="green" />
 <rect x="183" y="176" width="20" height="15" fill="green" />
 <rect x="203" y="176" width="20" height="15" fill="green" />
 <rect x="223" y="176" width="20" height="15" fill="green" />
 <rect x="34" y="191" width="20" height="15" fill="green" />
 <rect x="54" y="191" width="20" height="15" fill="green" />
 <rect x="74" y="191" width="20" height="15" fill="green" />
 <rect x="94" y="191" width="20" height="15" fill="green" />
 <rect x="114" y="191" width="20" height="15" fill="green" />
 <rect x="134" y="191" width="20" height="15" fill="green" />
 <rect x="154" y="191" width="20" height="15" fill="green" />
 <rect x="174" y="191" width="20" height="15" fill="green" />
 <rect x="194" y="191" width="20" height="15" fill="green" />
 <rect x="214" y="191" width="20" height="15" fill="green" />
 <rect x="234" y="191" width="20" height="15" fill="green" />
 <rect x="25" y="206" width="20" height="15" fill="green" />
 <rect x="45" y="206" width="20" height="15" fill="green" />
 <rect x="65" y="206" width="20" height="15" fill="green" />
 <rect x="85" y="206" width="20" height="15" fill="green" />
 <rect x="105" y="206" width="20" height="15" fill="green" />
 <rect x="125" y="206" width="20" height="15" fill="green" />
 <rect x="145" y="206" width="20" height="15" fill="green" />
 <rect x="165" y="206" width="20" height="15" fill="green" />
 <rect x="185" y="206" width="20" height="15" fill="green" />
 <rect x="205" y="206" width="20" height="15" fill="green" />
 <rect x="225" y="206" width="20" height="15" fill="green" />
 <rect x="17" y="221" width="20" height="15" fill="green" />
 <rect x="37" y="221" width="20" height="15" fill="green" />
 <rect x="57" y="221" width="20" height="15" fill="green" />
 <rect x="77" y="221" width="20" height="15" fill="green" />
 <rect x="97" y="221" width="20" height="15" fill="green" />
 <rect x="117" y="221" width="20" height="15" fill="green" />
 <rect x="137" y="221" width="20" height="15" fill="green" />
 <rect x="157" y="221" width="20" height="15" fill="green" />
 <rect x="177" y="221" width="20" height="15" fill="green" />
 <rect x="197" y="221" width="20" height="15" fill="green" />
 <rect x="217" y="221" width="20" height="15" fill="green" />
 <rect x="237" y="221" width="20" height="15" fill="green" />
 <rect x="8" y="236" width="20" height="15" fill="green" />
 <rect x="28" y="236" width="20" height="15" fill="green" />
 <rect x="48" y="236" width="20" height="15" fill="green" />
 <rect x="68" y="236" width="20" height="15" fill="green" />
 <rect x="88" y="236" width="20" height="15" fill="green" />
 <rect x="108" y="236" width="20" height="15" fill="green" />
 <rect x="128" y="236" width="20" height="15" fill="green" />
 <rect x="148" y="236" width="20" height="15" fill="green" />
 <rect x="168" y="236" width="20" height="15" fill="green" />
 <rect x="188" y="236" width="20" height="15" fill="green" />
 <rect x="208" y="236" width="20" height="15" fill="green" />
 <rect x="228" y="236" width="20" height="15" fill="green" />
 <rect x="248" y="236" width="20" height="15" fill="green" />
 </svg> 
