<svg version="1.1" baseProfile="full" width="100%" height="100%" xmlns="http://www.w3.org/2000/svg">  <circle cx="200" cy="200" r="200" fill="red" /> 
 <rect x="58" y="58" width="20" height="15" fill="green" />
 <rect x="78" y="58" width="20" height="15" fill="green" />
 <rect x="98" y="58" width="20" height="15" fill="green" />
 <rect x="118" y="58" width="20" height="15" fill="green" />
 <rect x="138" y="58" width="20" height="15" fill="green" />
 <rect x="158" y="58" width="20" height="15" fill="green" />
 <rect x="178" y="58" width="20" height="15" fill="green" />
 <rect x="198" y="58" width="20" height="15" fill="green" />
 <rect x="218" y="58" width="20" height="15" fill="green" />
 <rect x="238" y="58" width="20" height="15" fill="green" />
 <rect x="258" y="58" width="20" height="15" fill="green" />
 <rect x="278" y="58" width="20" height="15" fill="green" />
 <rect x="298" y="58" width="20" height="15" fill="green" />
 <rect x="318" y="58" width="20" height="15" fill="green" />
 <rect x="58" y="73" width="20" height="15" fill="green" />
 <rect x="78" y="73" width="20" height="15" fill="green" />
 <rect x="98" y="73" width="20" height="15" fill="green" />
 <rect x="118" y="73" width="20" height="15" fill="green" />
 <rect x="138" y="73" width="20" height="15" fill="green" />
 <rect x="158" y="73" width="20" height="15" fill="green" />
 <rect x="178" y="73" width="20" height="15" fill="green" />
 <rect x="198" y="73" width="20" height="15" fill="green" />
 <rect x="218" y="73" width="20" height="15" fill="green" />
 <rect x="238" y="73" width="20" height="15" fill="green" />
 <rect x="258" y="73" width="20" height="15" fill="green" />
 <rect x="278" y="73" width="20" height="15" fill="green" />
 <rect x="298" y="73" width="20" height="15" fill="green" />
 <rect x="318" y="73" width="20" height="15" fill="green" />
 <rect x="58" y="88" width="20" height="15" fill="green" />
 <rect x="78" y="88" width="20" height="15" fill="green" />
 <rect x="98" y="88" width="20" height="15" fill="green" />
 <rect x="118" y="88" width="20" height="15" fill="green" />
 <rect x="138" y="88" width="20" height="15" fill="green" />
 <rect x="158" y="88" width="20" height="15" fill="green" />
 <rect x="178" y="88" width="20" height="15" fill="green" />
 <rect x="198" y="88" width="20" height="15" fill="green" />
 <rect x="218" y="88" width="20" height="15" fill="green" />
 <rect x="238" y="88" width="20" height="15" fill="green" />
 <rect x="258" y="88" width="20" height="15" fill="green" />
 <rect x="278" y="88" width="20" height="15" fill="green" />
 <rect x="298" y="88" width="20" height="15" fill="green" />
 <rect x="318" y="88" width="20" height="15" fill="green" />
 <rect x="58" y="103" width="20" height="15" fill="green" />
 <rect x="78" y="103" width="20" height="15" fill="green" />
 <rect x="98" y="103" width="20" height="15" fill="green" />
 <rect x="118" y="103" width="20" height="15" fill="green" />
 <rect x="138" y="103" width="20" height="15" fill="green" />
 <rect x="158" y="103" width="20" height="15" fill="green" />
 <rect x="178" y="103" width="20" height="15" fill="green" />
 <rect x="198" y="103" width="20" height="15" fill="green" />
 <rect x="218" y="103" width="20" height="15" fill="green" />
 <rect x="238" y="103" width="20" height="15" fill="green" />
 <rect x="258" y="103" width="20" height="15" fill="green" />
 <rect x="278" y="103" width="20" height="15" fill="green" />
 <rect x="298" y="103" width="20" height="15" fill="green" />
 <rect x="318" y="103" width="20" height="15" fill="green" />
 <rect x="58" y="118" width="20" height="15" fill="green" />
 <rect x="78" y="118" width="20" height="15" fill="green" />
 <rect x="98" y="118" width="20" height="15" fill="green" />
 <rect x="118" y="118" width="20" height="15" fill="green" />
 <rect x="138" y="118" width="20" height="15" fill="green" />
 <rect x="158" y="118" width="20" height="15" fill="green" />
 <rect x="178" y="118" width="20" height="15" fill="green" />
 <rect x="198" y="118" width="20" height="15" fill="green" />
 <rect x="218" y="118" width="20" height="15" fill="green" />
 <rect x="238" y="118" width="20" height="15" fill="green" />
 <rect x="258" y="118" width="20" height="15" fill="green" />
 <rect x="278" y="118" width="20" height="15" fill="green" />
 <rect x="298" y="118" width="20" height="15" fill="green" />
 <rect x="318" y="118" width="20" height="15" fill="green" />
 <rect x="58" y="133" width="20" height="15" fill="green" />
 <rect x="78" y="133" width="20" height="15" fill="green" />
 <rect x="98" y="133" width="20" height="15" fill="green" />
 <rect x="118" y="133" width="20" height="15" fill="green" />
 <rect x="138" y="133" width="20" height="15" fill="green" />
 <rect x="158" y="133" width="20" height="15" fill="green" />
 <rect x="178" y="133" width="20" height="15" fill="green" />
 <rect x="198" y="133" width="20" height="15" fill="green" />
 <rect x="218" y="133" width="20" height="15" fill="green" />
 <rect x="238" y="133" width="20" height="15" fill="green" />
 <rect x="258" y="133" width="20" height="15" fill="green" />
 <rect x="278" y="133" width="20" height="15" fill="green" />
 <rect x="298" y="133" width="20" height="15" fill="green" />
 <rect x="318" y="133" width="20" height="15" fill="green" />
 <rect x="58" y="148" width="20" height="15" fill="green" />
 <rect x="78" y="148" width="20" height="15" fill="green" />
 <rect x="98" y="148" width="20" height="15" fill="green" />
 <rect x="118" y="148" width="20" height="15" fill="green" />
 <rect x="138" y="148" width="20" height="15" fill="green" />
 <rect x="158" y="148" width="20" height="15" fill="green" />
 <rect x="178" y="148" width="20" height="15" fill="green" />
 <rect x="198" y="148" width="20" height="15" fill="green" />
 <rect x="218" y="148" width="20" height="15" fill="green" />
 <rect x="238" y="148" width="20" height="15" fill="green" />
 <rect x="258" y="148" width="20" height="15" fill="green" />
 <rect x="278" y="148" width="20" height="15" fill="green" />
 <rect x="298" y="148" width="20" height="15" fill="green" />
 <rect x="318" y="148" width="20" height="15" fill="green" />
 <rect x="58" y="163" width="20" height="15" fill="green" />
 <rect x="78" y="163" width="20" height="15" fill="green" />
 <rect x="98" y="163" width="20" height="15" fill="green" />
 <rect x="118" y="163" width="20" height="15" fill="green" />
 <rect x="138" y="163" width="20" height="15" fill="green" />
 <rect x="158" y="163" width="20" height="15" fill="green" />
 <rect x="178" y="163" width="20" height="15" fill="green" />
 <rect x="198" y="163" width="20" height="15" fill="green" />
 <rect x="218" y="163" width="20" height="15" fill="green" />
 <rect x="238" y="163" width="20" height="15" fill="green" />
 <rect x="258" y="163" width="20" height="15" fill="green" />
 <rect x="278" y="163" width="20" height="15" fill="green" />
 <rect x="298" y="163" width="20" height="15" fill="green" />
 <rect x="318" y="163" width="20" height="15" fill="green" />
 <rect x="58" y="178" width="20" height="15" fill="green" />
 <rect x="78" y="178" width="20" height="15" fill="green" />
 <rect x="98" y="178" width="20" height="15" fill="green" />
 <rect x="118" y="178" width="20" height="15" fill="green" />
 <rect x="138" y="178" width="20" height="15" fill="green" />
 <rect x="158" y="178" width="20" height="15" fill="green" />
 <rect x="178" y="178" width="20" height="15" fill="green" />
 <rect x="198" y="178" width="20" height="15" fill="green" />
 <rect x="218" y="178" width="20" height="15" fill="green" />
 <rect x="238" y="178" width="20" height="15" fill="green" />
 <rect x="258" y="178" width="20" height="15" fill="green" />
 <rect x="278" y="178" width="20" height="15" fill="green" />
 <rect x="298" y="178" width="20" height="15" fill="green" />
 <rect x="318" y="178" width="20" height="15" fill="green" />
 <rect x="58" y="193" width="20" height="15" fill="green" />
 <rect x="78" y="193" width="20" height="15" fill="green" />
 <rect x="98" y="193" width="20" height="15" fill="green" />
 <rect x="118" y="193" width="20" height="15" fill="green" />
 <rect x="138" y="193" width="20" height="15" fill="green" />
 <rect x="158" y="193" width="20" height="15" fill="green" />
 <rect x="178" y="193" width="20" height="15" fill="green" />
 <rect x="198" y="193" width="20" height="15" fill="green" />
 <rect x="218" y="193" width="20" height="15" fill="green" />
 <rect x="238" y="193" width="20" height="15" fill="green" />
 <rect x="258" y="193" width="20" height="15" fill="green" />
 <rect x="278" y="193" width="20" height="15" fill="green" />
 <rect x="298" y="193" width="20" height="15" fill="green" />
 <rect x="318" y="193" width="20" height="15" fill="green" />
 <rect x="58" y="208" width="20" height="15" fill="green" />
 <rect x="78" y="208" width="20" height="15" fill="green" />
 <rect x="98" y="208" width="20" height="15" fill="green" />
 <rect x="118" y="208" width="20" height="15" fill="green" />
 <rect x="138" y="208" width="20" height="15" fill="green" />
 <rect x="158" y="208" width="20" height="15" fill="green" />
 <rect x="178" y="208" width="20" height="15" fill="green" />
 <rect x="198" y="208" width="20" height="15" fill="green" />
 <rect x="218" y="208" width="20" height="15" fill="green" />
 <rect x="238" y="208" width="20" height="15" fill="green" />
 <rect x="258" y="208" width="20" height="15" fill="green" />
 <rect x="278" y="208" width="20" height="15" fill="green" />
 <rect x="298" y="208" width="20" height="15" fill="green" />
 <rect x="318" y="208" width="20" height="15" fill="green" />
 <rect x="58" y="223" width="20" height="15" fill="green" />
 <rect x="78" y="223" width="20" height="15" fill="green" />
 <rect x="98" y="223" width="20" height="15" fill="green" />
 <rect x="118" y="223" width="20" height="15" fill="green" />
 <rect x="138" y="223" width="20" height="15" fill="green" />
 <rect x="158" y="223" width="20" height="15" fill="green" />
 <rect x="178" y="223" width="20" height="15" fill="green" />
 <rect x="198" y="223" width="20" height="15" fill="green" />
 <rect x="218" y="223" width="20" height="15" fill="green" />
 <rect x="238" y="223" width="20" height="15" fill="green" />
 <rect x="258" y="223" width="20" height="15" fill="green" />
 <rect x="278" y="223" width="20" height="15" fill="green" />
 <rect x="298" y="223" width="20" height="15" fill="green" />
 <rect x="318" y="223" width="20" height="15" fill="green" />
 <rect x="58" y="238" width="20" height="15" fill="green" />
 <rect x="78" y="238" width="20" height="15" fill="green" />
 <rect x="98" y="238" width="20" height="15" fill="green" />
 <rect x="118" y="238" width="20" height="15" fill="green" />
 <rect x="138" y="238" width="20" height="15" fill="green" />
 <rect x="158" y="238" width="20" height="15" fill="green" />
 <rect x="178" y="238" width="20" height="15" fill="green" />
 <rect x="198" y="238" width="20" height="15" fill="green" />
 <rect x="218" y="238" width="20" height="15" fill="green" />
 <rect x="238" y="238" width="20" height="15" fill="green" />
 <rect x="258" y="238" width="20" height="15" fill="green" />
 <rect x="278" y="238" width="20" height="15" fill="green" />
 <rect x="298" y="238" width="20" height="15" fill="green" />
 <rect x="318" y="238" width="20" height="15" fill="green" />
 <rect x="58" y="253" width="20" height="15" fill="green" />
 <rect x="78" y="253" width="20" height="15" fill="green" />
 <rect x="98" y="253" width="20" height="15" fill="green" />
 <rect x="118" y="253" width="20" height="15" fill="green" />
 <rect x="138" y="253" width="20" height="15" fill="green" />
 <rect x="158" y="253" width="20" height="15" fill="green" />
 <rect x="178" y="253" width="20" height="15" fill="green" />
 <rect x="198" y="253" width="20" height="15" fill="green" />
 <rect x="218" y="253" width="20" height="15" fill="green" />
 <rect x="238" y="253" width="20" height="15" fill="green" />
 <rect x="258" y="253" width="20" height="15" fill="green" />
 <rect x="278" y="253" width="20" height="15" fill="green" />
 <rect x="298" y="253" width="20" height="15" fill="green" />
 <rect x="318" y="253" width="20" height="15" fill="green" />
 <rect x="58" y="268" width="20" height="15" fill="green" />
 <rect x="78" y="268" width="20" height="15" fill="green" />
 <rect x="98" y="268" width="20" height="15" fill="green" />
 <rect x="118" y="268" width="20" height="15" fill="green" />
 <rect x="138" y="268" width="20" height="15" fill="green" />
 <rect x="158" y="268" width="20" height="15" fill="green" />
 <rect x="178" y="268" width="20" height="15" fill="green" />
 <rect x="198" y="268" width="20" height="15" fill="green" />
 <rect x="218" y="268" width="20" height="15" fill="green" />
 <rect x="238" y="268" width="20" height="15" fill="green" />
 <rect x="258" y="268" width="20" height="15" fill="green" />
 <rect x="278" y="268" width="20" height="15" fill="green" />
 <rect x="298" y="268" width="20" height="15" fill="green" />
 <rect x="318" y="268" width="20" height="15" fill="green" />
 <rect x="58" y="283" width="20" height="15" fill="green" />
 <rect x="78" y="283" width="20" height="15" fill="green" />
 <rect x="98" y="283" width="20" height="15" fill="green" />
 <rect x="118" y="283" width="20" height="15" fill="green" />
 <rect x="138" y="283" width="20" height="15" fill="green" />
 <rect x="158" y="283" width="20" height="15" fill="green" />
 <rect x="178" y="283" width="20" height="15" fill="green" />
 <rect x="198" y="283" width="20" height="15" fill="green" />
 <rect x="218" y="283" width="20" height="15" fill="green" />
 <rect x="238" y="283" width="20" height="15" fill="green" />
 <rect x="258" y="283" width="20" height="15" fill="green" />
 <rect x="278" y="283" width="20" height="15" fill="green" />
 <rect x="298" y="283" width="20" height="15" fill="green" />
 <rect x="318" y="283" width="20" height="15" fill="green" />
 <rect x="58" y="298" width="20" height="15" fill="green" />
 <rect x="78" y="298" width="20" height="15" fill="green" />
 <rect x="98" y="298" width="20" height="15" fill="green" />
 <rect x="118" y="298" width="20" height="15" fill="green" />
 <rect x="138" y="298" width="20" height="15" fill="green" />
 <rect x="158" y="298" width="20" height="15" fill="green" />
 <rect x="178" y="298" width="20" height="15" fill="green" />
 <rect x="198" y="298" width="20" height="15" fill="green" />
 <rect x="218" y="298" width="20" height="15" fill="green" />
 <rect x="238" y="298" width="20" height="15" fill="green" />
 <rect x="258" y="298" width="20" height="15" fill="green" />
 <rect x="278" y="298" width="20" height="15" fill="green" />
 <rect x="298" y="298" width="20" height="15" fill="green" />
 <rect x="318" y="298" width="20" height="15" fill="green" />
 <rect x="58" y="313" width="20" height="15" fill="green" />
 <rect x="78" y="313" width="20" height="15" fill="green" />
 <rect x="98" y="313" width="20" height="15" fill="green" />
 <rect x="118" y="313" width="20" height="15" fill="green" />
 <rect x="138" y="313" width="20" height="15" fill="green" />
 <rect x="158" y="313" width="20" height="15" fill="green" />
 <rect x="178" y="313" width="20" height="15" fill="green" />
 <rect x="198" y="313" width="20" height="15" fill="green" />
 <rect x="218" y="313" width="20" height="15" fill="green" />
 <rect x="238" y="313" width="20" height="15" fill="green" />
 <rect x="258" y="313" width="20" height="15" fill="green" />
 <rect x="278" y="313" width="20" height="15" fill="green" />
 <rect x="298" y="313" width="20" height="15" fill="green" />
 <rect x="318" y="313" width="20" height="15" fill="green" />
 </svg> 
