<svg version="1.1" baseProfile="full" width="100%" height="100%" xmlns="http://www.w3.org/2000/svg"> 
 <rect width="120" height="300" fill="red" /> 
 <circle cx="10" cy="10" r="10" fill="green" /> 
 <circle cx="30" cy="10" r="10" fill="green" /> 
 <circle cx="50" cy="10" r="10" fill="green" /> 
 <circle cx="70" cy="10" r="10" fill="green" /> 
 <circle cx="90" cy="10" r="10" fill="green" /> 
 <circle cx="110" cy="10" r="10" fill="green" /> 
 <circle cx="10" cy="30" r="10" fill="green" /> 
 <circle cx="30" cy="30" r="10" fill="green" /> 
 <circle cx="50" cy="30" r="10" fill="green" /> 
 <circle cx="70" cy="30" r="10" fill="green" /> 
 <circle cx="90" cy="30" r="10" fill="green" /> 
 <circle cx="110" cy="30" r="10" fill="green" /> 
 <circle cx="10" cy="50" r="10" fill="green" /> 
 <circle cx="30" cy="50" r="10" fill="green" /> 
 <circle cx="50" cy="50" r="10" fill="green" /> 
 <circle cx="70" cy="50" r="10" fill="green" /> 
 <circle cx="90" cy="50" r="10" fill="green" /> 
 <circle cx="110" cy="50" r="10" fill="green" /> 
 <circle cx="10" cy="70" r="10" fill="green" /> 
 <circle cx="30" cy="70" r="10" fill="green" /> 
 <circle cx="50" cy="70" r="10" fill="green" /> 
 <circle cx="70" cy="70" r="10" fill="green" /> 
 <circle cx="90" cy="70" r="10" fill="green" /> 
 <circle cx="110" cy="70" r="10" fill="green" /> 
 <circle cx="10" cy="90" r="10" fill="green" /> 
 <circle cx="30" cy="90" r="10" fill="green" /> 
 <circle cx="50" cy="90" r="10" fill="green" /> 
 <circle cx="70" cy="90" r="10" fill="green" /> 
 <circle cx="90" cy="90" r="10" fill="green" /> 
 <circle cx="110" cy="90" r="10" fill="green" /> 
 <circle cx="10" cy="110" r="10" fill="green" /> 
 <circle cx="30" cy="110" r="10" fill="green" /> 
 <circle cx="50" cy="110" r="10" fill="green" /> 
 <circle cx="70" cy="110" r="10" fill="green" /> 
 <circle cx="90" cy="110" r="10" fill="green" /> 
 <circle cx="110" cy="110" r="10" fill="green" /> 
 <circle cx="10" cy="130" r="10" fill="green" /> 
 <circle cx="30" cy="130" r="10" fill="green" /> 
 <circle cx="50" cy="130" r="10" fill="green" /> 
 <circle cx="70" cy="130" r="10" fill="green" /> 
 <circle cx="90" cy="130" r="10" fill="green" /> 
 <circle cx="110" cy="130" r="10" fill="green" /> 
 <circle cx="10" cy="150" r="10" fill="green" /> 
 <circle cx="30" cy="150" r="10" fill="green" /> 
 <circle cx="50" cy="150" r="10" fill="green" /> 
 <circle cx="70" cy="150" r="10" fill="green" /> 
 <circle cx="90" cy="150" r="10" fill="green" /> 
 <circle cx="110" cy="150" r="10" fill="green" /> 
 <circle cx="10" cy="170" r="10" fill="green" /> 
 <circle cx="30" cy="170" r="10" fill="green" /> 
 <circle cx="50" cy="170" r="10" fill="green" /> 
 <circle cx="70" cy="170" r="10" fill="green" /> 
 <circle cx="90" cy="170" r="10" fill="green" /> 
 <circle cx="110" cy="170" r="10" fill="green" /> 
 <circle cx="10" cy="190" r="10" fill="green" /> 
 <circle cx="30" cy="190" r="10" fill="green" /> 
 <circle cx="50" cy="190" r="10" fill="green" /> 
 <circle cx="70" cy="190" r="10" fill="green" /> 
 <circle cx="90" cy="190" r="10" fill="green" /> 
 <circle cx="110" cy="190" r="10" fill="green" /> 
 <circle cx="10" cy="210" r="10" fill="green" /> 
 <circle cx="30" cy="210" r="10" fill="green" /> 
 <circle cx="50" cy="210" r="10" fill="green" /> 
 <circle cx="70" cy="210" r="10" fill="green" /> 
 <circle cx="90" cy="210" r="10" fill="green" /> 
 <circle cx="110" cy="210" r="10" fill="green" /> 
 <circle cx="10" cy="230" r="10" fill="green" /> 
 <circle cx="30" cy="230" r="10" fill="green" /> 
 <circle cx="50" cy="230" r="10" fill="green" /> 
 <circle cx="70" cy="230" r="10" fill="green" /> 
 <circle cx="90" cy="230" r="10" fill="green" /> 
 <circle cx="110" cy="230" r="10" fill="green" /> 
 <circle cx="10" cy="250" r="10" fill="green" /> 
 <circle cx="30" cy="250" r="10" fill="green" /> 
 <circle cx="50" cy="250" r="10" fill="green" /> 
 <circle cx="70" cy="250" r="10" fill="green" /> 
 <circle cx="90" cy="250" r="10" fill="green" /> 
 <circle cx="110" cy="250" r="10" fill="green" /> 
 <circle cx="10" cy="270" r="10" fill="green" /> 
 <circle cx="30" cy="270" r="10" fill="green" /> 
 <circle cx="50" cy="270" r="10" fill="green" /> 
 <circle cx="70" cy="270" r="10" fill="green" /> 
 <circle cx="90" cy="270" r="10" fill="green" /> 
 <circle cx="110" cy="270" r="10" fill="green" /> 
 <circle cx="10" cy="290" r="10" fill="green" /> 
 <circle cx="30" cy="290" r="10" fill="green" /> 
 <circle cx="50" cy="290" r="10" fill="green" /> 
 <circle cx="70" cy="290" r="10" fill="green" /> 
 <circle cx="90" cy="290" r="10" fill="green" /> 
 <circle cx="110" cy="290" r="10" fill="green" /> 
 </svg> 
