<svg version="1.1" baseProfile="full" width="100%" height="100%" xmlns="http://www.w3.org/2000/svg">  <circle cx="200" cy="200" r="200" fill="red" /> 
 <rect x="58.5786" y="58.5786" width="20" height="15" fill="green" />
 <rect x="78.5786" y="58.5786" width="20" height="15" fill="green" />
 <rect x="98.5786" y="58.5786" width="20" height="15" fill="green" />
 <rect x="118.579" y="58.5786" width="20" height="15" fill="green" />
 <rect x="138.579" y="58.5786" width="20" height="15" fill="green" />
 <rect x="158.579" y="58.5786" width="20" height="15" fill="green" />
 <rect x="178.579" y="58.5786" width="20" height="15" fill="green" />
 <rect x="198.579" y="58.5786" width="20" height="15" fill="green" />
 <rect x="218.579" y="58.5786" width="20" height="15" fill="green" />
 <rect x="238.579" y="58.5786" width="20" height="15" fill="green" />
 <rect x="258.579" y="58.5786" width="20" height="15" fill="green" />
 <rect x="278.579" y="58.5786" width="20" height="15" fill="green" />
 <rect x="298.579" y="58.5786" width="20" height="15" fill="green" />
 <rect x="318.579" y="58.5786" width="20" height="15" fill="green" />
 <rect x="58.5786" y="73.5786" width="20" height="15" fill="green" />
 <rect x="78.5786" y="73.5786" width="20" height="15" fill="green" />
 <rect x="98.5786" y="73.5786" width="20" height="15" fill="green" />
 <rect x="118.579" y="73.5786" width="20" height="15" fill="green" />
 <rect x="138.579" y="73.5786" width="20" height="15" fill="green" />
 <rect x="158.579" y="73.5786" width="20" height="15" fill="green" />
 <rect x="178.579" y="73.5786" width="20" height="15" fill="green" />
 <rect x="198.579" y="73.5786" width="20" height="15" fill="green" />
 <rect x="218.579" y="73.5786" width="20" height="15" fill="green" />
 <rect x="238.579" y="73.5786" width="20" height="15" fill="green" />
 <rect x="258.579" y="73.5786" width="20" height="15" fill="green" />
 <rect x="278.579" y="73.5786" width="20" height="15" fill="green" />
 <rect x="298.579" y="73.5786" width="20" height="15" fill="green" />
 <rect x="318.579" y="73.5786" width="20" height="15" fill="green" />
 <rect x="58.5786" y="88.5786" width="20" height="15" fill="green" />
 <rect x="78.5786" y="88.5786" width="20" height="15" fill="green" />
 <rect x="98.5786" y="88.5786" width="20" height="15" fill="green" />
 <rect x="118.579" y="88.5786" width="20" height="15" fill="green" />
 <rect x="138.579" y="88.5786" width="20" height="15" fill="green" />
 <rect x="158.579" y="88.5786" width="20" height="15" fill="green" />
 <rect x="178.579" y="88.5786" width="20" height="15" fill="green" />
 <rect x="198.579" y="88.5786" width="20" height="15" fill="green" />
 <rect x="218.579" y="88.5786" width="20" height="15" fill="green" />
 <rect x="238.579" y="88.5786" width="20" height="15" fill="green" />
 <rect x="258.579" y="88.5786" width="20" height="15" fill="green" />
 <rect x="278.579" y="88.5786" width="20" height="15" fill="green" />
 <rect x="298.579" y="88.5786" width="20" height="15" fill="green" />
 <rect x="318.579" y="88.5786" width="20" height="15" fill="green" />
 <rect x="58.5786" y="103.579" width="20" height="15" fill="green" />
 <rect x="78.5786" y="103.579" width="20" height="15" fill="green" />
 <rect x="98.5786" y="103.579" width="20" height="15" fill="green" />
 <rect x="118.579" y="103.579" width="20" height="15" fill="green" />
 <rect x="138.579" y="103.579" width="20" height="15" fill="green" />
 <rect x="158.579" y="103.579" width="20" height="15" fill="green" />
 <rect x="178.579" y="103.579" width="20" height="15" fill="green" />
 <rect x="198.579" y="103.579" width="20" height="15" fill="green" />
 <rect x="218.579" y="103.579" width="20" height="15" fill="green" />
 <rect x="238.579" y="103.579" width="20" height="15" fill="green" />
 <rect x="258.579" y="103.579" width="20" height="15" fill="green" />
 <rect x="278.579" y="103.579" width="20" height="15" fill="green" />
 <rect x="298.579" y="103.579" width="20" height="15" fill="green" />
 <rect x="318.579" y="103.579" width="20" height="15" fill="green" />
 <rect x="58.5786" y="118.579" width="20" height="15" fill="green" />
 <rect x="78.5786" y="118.579" width="20" height="15" fill="green" />
 <rect x="98.5786" y="118.579" width="20" height="15" fill="green" />
 <rect x="118.579" y="118.579" width="20" height="15" fill="green" />
 <rect x="138.579" y="118.579" width="20" height="15" fill="green" />
 <rect x="158.579" y="118.579" width="20" height="15" fill="green" />
 <rect x="178.579" y="118.579" width="20" height="15" fill="green" />
 <rect x="198.579" y="118.579" width="20" height="15" fill="green" />
 <rect x="218.579" y="118.579" width="20" height="15" fill="green" />
 <rect x="238.579" y="118.579" width="20" height="15" fill="green" />
 <rect x="258.579" y="118.579" width="20" height="15" fill="green" />
 <rect x="278.579" y="118.579" width="20" height="15" fill="green" />
 <rect x="298.579" y="118.579" width="20" height="15" fill="green" />
 <rect x="318.579" y="118.579" width="20" height="15" fill="green" />
 <rect x="58.5786" y="133.579" width="20" height="15" fill="green" />
 <rect x="78.5786" y="133.579" width="20" height="15" fill="green" />
 <rect x="98.5786" y="133.579" width="20" height="15" fill="green" />
 <rect x="118.579" y="133.579" width="20" height="15" fill="green" />
 <rect x="138.579" y="133.579" width="20" height="15" fill="green" />
 <rect x="158.579" y="133.579" width="20" height="15" fill="green" />
 <rect x="178.579" y="133.579" width="20" height="15" fill="green" />
 <rect x="198.579" y="133.579" width="20" height="15" fill="green" />
 <rect x="218.579" y="133.579" width="20" height="15" fill="green" />
 <rect x="238.579" y="133.579" width="20" height="15" fill="green" />
 <rect x="258.579" y="133.579" width="20" height="15" fill="green" />
 <rect x="278.579" y="133.579" width="20" height="15" fill="green" />
 <rect x="298.579" y="133.579" width="20" height="15" fill="green" />
 <rect x="318.579" y="133.579" width="20" height="15" fill="green" />
 <rect x="58.5786" y="148.579" width="20" height="15" fill="green" />
 <rect x="78.5786" y="148.579" width="20" height="15" fill="green" />
 <rect x="98.5786" y="148.579" width="20" height="15" fill="green" />
 <rect x="118.579" y="148.579" width="20" height="15" fill="green" />
 <rect x="138.579" y="148.579" width="20" height="15" fill="green" />
 <rect x="158.579" y="148.579" width="20" height="15" fill="green" />
 <rect x="178.579" y="148.579" width="20" height="15" fill="green" />
 <rect x="198.579" y="148.579" width="20" height="15" fill="green" />
 <rect x="218.579" y="148.579" width="20" height="15" fill="green" />
 <rect x="238.579" y="148.579" width="20" height="15" fill="green" />
 <rect x="258.579" y="148.579" width="20" height="15" fill="green" />
 <rect x="278.579" y="148.579" width="20" height="15" fill="green" />
 <rect x="298.579" y="148.579" width="20" height="15" fill="green" />
 <rect x="318.579" y="148.579" width="20" height="15" fill="green" />
 <rect x="58.5786" y="163.579" width="20" height="15" fill="green" />
 <rect x="78.5786" y="163.579" width="20" height="15" fill="green" />
 <rect x="98.5786" y="163.579" width="20" height="15" fill="green" />
 <rect x="118.579" y="163.579" width="20" height="15" fill="green" />
 <rect x="138.579" y="163.579" width="20" height="15" fill="green" />
 <rect x="158.579" y="163.579" width="20" height="15" fill="green" />
 <rect x="178.579" y="163.579" width="20" height="15" fill="green" />
 <rect x="198.579" y="163.579" width="20" height="15" fill="green" />
 <rect x="218.579" y="163.579" width="20" height="15" fill="green" />
 <rect x="238.579" y="163.579" width="20" height="15" fill="green" />
 <rect x="258.579" y="163.579" width="20" height="15" fill="green" />
 <rect x="278.579" y="163.579" width="20" height="15" fill="green" />
 <rect x="298.579" y="163.579" width="20" height="15" fill="green" />
 <rect x="318.579" y="163.579" width="20" height="15" fill="green" />
 <rect x="58.5786" y="178.579" width="20" height="15" fill="green" />
 <rect x="78.5786" y="178.579" width="20" height="15" fill="green" />
 <rect x="98.5786" y="178.579" width="20" height="15" fill="green" />
 <rect x="118.579" y="178.579" width="20" height="15" fill="green" />
 <rect x="138.579" y="178.579" width="20" height="15" fill="green" />
 <rect x="158.579" y="178.579" width="20" height="15" fill="green" />
 <rect x="178.579" y="178.579" width="20" height="15" fill="green" />
 <rect x="198.579" y="178.579" width="20" height="15" fill="green" />
 <rect x="218.579" y="178.579" width="20" height="15" fill="green" />
 <rect x="238.579" y="178.579" width="20" height="15" fill="green" />
 <rect x="258.579" y="178.579" width="20" height="15" fill="green" />
 <rect x="278.579" y="178.579" width="20" height="15" fill="green" />
 <rect x="298.579" y="178.579" width="20" height="15" fill="green" />
 <rect x="318.579" y="178.579" width="20" height="15" fill="green" />
 <rect x="58.5786" y="193.579" width="20" height="15" fill="green" />
 <rect x="78.5786" y="193.579" width="20" height="15" fill="green" />
 <rect x="98.5786" y="193.579" width="20" height="15" fill="green" />
 <rect x="118.579" y="193.579" width="20" height="15" fill="green" />
 <rect x="138.579" y="193.579" width="20" height="15" fill="green" />
 <rect x="158.579" y="193.579" width="20" height="15" fill="green" />
 <rect x="178.579" y="193.579" width="20" height="15" fill="green" />
 <rect x="198.579" y="193.579" width="20" height="15" fill="green" />
 <rect x="218.579" y="193.579" width="20" height="15" fill="green" />
 <rect x="238.579" y="193.579" width="20" height="15" fill="green" />
 <rect x="258.579" y="193.579" width="20" height="15" fill="green" />
 <rect x="278.579" y="193.579" width="20" height="15" fill="green" />
 <rect x="298.579" y="193.579" width="20" height="15" fill="green" />
 <rect x="318.579" y="193.579" width="20" height="15" fill="green" />
 <rect x="58.5786" y="208.579" width="20" height="15" fill="green" />
 <rect x="78.5786" y="208.579" width="20" height="15" fill="green" />
 <rect x="98.5786" y="208.579" width="20" height="15" fill="green" />
 <rect x="118.579" y="208.579" width="20" height="15" fill="green" />
 <rect x="138.579" y="208.579" width="20" height="15" fill="green" />
 <rect x="158.579" y="208.579" width="20" height="15" fill="green" />
 <rect x="178.579" y="208.579" width="20" height="15" fill="green" />
 <rect x="198.579" y="208.579" width="20" height="15" fill="green" />
 <rect x="218.579" y="208.579" width="20" height="15" fill="green" />
 <rect x="238.579" y="208.579" width="20" height="15" fill="green" />
 <rect x="258.579" y="208.579" width="20" height="15" fill="green" />
 <rect x="278.579" y="208.579" width="20" height="15" fill="green" />
 <rect x="298.579" y="208.579" width="20" height="15" fill="green" />
 <rect x="318.579" y="208.579" width="20" height="15" fill="green" />
 <rect x="58.5786" y="223.579" width="20" height="15" fill="green" />
 <rect x="78.5786" y="223.579" width="20" height="15" fill="green" />
 <rect x="98.5786" y="223.579" width="20" height="15" fill="green" />
 <rect x="118.579" y="223.579" width="20" height="15" fill="green" />
 <rect x="138.579" y="223.579" width="20" height="15" fill="green" />
 <rect x="158.579" y="223.579" width="20" height="15" fill="green" />
 <rect x="178.579" y="223.579" width="20" height="15" fill="green" />
 <rect x="198.579" y="223.579" width="20" height="15" fill="green" />
 <rect x="218.579" y="223.579" width="20" height="15" fill="green" />
 <rect x="238.579" y="223.579" width="20" height="15" fill="green" />
 <rect x="258.579" y="223.579" width="20" height="15" fill="green" />
 <rect x="278.579" y="223.579" width="20" height="15" fill="green" />
 <rect x="298.579" y="223.579" width="20" height="15" fill="green" />
 <rect x="318.579" y="223.579" width="20" height="15" fill="green" />
 <rect x="58.5786" y="238.579" width="20" height="15" fill="green" />
 <rect x="78.5786" y="238.579" width="20" height="15" fill="green" />
 <rect x="98.5786" y="238.579" width="20" height="15" fill="green" />
 <rect x="118.579" y="238.579" width="20" height="15" fill="green" />
 <rect x="138.579" y="238.579" width="20" height="15" fill="green" />
 <rect x="158.579" y="238.579" width="20" height="15" fill="green" />
 <rect x="178.579" y="238.579" width="20" height="15" fill="green" />
 <rect x="198.579" y="238.579" width="20" height="15" fill="green" />
 <rect x="218.579" y="238.579" width="20" height="15" fill="green" />
 <rect x="238.579" y="238.579" width="20" height="15" fill="green" />
 <rect x="258.579" y="238.579" width="20" height="15" fill="green" />
 <rect x="278.579" y="238.579" width="20" height="15" fill="green" />
 <rect x="298.579" y="238.579" width="20" height="15" fill="green" />
 <rect x="318.579" y="238.579" width="20" height="15" fill="green" />
 <rect x="58.5786" y="253.579" width="20" height="15" fill="green" />
 <rect x="78.5786" y="253.579" width="20" height="15" fill="green" />
 <rect x="98.5786" y="253.579" width="20" height="15" fill="green" />
 <rect x="118.579" y="253.579" width="20" height="15" fill="green" />
 <rect x="138.579" y="253.579" width="20" height="15" fill="green" />
 <rect x="158.579" y="253.579" width="20" height="15" fill="green" />
 <rect x="178.579" y="253.579" width="20" height="15" fill="green" />
 <rect x="198.579" y="253.579" width="20" height="15" fill="green" />
 <rect x="218.579" y="253.579" width="20" height="15" fill="green" />
 <rect x="238.579" y="253.579" width="20" height="15" fill="green" />
 <rect x="258.579" y="253.579" width="20" height="15" fill="green" />
 <rect x="278.579" y="253.579" width="20" height="15" fill="green" />
 <rect x="298.579" y="253.579" width="20" height="15" fill="green" />
 <rect x="318.579" y="253.579" width="20" height="15" fill="green" />
 <rect x="58.5786" y="268.579" width="20" height="15" fill="green" />
 <rect x="78.5786" y="268.579" width="20" height="15" fill="green" />
 <rect x="98.5786" y="268.579" width="20" height="15" fill="green" />
 <rect x="118.579" y="268.579" width="20" height="15" fill="green" />
 <rect x="138.579" y="268.579" width="20" height="15" fill="green" />
 <rect x="158.579" y="268.579" width="20" height="15" fill="green" />
 <rect x="178.579" y="268.579" width="20" height="15" fill="green" />
 <rect x="198.579" y="268.579" width="20" height="15" fill="green" />
 <rect x="218.579" y="268.579" width="20" height="15" fill="green" />
 <rect x="238.579" y="268.579" width="20" height="15" fill="green" />
 <rect x="258.579" y="268.579" width="20" height="15" fill="green" />
 <rect x="278.579" y="268.579" width="20" height="15" fill="green" />
 <rect x="298.579" y="268.579" width="20" height="15" fill="green" />
 <rect x="318.579" y="268.579" width="20" height="15" fill="green" />
 <rect x="58.5786" y="283.579" width="20" height="15" fill="green" />
 <rect x="78.5786" y="283.579" width="20" height="15" fill="green" />
 <rect x="98.5786" y="283.579" width="20" height="15" fill="green" />
 <rect x="118.579" y="283.579" width="20" height="15" fill="green" />
 <rect x="138.579" y="283.579" width="20" height="15" fill="green" />
 <rect x="158.579" y="283.579" width="20" height="15" fill="green" />
 <rect x="178.579" y="283.579" width="20" height="15" fill="green" />
 <rect x="198.579" y="283.579" width="20" height="15" fill="green" />
 <rect x="218.579" y="283.579" width="20" height="15" fill="green" />
 <rect x="238.579" y="283.579" width="20" height="15" fill="green" />
 <rect x="258.579" y="283.579" width="20" height="15" fill="green" />
 <rect x="278.579" y="283.579" width="20" height="15" fill="green" />
 <rect x="298.579" y="283.579" width="20" height="15" fill="green" />
 <rect x="318.579" y="283.579" width="20" height="15" fill="green" />
 <rect x="58.5786" y="298.579" width="20" height="15" fill="green" />
 <rect x="78.5786" y="298.579" width="20" height="15" fill="green" />
 <rect x="98.5786" y="298.579" width="20" height="15" fill="green" />
 <rect x="118.579" y="298.579" width="20" height="15" fill="green" />
 <rect x="138.579" y="298.579" width="20" height="15" fill="green" />
 <rect x="158.579" y="298.579" width="20" height="15" fill="green" />
 <rect x="178.579" y="298.579" width="20" height="15" fill="green" />
 <rect x="198.579" y="298.579" width="20" height="15" fill="green" />
 <rect x="218.579" y="298.579" width="20" height="15" fill="green" />
 <rect x="238.579" y="298.579" width="20" height="15" fill="green" />
 <rect x="258.579" y="298.579" width="20" height="15" fill="green" />
 <rect x="278.579" y="298.579" width="20" height="15" fill="green" />
 <rect x="298.579" y="298.579" width="20" height="15" fill="green" />
 <rect x="318.579" y="298.579" width="20" height="15" fill="green" />
 <rect x="58.5786" y="313.579" width="20" height="15" fill="green" />
 <rect x="78.5786" y="313.579" width="20" height="15" fill="green" />
 <rect x="98.5786" y="313.579" width="20" height="15" fill="green" />
 <rect x="118.579" y="313.579" width="20" height="15" fill="green" />
 <rect x="138.579" y="313.579" width="20" height="15" fill="green" />
 <rect x="158.579" y="313.579" width="20" height="15" fill="green" />
 <rect x="178.579" y="313.579" width="20" height="15" fill="green" />
 <rect x="198.579" y="313.579" width="20" height="15" fill="green" />
 <rect x="218.579" y="313.579" width="20" height="15" fill="green" />
 <rect x="238.579" y="313.579" width="20" height="15" fill="green" />
 <rect x="258.579" y="313.579" width="20" height="15" fill="green" />
 <rect x="278.579" y="313.579" width="20" height="15" fill="green" />
 <rect x="298.579" y="313.579" width="20" height="15" fill="green" />
 <rect x="318.579" y="313.579" width="20" height="15" fill="green" />
 </svg> 
