<svg version="1.1" baseProfile="full" width="100%" height="100%" xmlns="http://www.w3.org/2000/svg"> <polygon  points="145 0 0 251.147 290 251.147" fill="red"/> 
 <rect x="129.904" y="26.1474" width="20" height="15" fill="green" />
 <rect x="121.244" y="41.1474" width="20" height="15" fill="green" />
 <rect x="141.244" y="41.1474" width="20" height="15" fill="green" />
 <rect x="112.583" y="56.1474" width="20" height="15" fill="green" />
 <rect x="132.583" y="56.1474" width="20" height="15" fill="green" />
 <rect x="152.583" y="56.1474" width="20" height="15" fill="green" />
 <rect x="103.923" y="71.1474" width="20" height="15" fill="green" />
 <rect x="123.923" y="71.1474" width="20" height="15" fill="green" />
 <rect x="143.923" y="71.1474" width="20" height="15" fill="green" />
 <rect x="163.923" y="71.1474" width="20" height="15" fill="green" />
 <rect x="95.2628" y="86.1474" width="20" height="15" fill="green" />
 <rect x="115.263" y="86.1474" width="20" height="15" fill="green" />
 <rect x="135.263" y="86.1474" width="20" height="15" fill="green" />
 <rect x="155.263" y="86.1474" width="20" height="15" fill="green" />
 <rect x="86.6025" y="101.147" width="20" height="15" fill="green" />
 <rect x="106.603" y="101.147" width="20" height="15" fill="green" />
 <rect x="126.603" y="101.147" width="20" height="15" fill="green" />
 <rect x="146.603" y="101.147" width="20" height="15" fill="green" />
 <rect x="166.603" y="101.147" width="20" height="15" fill="green" />
 <rect x="77.9423" y="116.147" width="20" height="15" fill="green" />
 <rect x="97.9423" y="116.147" width="20" height="15" fill="green" />
 <rect x="117.942" y="116.147" width="20" height="15" fill="green" />
 <rect x="137.942" y="116.147" width="20" height="15" fill="green" />
 <rect x="157.942" y="116.147" width="20" height="15" fill="green" />
 <rect x="177.942" y="116.147" width="20" height="15" fill="green" />
 <rect x="69.282" y="131.147" width="20" height="15" fill="green" />
 <rect x="89.282" y="131.147" width="20" height="15" fill="green" />
 <rect x="109.282" y="131.147" width="20" height="15" fill="green" />
 <rect x="129.282" y="131.147" width="20" height="15" fill="green" />
 <rect x="149.282" y="131.147" width="20" height="15" fill="green" />
 <rect x="169.282" y="131.147" width="20" height="15" fill="green" />
 <rect x="189.282" y="131.147" width="20" height="15" fill="green" />
 <rect x="60.6218" y="146.147" width="20" height="15" fill="green" />
 <rect x="80.6218" y="146.147" width="20" height="15" fill="green" />
 <rect x="100.622" y="146.147" width="20" height="15" fill="green" />
 <rect x="120.622" y="146.147" width="20" height="15" fill="green" />
 <rect x="140.622" y="146.147" width="20" height="15" fill="green" />
 <rect x="160.622" y="146.147" width="20" height="15" fill="green" />
 <rect x="180.622" y="146.147" width="20" height="15" fill="green" />
 <rect x="200.622" y="146.147" width="20" height="15" fill="green" />
 <rect x="51.9615" y="161.147" width="20" height="15" fill="green" />
 <rect x="71.9615" y="161.147" width="20" height="15" fill="green" />
 <rect x="91.9615" y="161.147" width="20" height="15" fill="green" />
 <rect x="111.962" y="161.147" width="20" height="15" fill="green" />
 <rect x="131.962" y="161.147" width="20" height="15" fill="green" />
 <rect x="151.962" y="161.147" width="20" height="15" fill="green" />
 <rect x="171.962" y="161.147" width="20" height="15" fill="green" />
 <rect x="191.962" y="161.147" width="20" height="15" fill="green" />
 <rect x="211.962" y="161.147" width="20" height="15" fill="green" />
 <rect x="43.3013" y="176.147" width="20" height="15" fill="green" />
 <rect x="63.3013" y="176.147" width="20" height="15" fill="green" />
 <rect x="83.3013" y="176.147" width="20" height="15" fill="green" />
 <rect x="103.301" y="176.147" width="20" height="15" fill="green" />
 <rect x="123.301" y="176.147" width="20" height="15" fill="green" />
 <rect x="143.301" y="176.147" width="20" height="15" fill="green" />
 <rect x="163.301" y="176.147" width="20" height="15" fill="green" />
 <rect x="183.301" y="176.147" width="20" height="15" fill="green" />
 <rect x="203.301" y="176.147" width="20" height="15" fill="green" />
 <rect x="223.301" y="176.147" width="20" height="15" fill="green" />
 <rect x="34.641" y="191.147" width="20" height="15" fill="green" />
 <rect x="54.641" y="191.147" width="20" height="15" fill="green" />
 <rect x="74.641" y="191.147" width="20" height="15" fill="green" />
 <rect x="94.641" y="191.147" width="20" height="15" fill="green" />
 <rect x="114.641" y="191.147" width="20" height="15" fill="green" />
 <rect x="134.641" y="191.147" width="20" height="15" fill="green" />
 <rect x="154.641" y="191.147" width="20" height="15" fill="green" />
 <rect x="174.641" y="191.147" width="20" height="15" fill="green" />
 <rect x="194.641" y="191.147" width="20" height="15" fill="green" />
 <rect x="214.641" y="191.147" width="20" height="15" fill="green" />
 <rect x="234.641" y="191.147" width="20" height="15" fill="green" />
 <rect x="25.9808" y="206.147" width="20" height="15" fill="green" />
 <rect x="45.9808" y="206.147" width="20" height="15" fill="green" />
 <rect x="65.9808" y="206.147" width="20" height="15" fill="green" />
 <rect x="85.9808" y="206.147" width="20" height="15" fill="green" />
 <rect x="105.981" y="206.147" width="20" height="15" fill="green" />
 <rect x="125.981" y="206.147" width="20" height="15" fill="green" />
 <rect x="145.981" y="206.147" width="20" height="15" fill="green" />
 <rect x="165.981" y="206.147" width="20" height="15" fill="green" />
 <rect x="185.981" y="206.147" width="20" height="15" fill="green" />
 <rect x="205.981" y="206.147" width="20" height="15" fill="green" />
 <rect x="225.981" y="206.147" width="20" height="15" fill="green" />
 <rect x="17.3205" y="221.147" width="20" height="15" fill="green" />
 <rect x="37.3205" y="221.147" width="20" height="15" fill="green" />
 <rect x="57.3205" y="221.147" width="20" height="15" fill="green" />
 <rect x="77.3205" y="221.147" width="20" height="15" fill="green" />
 <rect x="97.3205" y="221.147" width="20" height="15" fill="green" />
 <rect x="117.321" y="221.147" width="20" height="15" fill="green" />
 <rect x="137.321" y="221.147" width="20" height="15" fill="green" />
 <rect x="157.321" y="221.147" width="20" height="15" fill="green" />
 <rect x="177.321" y="221.147" width="20" height="15" fill="green" />
 <rect x="197.321" y="221.147" width="20" height="15" fill="green" />
 <rect x="217.321" y="221.147" width="20" height="15" fill="green" />
 <rect x="237.321" y="221.147" width="20" height="15" fill="green" />
 <rect x="8.66025" y="236.147" width="20" height="15" fill="green" />
 <rect x="28.6603" y="236.147" width="20" height="15" fill="green" />
 <rect x="48.6603" y="236.147" width="20" height="15" fill="green" />
 <rect x="68.6603" y="236.147" width="20" height="15" fill="green" />
 <rect x="88.6603" y="236.147" width="20" height="15" fill="green" />
 <rect x="108.66" y="236.147" width="20" height="15" fill="green" />
 <rect x="128.66" y="236.147" width="20" height="15" fill="green" />
 <rect x="148.66" y="236.147" width="20" height="15" fill="green" />
 <rect x="168.66" y="236.147" width="20" height="15" fill="green" />
 <rect x="188.66" y="236.147" width="20" height="15" fill="green" />
 <rect x="208.66" y="236.147" width="20" height="15" fill="green" />
 <rect x="228.66" y="236.147" width="20" height="15" fill="green" />
 <rect x="248.66" y="236.147" width="20" height="15" fill="green" />
 </svg> 
