<svg version="1.1" baseProfile="full" width="100%" height="100%" xmlns="http://www.w3.org/2000/svg"> <polygon  points="128 0 0 221.703 256 221.703" fill="red"/> 
 <circle cx="126.144" cy="41.7025" r="12" fill="green" /> 
 <circle cx="112.287" cy="65.7025" r="12" fill="green" /> 
 <circle cx="136.287" cy="65.7025" r="12" fill="green" /> 
 <circle cx="98.4308" cy="89.7025" r="12" fill="green" /> 
 <circle cx="122.431" cy="89.7025" r="12" fill="green" /> 
 <circle cx="146.431" cy="89.7025" r="12" fill="green" /> 
 <circle cx="84.5744" cy="113.703" r="12" fill="green" /> 
 <circle cx="108.574" cy="113.703" r="12" fill="green" /> 
 <circle cx="132.574" cy="113.703" r="12" fill="green" /> 
 <circle cx="156.574" cy="113.703" r="12" fill="green" /> 
 <circle cx="70.718" cy="137.703" r="12" fill="green" /> 
 <circle cx="94.718" cy="137.703" r="12" fill="green" /> 
 <circle cx="118.718" cy="137.703" r="12" fill="green" /> 
 <circle cx="142.718" cy="137.703" r="12" fill="green" /> 
 <circle cx="166.718" cy="137.703" r="12" fill="green" /> 
 <circle cx="190.718" cy="137.703" r="12" fill="green" /> 
 <circle cx="56.8616" cy="161.703" r="12" fill="green" /> 
 <circle cx="80.8616" cy="161.703" r="12" fill="green" /> 
 <circle cx="104.862" cy="161.703" r="12" fill="green" /> 
 <circle cx="128.862" cy="161.703" r="12" fill="green" /> 
 <circle cx="152.862" cy="161.703" r="12" fill="green" /> 
 <circle cx="176.862" cy="161.703" r="12" fill="green" /> 
 <circle cx="200.862" cy="161.703" r="12" fill="green" /> 
 <circle cx="43.0052" cy="185.703" r="12" fill="green" /> 
 <circle cx="67.0052" cy="185.703" r="12" fill="green" /> 
 <circle cx="91.0052" cy="185.703" r="12" fill="green" /> 
 <circle cx="115.005" cy="185.703" r="12" fill="green" /> 
 <circle cx="139.005" cy="185.703" r="12" fill="green" /> 
 <circle cx="163.005" cy="185.703" r="12" fill="green" /> 
 <circle cx="187.005" cy="185.703" r="12" fill="green" /> 
 <circle cx="211.005" cy="185.703" r="12" fill="green" /> 
 <circle cx="29.1487" cy="209.703" r="12" fill="green" /> 
 <circle cx="53.1487" cy="209.703" r="12" fill="green" /> 
 <circle cx="77.1487" cy="209.703" r="12" fill="green" /> 
 <circle cx="101.149" cy="209.703" r="12" fill="green" /> 
 <circle cx="125.149" cy="209.703" r="12" fill="green" /> 
 <circle cx="149.149" cy="209.703" r="12" fill="green" /> 
 <circle cx="173.149" cy="209.703" r="12" fill="green" /> 
 <circle cx="197.149" cy="209.703" r="12" fill="green" /> 
 <circle cx="221.149" cy="209.703" r="12" fill="green" /> 
 </svg> 
