<svg version="1.1" baseProfile="full" width="100%" height="100%" xmlns="http://www.w3.org/2000/svg">  <circle cx="200" cy="200" r="200" fill="red" /> 
 <circle cx="200" cy="220" r="10" fill="green" /> 
 <circle cx="200" cy="220" r="10" fill="green" transform="rotate(60,200,200)"/> 
 <circle cx="200" cy="220" r="10" fill="green" transform="rotate(120,200,200)"/> 
 <circle cx="200" cy="220" r="10" fill="green" transform="rotate(180,200,200)"/> 
 <circle cx="200" cy="220" r="10" fill="green" transform="rotate(240,200,200)"/> 
 <circle cx="200" cy="220" r="10" fill="green" transform="rotate(300,200,200)"/> 
 <circle cx="188.453" cy="240" r="10" fill="green" /> 
 <circle cx="188.453" cy="240" r="10" fill="green" transform="rotate(60,200,200)"/> 
 <circle cx="188.453" cy="240" r="10" fill="green" transform="rotate(120,200,200)"/> 
 <circle cx="188.453" cy="240" r="10" fill="green" transform="rotate(180,200,200)"/> 
 <circle cx="188.453" cy="240" r="10" fill="green" transform="rotate(240,200,200)"/> 
 <circle cx="188.453" cy="240" r="10" fill="green" transform="rotate(300,200,200)"/> 
 <circle cx="211.547" cy="240" r="10" fill="green" /> 
 <circle cx="211.547" cy="240" r="10" fill="green" transform="rotate(60,200,200)"/> 
 <circle cx="211.547" cy="240" r="10" fill="green" transform="rotate(120,200,200)"/> 
 <circle cx="211.547" cy="240" r="10" fill="green" transform="rotate(180,200,200)"/> 
 <circle cx="211.547" cy="240" r="10" fill="green" transform="rotate(240,200,200)"/> 
 <circle cx="211.547" cy="240" r="10" fill="green" transform="rotate(300,200,200)"/> 
 <circle cx="176.906" cy="260" r="10" fill="green" /> 
 <circle cx="176.906" cy="260" r="10" fill="green" transform="rotate(60,200,200)"/> 
 <circle cx="176.906" cy="260" r="10" fill="green" transform="rotate(120,200,200)"/> 
 <circle cx="176.906" cy="260" r="10" fill="green" transform="rotate(180,200,200)"/> 
 <circle cx="176.906" cy="260" r="10" fill="green" transform="rotate(240,200,200)"/> 
 <circle cx="176.906" cy="260" r="10" fill="green" transform="rotate(300,200,200)"/> 
 <circle cx="200" cy="260" r="10" fill="green" /> 
 <circle cx="200" cy="260" r="10" fill="green" transform="rotate(60,200,200)"/> 
 <circle cx="200" cy="260" r="10" fill="green" transform="rotate(120,200,200)"/> 
 <circle cx="200" cy="260" r="10" fill="green" transform="rotate(180,200,200)"/> 
 <circle cx="200" cy="260" r="10" fill="green" transform="rotate(240,200,200)"/> 
 <circle cx="200" cy="260" r="10" fill="green" transform="rotate(300,200,200)"/> 
 <circle cx="223.094" cy="260" r="10" fill="green" /> 
 <circle cx="223.094" cy="260" r="10" fill="green" transform="rotate(60,200,200)"/> 
 <circle cx="223.094" cy="260" r="10" fill="green" transform="rotate(120,200,200)"/> 
 <circle cx="223.094" cy="260" r="10" fill="green" transform="rotate(180,200,200)"/> 
 <circle cx="223.094" cy="260" r="10" fill="green" transform="rotate(240,200,200)"/> 
 <circle cx="223.094" cy="260" r="10" fill="green" transform="rotate(300,200,200)"/> 
 <circle cx="165.359" cy="280" r="10" fill="green" /> 
 <circle cx="165.359" cy="280" r="10" fill="green" transform="rotate(60,200,200)"/> 
 <circle cx="165.359" cy="280" r="10" fill="green" transform="rotate(120,200,200)"/> 
 <circle cx="165.359" cy="280" r="10" fill="green" transform="rotate(180,200,200)"/> 
 <circle cx="165.359" cy="280" r="10" fill="green" transform="rotate(240,200,200)"/> 
 <circle cx="165.359" cy="280" r="10" fill="green" transform="rotate(300,200,200)"/> 
 <circle cx="188.453" cy="280" r="10" fill="green" /> 
 <circle cx="188.453" cy="280" r="10" fill="green" transform="rotate(60,200,200)"/> 
 <circle cx="188.453" cy="280" r="10" fill="green" transform="rotate(120,200,200)"/> 
 <circle cx="188.453" cy="280" r="10" fill="green" transform="rotate(180,200,200)"/> 
 <circle cx="188.453" cy="280" r="10" fill="green" transform="rotate(240,200,200)"/> 
 <circle cx="188.453" cy="280" r="10" fill="green" transform="rotate(300,200,200)"/> 
 <circle cx="211.547" cy="280" r="10" fill="green" /> 
 <circle cx="211.547" cy="280" r="10" fill="green" transform="rotate(60,200,200)"/> 
 <circle cx="211.547" cy="280" r="10" fill="green" transform="rotate(120,200,200)"/> 
 <circle cx="211.547" cy="280" r="10" fill="green" transform="rotate(180,200,200)"/> 
 <circle cx="211.547" cy="280" r="10" fill="green" transform="rotate(240,200,200)"/> 
 <circle cx="211.547" cy="280" r="10" fill="green" transform="rotate(300,200,200)"/> 
 <circle cx="234.641" cy="280" r="10" fill="green" /> 
 <circle cx="234.641" cy="280" r="10" fill="green" transform="rotate(60,200,200)"/> 
 <circle cx="234.641" cy="280" r="10" fill="green" transform="rotate(120,200,200)"/> 
 <circle cx="234.641" cy="280" r="10" fill="green" transform="rotate(180,200,200)"/> 
 <circle cx="234.641" cy="280" r="10" fill="green" transform="rotate(240,200,200)"/> 
 <circle cx="234.641" cy="280" r="10" fill="green" transform="rotate(300,200,200)"/> 
 <circle cx="153.812" cy="300" r="10" fill="green" /> 
 <circle cx="153.812" cy="300" r="10" fill="green" transform="rotate(60,200,200)"/> 
 <circle cx="153.812" cy="300" r="10" fill="green" transform="rotate(120,200,200)"/> 
 <circle cx="153.812" cy="300" r="10" fill="green" transform="rotate(180,200,200)"/> 
 <circle cx="153.812" cy="300" r="10" fill="green" transform="rotate(240,200,200)"/> 
 <circle cx="153.812" cy="300" r="10" fill="green" transform="rotate(300,200,200)"/> 
 <circle cx="176.906" cy="300" r="10" fill="green" /> 
 <circle cx="176.906" cy="300" r="10" fill="green" transform="rotate(60,200,200)"/> 
 <circle cx="176.906" cy="300" r="10" fill="green" transform="rotate(120,200,200)"/> 
 <circle cx="176.906" cy="300" r="10" fill="green" transform="rotate(180,200,200)"/> 
 <circle cx="176.906" cy="300" r="10" fill="green" transform="rotate(240,200,200)"/> 
 <circle cx="176.906" cy="300" r="10" fill="green" transform="rotate(300,200,200)"/> 
 <circle cx="200" cy="300" r="10" fill="green" /> 
 <circle cx="200" cy="300" r="10" fill="green" transform="rotate(60,200,200)"/> 
 <circle cx="200" cy="300" r="10" fill="green" transform="rotate(120,200,200)"/> 
 <circle cx="200" cy="300" r="10" fill="green" transform="rotate(180,200,200)"/> 
 <circle cx="200" cy="300" r="10" fill="green" transform="rotate(240,200,200)"/> 
 <circle cx="200" cy="300" r="10" fill="green" transform="rotate(300,200,200)"/> 
 <circle cx="223.094" cy="300" r="10" fill="green" /> 
 <circle cx="223.094" cy="300" r="10" fill="green" transform="rotate(60,200,200)"/> 
 <circle cx="223.094" cy="300" r="10" fill="green" transform="rotate(120,200,200)"/> 
 <circle cx="223.094" cy="300" r="10" fill="green" transform="rotate(180,200,200)"/> 
 <circle cx="223.094" cy="300" r="10" fill="green" transform="rotate(240,200,200)"/> 
 <circle cx="223.094" cy="300" r="10" fill="green" transform="rotate(300,200,200)"/> 
 <circle cx="246.188" cy="300" r="10" fill="green" /> 
 <circle cx="246.188" cy="300" r="10" fill="green" transform="rotate(60,200,200)"/> 
 <circle cx="246.188" cy="300" r="10" fill="green" transform="rotate(120,200,200)"/> 
 <circle cx="246.188" cy="300" r="10" fill="green" transform="rotate(180,200,200)"/> 
 <circle cx="246.188" cy="300" r="10" fill="green" transform="rotate(240,200,200)"/> 
 <circle cx="246.188" cy="300" r="10" fill="green" transform="rotate(300,200,200)"/> 
 <circle cx="142.265" cy="320" r="10" fill="green" /> 
 <circle cx="142.265" cy="320" r="10" fill="green" transform="rotate(60,200,200)"/> 
 <circle cx="142.265" cy="320" r="10" fill="green" transform="rotate(120,200,200)"/> 
 <circle cx="142.265" cy="320" r="10" fill="green" transform="rotate(180,200,200)"/> 
 <circle cx="142.265" cy="320" r="10" fill="green" transform="rotate(240,200,200)"/> 
 <circle cx="142.265" cy="320" r="10" fill="green" transform="rotate(300,200,200)"/> 
 <circle cx="165.359" cy="320" r="10" fill="green" /> 
 <circle cx="165.359" cy="320" r="10" fill="green" transform="rotate(60,200,200)"/> 
 <circle cx="165.359" cy="320" r="10" fill="green" transform="rotate(120,200,200)"/> 
 <circle cx="165.359" cy="320" r="10" fill="green" transform="rotate(180,200,200)"/> 
 <circle cx="165.359" cy="320" r="10" fill="green" transform="rotate(240,200,200)"/> 
 <circle cx="165.359" cy="320" r="10" fill="green" transform="rotate(300,200,200)"/> 
 <circle cx="188.453" cy="320" r="10" fill="green" /> 
 <circle cx="188.453" cy="320" r="10" fill="green" transform="rotate(60,200,200)"/> 
 <circle cx="188.453" cy="320" r="10" fill="green" transform="rotate(120,200,200)"/> 
 <circle cx="188.453" cy="320" r="10" fill="green" transform="rotate(180,200,200)"/> 
 <circle cx="188.453" cy="320" r="10" fill="green" transform="rotate(240,200,200)"/> 
 <circle cx="188.453" cy="320" r="10" fill="green" transform="rotate(300,200,200)"/> 
 <circle cx="211.547" cy="320" r="10" fill="green" /> 
 <circle cx="211.547" cy="320" r="10" fill="green" transform="rotate(60,200,200)"/> 
 <circle cx="211.547" cy="320" r="10" fill="green" transform="rotate(120,200,200)"/> 
 <circle cx="211.547" cy="320" r="10" fill="green" transform="rotate(180,200,200)"/> 
 <circle cx="211.547" cy="320" r="10" fill="green" transform="rotate(240,200,200)"/> 
 <circle cx="211.547" cy="320" r="10" fill="green" transform="rotate(300,200,200)"/> 
 <circle cx="234.641" cy="320" r="10" fill="green" /> 
 <circle cx="234.641" cy="320" r="10" fill="green" transform="rotate(60,200,200)"/> 
 <circle cx="234.641" cy="320" r="10" fill="green" transform="rotate(120,200,200)"/> 
 <circle cx="234.641" cy="320" r="10" fill="green" transform="rotate(180,200,200)"/> 
 <circle cx="234.641" cy="320" r="10" fill="green" transform="rotate(240,200,200)"/> 
 <circle cx="234.641" cy="320" r="10" fill="green" transform="rotate(300,200,200)"/> 
 <circle cx="257.735" cy="320" r="10" fill="green" /> 
 <circle cx="257.735" cy="320" r="10" fill="green" transform="rotate(60,200,200)"/> 
 <circle cx="257.735" cy="320" r="10" fill="green" transform="rotate(120,200,200)"/> 
 <circle cx="257.735" cy="320" r="10" fill="green" transform="rotate(180,200,200)"/> 
 <circle cx="257.735" cy="320" r="10" fill="green" transform="rotate(240,200,200)"/> 
 <circle cx="257.735" cy="320" r="10" fill="green" transform="rotate(300,200,200)"/> 
 <circle cx="130.718" cy="340" r="10" fill="green" /> 
 <circle cx="130.718" cy="340" r="10" fill="green" transform="rotate(60,200,200)"/> 
 <circle cx="130.718" cy="340" r="10" fill="green" transform="rotate(120,200,200)"/> 
 <circle cx="130.718" cy="340" r="10" fill="green" transform="rotate(180,200,200)"/> 
 <circle cx="130.718" cy="340" r="10" fill="green" transform="rotate(240,200,200)"/> 
 <circle cx="130.718" cy="340" r="10" fill="green" transform="rotate(300,200,200)"/> 
 <circle cx="153.812" cy="340" r="10" fill="green" /> 
 <circle cx="153.812" cy="340" r="10" fill="green" transform="rotate(60,200,200)"/> 
 <circle cx="153.812" cy="340" r="10" fill="green" transform="rotate(120,200,200)"/> 
 <circle cx="153.812" cy="340" r="10" fill="green" transform="rotate(180,200,200)"/> 
 <circle cx="153.812" cy="340" r="10" fill="green" transform="rotate(240,200,200)"/> 
 <circle cx="153.812" cy="340" r="10" fill="green" transform="rotate(300,200,200)"/> 
 <circle cx="176.906" cy="340" r="10" fill="green" /> 
 <circle cx="176.906" cy="340" r="10" fill="green" transform="rotate(60,200,200)"/> 
 <circle cx="176.906" cy="340" r="10" fill="green" transform="rotate(120,200,200)"/> 
 <circle cx="176.906" cy="340" r="10" fill="green" transform="rotate(180,200,200)"/> 
 <circle cx="176.906" cy="340" r="10" fill="green" transform="rotate(240,200,200)"/> 
 <circle cx="176.906" cy="340" r="10" fill="green" transform="rotate(300,200,200)"/> 
 <circle cx="200" cy="340" r="10" fill="green" /> 
 <circle cx="200" cy="340" r="10" fill="green" transform="rotate(60,200,200)"/> 
 <circle cx="200" cy="340" r="10" fill="green" transform="rotate(120,200,200)"/> 
 <circle cx="200" cy="340" r="10" fill="green" transform="rotate(180,200,200)"/> 
 <circle cx="200" cy="340" r="10" fill="green" transform="rotate(240,200,200)"/> 
 <circle cx="200" cy="340" r="10" fill="green" transform="rotate(300,200,200)"/> 
 <circle cx="223.094" cy="340" r="10" fill="green" /> 
 <circle cx="223.094" cy="340" r="10" fill="green" transform="rotate(60,200,200)"/> 
 <circle cx="223.094" cy="340" r="10" fill="green" transform="rotate(120,200,200)"/> 
 <circle cx="223.094" cy="340" r="10" fill="green" transform="rotate(180,200,200)"/> 
 <circle cx="223.094" cy="340" r="10" fill="green" transform="rotate(240,200,200)"/> 
 <circle cx="223.094" cy="340" r="10" fill="green" transform="rotate(300,200,200)"/> 
 <circle cx="246.188" cy="340" r="10" fill="green" /> 
 <circle cx="246.188" cy="340" r="10" fill="green" transform="rotate(60,200,200)"/> 
 <circle cx="246.188" cy="340" r="10" fill="green" transform="rotate(120,200,200)"/> 
 <circle cx="246.188" cy="340" r="10" fill="green" transform="rotate(180,200,200)"/> 
 <circle cx="246.188" cy="340" r="10" fill="green" transform="rotate(240,200,200)"/> 
 <circle cx="246.188" cy="340" r="10" fill="green" transform="rotate(300,200,200)"/> 
 <circle cx="269.282" cy="340" r="10" fill="green" /> 
 <circle cx="269.282" cy="340" r="10" fill="green" transform="rotate(60,200,200)"/> 
 <circle cx="269.282" cy="340" r="10" fill="green" transform="rotate(120,200,200)"/> 
 <circle cx="269.282" cy="340" r="10" fill="green" transform="rotate(180,200,200)"/> 
 <circle cx="269.282" cy="340" r="10" fill="green" transform="rotate(240,200,200)"/> 
 <circle cx="269.282" cy="340" r="10" fill="green" transform="rotate(300,200,200)"/> 
 <circle cx="119.171" cy="360" r="10" fill="green" /> 
 <circle cx="119.171" cy="360" r="10" fill="green" transform="rotate(60,200,200)"/> 
 <circle cx="119.171" cy="360" r="10" fill="green" transform="rotate(120,200,200)"/> 
 <circle cx="119.171" cy="360" r="10" fill="green" transform="rotate(180,200,200)"/> 
 <circle cx="119.171" cy="360" r="10" fill="green" transform="rotate(240,200,200)"/> 
 <circle cx="119.171" cy="360" r="10" fill="green" transform="rotate(300,200,200)"/> 
 <circle cx="142.265" cy="360" r="10" fill="green" /> 
 <circle cx="142.265" cy="360" r="10" fill="green" transform="rotate(60,200,200)"/> 
 <circle cx="142.265" cy="360" r="10" fill="green" transform="rotate(120,200,200)"/> 
 <circle cx="142.265" cy="360" r="10" fill="green" transform="rotate(180,200,200)"/> 
 <circle cx="142.265" cy="360" r="10" fill="green" transform="rotate(240,200,200)"/> 
 <circle cx="142.265" cy="360" r="10" fill="green" transform="rotate(300,200,200)"/> 
 <circle cx="165.359" cy="360" r="10" fill="green" /> 
 <circle cx="165.359" cy="360" r="10" fill="green" transform="rotate(60,200,200)"/> 
 <circle cx="165.359" cy="360" r="10" fill="green" transform="rotate(120,200,200)"/> 
 <circle cx="165.359" cy="360" r="10" fill="green" transform="rotate(180,200,200)"/> 
 <circle cx="165.359" cy="360" r="10" fill="green" transform="rotate(240,200,200)"/> 
 <circle cx="165.359" cy="360" r="10" fill="green" transform="rotate(300,200,200)"/> 
 <circle cx="188.453" cy="360" r="10" fill="green" /> 
 <circle cx="188.453" cy="360" r="10" fill="green" transform="rotate(60,200,200)"/> 
 <circle cx="188.453" cy="360" r="10" fill="green" transform="rotate(120,200,200)"/> 
 <circle cx="188.453" cy="360" r="10" fill="green" transform="rotate(180,200,200)"/> 
 <circle cx="188.453" cy="360" r="10" fill="green" transform="rotate(240,200,200)"/> 
 <circle cx="188.453" cy="360" r="10" fill="green" transform="rotate(300,200,200)"/> 
 <circle cx="211.547" cy="360" r="10" fill="green" /> 
 <circle cx="211.547" cy="360" r="10" fill="green" transform="rotate(60,200,200)"/> 
 <circle cx="211.547" cy="360" r="10" fill="green" transform="rotate(120,200,200)"/> 
 <circle cx="211.547" cy="360" r="10" fill="green" transform="rotate(180,200,200)"/> 
 <circle cx="211.547" cy="360" r="10" fill="green" transform="rotate(240,200,200)"/> 
 <circle cx="211.547" cy="360" r="10" fill="green" transform="rotate(300,200,200)"/> 
 <circle cx="234.641" cy="360" r="10" fill="green" /> 
 <circle cx="234.641" cy="360" r="10" fill="green" transform="rotate(60,200,200)"/> 
 <circle cx="234.641" cy="360" r="10" fill="green" transform="rotate(120,200,200)"/> 
 <circle cx="234.641" cy="360" r="10" fill="green" transform="rotate(180,200,200)"/> 
 <circle cx="234.641" cy="360" r="10" fill="green" transform="rotate(240,200,200)"/> 
 <circle cx="234.641" cy="360" r="10" fill="green" transform="rotate(300,200,200)"/> 
 <circle cx="257.735" cy="360" r="10" fill="green" /> 
 <circle cx="257.735" cy="360" r="10" fill="green" transform="rotate(60,200,200)"/> 
 <circle cx="257.735" cy="360" r="10" fill="green" transform="rotate(120,200,200)"/> 
 <circle cx="257.735" cy="360" r="10" fill="green" transform="rotate(180,200,200)"/> 
 <circle cx="257.735" cy="360" r="10" fill="green" transform="rotate(240,200,200)"/> 
 <circle cx="257.735" cy="360" r="10" fill="green" transform="rotate(300,200,200)"/> 
 <circle cx="280.829" cy="360" r="10" fill="green" /> 
 <circle cx="280.829" cy="360" r="10" fill="green" transform="rotate(60,200,200)"/> 
 <circle cx="280.829" cy="360" r="10" fill="green" transform="rotate(120,200,200)"/> 
 <circle cx="280.829" cy="360" r="10" fill="green" transform="rotate(180,200,200)"/> 
 <circle cx="280.829" cy="360" r="10" fill="green" transform="rotate(240,200,200)"/> 
 <circle cx="280.829" cy="360" r="10" fill="green" transform="rotate(300,200,200)"/> 
 <rect x="0" y="0" width="180" height="76" fill="green"  stroke="black"/>
 </svg> 
